<svg id="Group_62" data-name="Group 62" xmlns="http://www.w3.org/2000/svg" width="164.12" height="164.12" viewBox="0 0 164.12 164.12">
  <g id="Ellipse_18" data-name="Ellipse 18" transform="translate(0 0)" fill="#fff" stroke="#dbca35" stroke-width="1">
    <ellipse cx="82.06" cy="82.06" rx="82.06" ry="82.06" stroke="none"/>
    <ellipse cx="82.06" cy="82.06" rx="81.56" ry="81.56" fill="none"/>
  </g>
  <g id="check-mark" transform="translate(38.346 38.346)">
    <path id="Path_108" data-name="Path 108" d="M91.066,50.533A40.533,40.533,0,1,1,50.533,10,40.533,40.533,0,0,1,91.066,50.533Zm0,0" transform="translate(-8.352 -8.352)" fill="#fceb55"/>
    <path id="Path_109" data-name="Path 109" d="M151.316,139.848l-19.635,19.635-8.595-8.595-9.321,9.321,8.595,8.595,9.321,9.32,28.955-28.955Zm0,0" transform="translate(-95.021 -116.806)" fill="#fff"/>
    <path id="Path_110" data-name="Path 110" d="M123.329,171.419a1.647,1.647,0,0,1-1.165-.483l-17.916-17.915a1.648,1.648,0,0,1,0-2.331l9.32-9.32a1.648,1.648,0,0,1,2.331,0l7.43,7.43L141.8,130.33a1.648,1.648,0,0,1,2.33,0l9.32,9.321a1.647,1.647,0,0,1,0,2.33l-28.955,28.956a1.647,1.647,0,0,1-1.165.482Zm-15.585-19.563,15.585,15.585,26.625-26.625-6.99-6.991-18.47,18.47a1.647,1.647,0,0,1-2.33,0l-7.43-7.43Zm0,0" transform="translate(-86.669 -108.453)"/>
    <path id="Path_111" data-name="Path 111" d="M42.17,84.36q-1.614,0-3.233-.124A42.171,42.171,0,1,1,76.463,66.766a1.648,1.648,0,1,1-2.676-1.924,38.885,38.885,0,1,0-8.944,8.944,1.648,1.648,0,1,1,1.923,2.676,42.174,42.174,0,0,1-24.6,7.9Zm0,0" transform="translate(0 0)"/>
    <path id="Path_112" data-name="Path 112" d="M421.6,423.248a1.648,1.648,0,1,1,1.165-.483A1.659,1.659,0,0,1,421.6,423.248Zm0,0" transform="translate(-350.759 -350.759)"/>
  </g>
</svg>
