<svg xmlns="http://www.w3.org/2000/svg" width="192.001" height="295.176" viewBox="0 0 192.001 295.176">
  <g id="Group_90" data-name="Group 90" transform="translate(-832 -458.56)">
    <path id="Path_113" data-name="Path 113" d="M1866.983,1878.582a64.432,64.432,0,0,1-4.928,17.146c-6.948,15.536-18.178,27.26-30.417,35.675-3.379,2.322-6.955,4.637-10.671,6.854-3.62,2.159-7.372,4.228-11.2,6.123-12.449,6.16-25.726,10.5-38,10.255-17.229-.342-33.833-10.53-46.531-25.621a112,112,0,0,1-8.212-11.138c-.132-10.895,1.979-21.943,4.081-32.616l-14.455,1.663c3.558-4.842,8.988-6.372,14.1-7.21,37.468-6.142,74.852,11.967,112.618,11.876,8.117-.021,16.421-.944,23.821-5.271A54.849,54.849,0,0,0,1866.983,1878.582Z" transform="translate(-856.562 -1233.067)" fill="#dee6f3" opacity="0.25"/>
    <path id="Path_114" data-name="Path 114" d="M1738.634,754.962q-.176,3.156-.625,6.3c-.027.186-.054.369-.084.557v.034c-.044.294-.091.589-.141.882-.026.157-.053.314-.082.472a.173.173,0,0,1-.011.074c-.009.052-.018.1-.028.156-.031.181-.064.369-.1.542s-.065.342-.1.513a.309.309,0,0,1-.015.074c-.058.305-.123.608-.184.911h0c-.026.123-.054.256-.082.381-.01.049-.021.1-.031.146-.043.2-.086.39-.132.585-.034.153-.069.3-.106.454-.058.246-.114.481-.173.719s-.123.479-.182.718c-.048.186-.1.369-.148.558-.01.043-.022.086-.035.129a.212.212,0,0,1-.013.051c-.064.232-.129.464-.194.7q-.153.535-.316,1.071c-.109.358-.218.712-.335,1.069-.061.193-.123.384-.188.576-.055.164-.109.326-.167.492s-.123.355-.183.531c-.123.355-.253.707-.385,1.061s-.267.706-.406,1.059-.28.7-.426,1.055q-.111.263-.223.525c-.072.167-.141.333-.213.5-.08.185-.161.369-.246.554-.219.492-.439.966-.664,1.444q-.167.356-.339.711c-.054.111-.107.221-.161.331-.022.045-.045.09-.066.135-.056.111-.108.221-.165.331-.1.207-.205.413-.31.615s-.215.422-.323.631c-.036.069-.071.139-.109.208-.09.177-.184.352-.275.525-.018.034-.037.068-.055.1l-.33.615c-.123.229-.246.455-.376.683-.253.453-.509.9-.77,1.345s-.523.886-.791,1.323-.539.872-.813,1.3c-.154.246-.308.483-.466.723q-.168.262-.343.52-.221.337-.446.67-.214.314-.431.626c-.144.209-.288.416-.433.622s-.291.412-.439.615-.3.407-.444.615-.3.4-.446.605-.3.4-.453.6l-.456.594q-.459.593-.927,1.173-.235.292-.47.579c-.314.385-.632.765-.952,1.143q-.237.282-.483.563l-.424.492q-.273.314-.552.622c-.123.139-.246.275-.369.413q-.56.615-1.124,1.216c-.155.165-.309.328-.465.492-.021.022-.042.043-.06.064l-.376.389c-.123.123-.246.246-.369.376-.152.156-.3.312-.461.466-.076.077-.154.154-.233.232l-.231.23q-.232.232-.468.46l-.417.406c-.176.167-.349.335-.525.5l-.528.492c-.141.134-.284.266-.426.4-.214.194-.425.389-.638.581q-.535.483-1.075.957c-.2.177-.406.354-.615.529s-.385.331-.58.492c-.329.281-.66.556-.992.83l-.421.343c-.246.2-.492.4-.747.6l-.492.392c-.151.123-.3.237-.452.353q-.333.258-.668.513-.281.216-.561.427c-.189.143-.377.283-.566.422q-.565.418-1.134.828-.458.331-.919.652c-.265.186-.53.369-.8.553q-.633.434-1.275.871c-.428.29-.861.578-1.3.868q-.524.351-1.057.7c-.523.343-1.052.686-1.582,1.028l-1.343.861q-2.026,1.281-4.115,2.531h0c-.2.123-.4.246-.608.36l-.246.148q-.453.268-.906.53c-.209.123-.417.246-.626.363-.152.089-.307.177-.46.263l-.637.363c-.106.06-.211.123-.32.18l-.319.178c-.055.033-.113.065-.168.1l-.615.342c-.2.114-.408.226-.615.337-.117.065-.232.129-.35.191s-.234.123-.352.191c-.031.018-.063.036-.1.053l-.608.327c-.177.1-.354.19-.532.284-.059.032-.116.063-.175.092-.123.063-.237.123-.358.187q-.135.074-.267.14c-.027.016-.057.029-.085.045l-.344.181-.21.108c-.052.027-.1.054-.156.08l-.123.064c-.038.02-.076.041-.116.059l-.133.07c-.032.015-.062.031-.091.047s-.081.042-.123.061c-.279.143-.56.285-.84.426h0c-.237.123-.475.239-.715.357h0c-.081.042-.165.084-.246.123-.106.054-.214.106-.32.156-.068.034-.133.068-.2.1-.123.061-.246.123-.369.179q-.712.347-1.428.68l-.429.2c-.143.066-.286.134-.43.2h0l-.1.047c-.027.014-.056.028-.086.041-.063.027-.123.057-.187.085l-.2.091a.634.634,0,0,1-.064.03c-.138.064-.279.123-.417.189-.032.016-.063.03-.093.042l-.15.065-.428.193-.576.255-.449.194-.332.141-.1.046q-.713.31-1.432.6l-.58.237h-.01l-.2.081-.047.02c-.166.069-.334.134-.5.2-.095.039-.191.076-.286.113l-.123.047-.423.165-.123.047-.04.016-.292.112c-.047.02-.094.037-.141.054l-.065.025-.087.033-.339.129h-.007l-.192.073-.043.016c-.109.039-.219.081-.328.123l-.255.095c-.17.064-.339.123-.512.187h0a.573.573,0,0,0-.071.025l-.255.091-.328.117h0l-.183.064-.03.011h-.016l-.038.014-.135.049-.045.015a.193.193,0,0,1-.044.016l-.093.031c-.037.015-.073.028-.111.041l-.111.038-.092.031-.021.007h0l-.029.01a.093.093,0,0,0-.037.015c-.012.006-.038.011-.057.018l-.033.011-.092.031c-.16.055-.321.111-.483.165l-.51.168-.175.058-.335.109-.062.02c-.062.021-.123.042-.188.06l-.109.037a.446.446,0,0,0-.051.017l-.067.021c-.04.012-.08.023-.123.038l-.2.064a.028.028,0,0,0-.014,0l-.472.145-.131.042a.057.057,0,0,1-.022.006.69.69,0,0,1-.083.027c-.047.015-.094.03-.14.041h0a.018.018,0,0,1-.012,0l-.059.017h0c-.024.008-.049.015-.071.021-.062.019-.123.038-.184.055l-.116.034c-.038.01-.076.022-.114.034s-.042.012-.06.017l-.109.031c-.061.02-.123.037-.184.054l-.239.07-.123.034-.123.033-.108.031c-.2.055-.39.109-.586.162s-.4.113-.609.167c-.135.036-.271.073-.406.107a.553.553,0,0,1-.076.021c-.064.017-.123.034-.191.05s-.144.036-.213.055l-.213.054-.046.01-.237.06a.411.411,0,0,1-.048.012l-.246.059c-.21.053-.422.1-.63.152l-.045.012-.034.008-.09.021c-.042.011-.084.02-.123.028a.39.39,0,0,1-.054.011l-.042.011a.223.223,0,0,1-.039.009.744.744,0,0,0-.08.02l-.078.017h-.016l-.161.036-.278.062-.191.043-.492.106c-.066.016-.132.029-.2.042-.212.044-.423.089-.635.13l-.293.056-.323.064c-.108.021-.217.042-.323.06l-.055.011a.31.31,0,0,1-.055.01l-.139.027h-.021l-.116.021-.275.049-.111.021c-.046.008-.092.017-.138.023l-.044.008-.205.034c-.059.009-.117.021-.175.028l-.115.021c-.068.012-.134.022-.2.032s-.136.023-.205.032l-.321.052a.2.2,0,0,1-.047.007l-.369.053a.349.349,0,0,1-.048.008c-.067.011-.134.021-.2.029h-.042a.234.234,0,0,1-.059.009l-.229.033h-.048l-.123.02-.123.016a1.31,1.31,0,0,0-.168.022c-.057.007-.08.012-.123.016-.1.013-.193.026-.288.036l-.068.009h-.049l-.115.012-.073.011-.073.009h-.043l-.426.048-.171.02a.826.826,0,0,1-.1.01.2.2,0,0,1-.044,0,.045.045,0,0,1-.021,0h-.009c-.113.012-.227.022-.342.032a.055.055,0,0,0-.034.007h-.08c-.111.012-.224.021-.334.032l-.115.009-.13.014-.131.01-.257.021a.182.182,0,0,1-.043,0l-.213.016-.083.007-.123.009h-.135q-.185.017-.369.026a1,1,0,0,0-.148.007l-.457.026-.171.011-.27.011-.339.012-.123.006h-.419c-.123,0-.246,0-.376.007h-.211a.6.6,0,0,1-.081,0h-.655c-.332,0-.662,0-.992-.01-.5-.01-1-.028-1.5-.054s-1-.061-1.5-.1c-.253-.021-.508-.045-.76-.071l-.557-.06-.513-.061-.083-.01-.512-.069-.555-.08c-.282-.042-.566-.087-.849-.135-.4-.068-.8-.14-1.194-.216l-.725-.148c-.048-.008-.092-.02-.139-.029q-1.015-.217-2.023-.475-.336-.086-.67-.177-.59-.162-1.178-.335c-.391-.117-.784-.237-1.173-.363l-.492-.159-.679-.231c-.261-.09-.519-.182-.777-.277s-.514-.189-.771-.287c-.131-.048-.258-.1-.386-.149-.513-.2-1.027-.41-1.536-.625q-.382-.16-.765-.328-.7-.309-1.39-.635c-.237-.113-.474-.225-.712-.342-.089-.042-.176-.084-.262-.123-.347-.171-.694-.344-1.037-.523-.156-.082-.312-.162-.467-.246s-.312-.165-.467-.246c-.078-.042-.157-.082-.235-.123l-.322-.176c-.246-.135-.492-.274-.738-.414s-.463-.263-.692-.4q-1.107-.643-2.192-1.336c-.1-.061-.2-.123-.3-.188-.193-.123-.386-.246-.577-.375s-.352-.23-.526-.348q-.7-.471-1.4-.962c-.1-.068-.194-.135-.29-.206s-.22-.155-.328-.235-.22-.16-.33-.24c-.041-.027-.081-.057-.123-.086-.1-.071-.2-.144-.294-.217l-.084-.063c-.115-.085-.231-.17-.346-.257-.062-.044-.123-.09-.183-.139-.131-.1-.263-.2-.393-.3q-.465-.354-.924-.717c-.153-.123-.3-.246-.454-.361-.192-.15-.38-.3-.567-.458s-.341-.277-.508-.417-.358-.3-.534-.448c-.134-.111-.266-.224-.4-.336s-.281-.24-.42-.363l-.419-.369-.416-.369-.337-.3-.123-.114-.369-.332q-1.208-1.107-2.385-2.272c-.094-.09-.188-.183-.279-.277q-1.107-1.1-2.171-2.241c-.115-.123-.228-.246-.338-.369q-1.159-1.254-2.278-2.557c-.2-.235-.4-.469-.6-.7q-.257-.3-.512-.615a.01.01,0,0,1,0-.006l-.214-.261c-.073-.086-.144-.174-.213-.261-.025-.027-.045-.054-.068-.082a.009.009,0,0,1-.008-.009c-.06-.075-.123-.151-.183-.227-.092-.112-.184-.226-.277-.341l-.141-.177-.212-.263c-.042-.053-.085-.106-.123-.161l-.033-.042-.039-.052q-.2-.252-.4-.508c-.076-.1-.155-.2-.231-.3s-.167-.219-.246-.328c-.184-.235-.369-.475-.545-.714h0l-.009-.006-.027-.037c-.028-.039-.058-.076-.085-.116l-.011-.012c-.044-.061-.09-.123-.135-.182-.068-.091-.133-.181-.2-.271l-.052-.068-.08-.107-.113-.155c-.009-.01-.015-.021-.025-.033l-.087-.123c-.065-.085-.123-.171-.189-.257-.038-.05-.073-.1-.109-.149-.076-.1-.152-.208-.229-.316q-.216-.3-.429-.6h0l-.014-.021-.012-.015a.059.059,0,0,1-.011-.016c-.042-.059-.085-.123-.123-.178l-.141-.2c-.071-.1-.143-.2-.212-.3-.123-.162-.231-.328-.345-.492-.056-.077-.109-.156-.163-.232-.025-.034-.049-.069-.071-.1-.152-.22-.3-.443-.454-.664a.032.032,0,0,1-.008-.011c-.026-.038-.053-.076-.077-.114-.054-.076-.106-.156-.16-.234-.075-.111-.148-.219-.22-.329l-.178-.268c-.04-.059-.08-.123-.123-.179-.02-.028-.039-.06-.059-.09s-.046-.064-.066-.1c-.176-.267-.352-.534-.525-.8q-.369-.563-.725-1.13c-.123-.189-.238-.378-.358-.569s-.238-.379-.355-.569q-.347-.557-.685-1.118c-.246-.4-.478-.795-.716-1.194l-.025-.041c-.045-.077-.092-.156-.136-.234q-.315-.539-.629-1.08t-.615-1.087c-.2-.364-.41-.729-.615-1.1s-.4-.738-.605-1.107q-.4-.738-.792-1.483-1.569-2.981-3.028-6.061-.675-1.428-1.328-2.874-.787-1.748-1.541-3.52-.808-1.9-1.577-3.825-.457-1.145-.9-2.3-.823-2.14-1.6-4.3-.543-1.51-1.066-3.034c-.173-.492-.34-1-.508-1.492-.039-.123-.08-.236-.123-.355q-.984-2.965-1.9-5.972-.54-1.783-1.058-3.583c-.08-.278-.157-.558-.236-.838-.049-.175-.1-.352-.146-.529-.177-.627-.349-1.257-.52-1.884-6.778-25.14-9.432-52.74-3.123-77.939a89.934,89.934,0,0,1,4.4-13.175c.192-.455.389-.911.592-1.365.068-.155.135-.311.2-.465q.738-1.649,1.541-3.254h0q.926-1.862,1.927-3.663h0c.205-.369.417-.744.627-1.107h0q.341-.6.689-1.176c.173-.3.35-.589.526-.881.131-.213.264-.427.393-.638h0c.046-.069.089-.139.131-.208l.271-.43c.139-.221.282-.44.423-.66q.812-1.259,1.66-2.489,1.122-1.62,2.3-3.177.246-.331.5-.656.578-.755,1.17-1.487a92.476,92.476,0,0,1,31.023-25.009,64.993,64.993,0,0,1,23.172-6.807c.283-.026.567-.047.851-.066l.3-.017a48.672,48.672,0,0,1,6.847.059l.435.039q.642.055,1.282.13c10.645,1.246,20.843,6.15,30.407,15.151q2.661,2.505,5.254,5.438c16.4,18.56,30.038,43.539,42,66.964a195.332,195.332,0,0,1,8.486,18.886c.135.353.272.707.4,1.063.053.138.106.28.157.421q.546,1.465,1.064,2.952,1.267,3.637,2.337,7.355c.2.688.39,1.375.573,2.066.039.146.081.294.123.44.143.535.279,1.07.415,1.607A94.8,94.8,0,0,1,1738.634,754.962Z" transform="translate(-727.589 -115.744)" fill="#dee6f3" opacity="0.25"/>
    <path id="Path_115" data-name="Path 115" d="M1734.874,1870.484c-.081.042-.165.084-.246.123-.106.054-.214.105-.32.156-.068.034-.133.068-.2.1-.123.061-.246.123-.369.179q-.712.347-1.428.68l-.429.2c-.143.067-.287.134-.431.2h0l-.1.047c-.027.013-.057.028-.086.041-.063.027-.123.056-.187.085l-.2.091a.489.489,0,0,1-.064.029c-.138.064-.279.123-.417.19-.032.016-.063.03-.093.042l-.15.065-.428.193-.576.255-.449.194-.332.141-.1.046q-.713.31-1.432.6l-.581.237h-.01l-.2.081-.047.02c-.166.069-.335.134-.5.2-.095.039-.191.076-.286.113l-.123.047-.423.165-.123.047-.04.016-.292.112c-.047.02-.094.037-.141.054l-.065.025-.087.033-.34.129h-.007l-.192.073-.043.016c-.109.039-.219.081-.328.123l-.255.095c-.17.064-.339.123-.511.187h0a.611.611,0,0,0-.072.025l-.255.091-.328.117h0l-.183.064-.03.011h-.016l-.038.014-.135.049-.045.015a.2.2,0,0,1-.044.016l-.092.031c-.037.015-.073.028-.111.041l-.111.038-.092.031-.021.008h0l-.03.01-.037.012-.057.021-.033.011-.092.031q-.24.083-.483.165l-.51.169-.175.058-.334.109-.063.02c-.062.021-.123.042-.188.06l-.109.037a.441.441,0,0,0-.052.017l-.066.021c-.04.012-.08.023-.123.038l-.2.064a.029.029,0,0,0-.014,0l-.472.145-.131.042a.065.065,0,0,1-.022.006.783.783,0,0,1-.083.027c-.047.015-.094.03-.14.041h0a.018.018,0,0,1-.012,0l-.059.017h0c-.024.009-.049.015-.071.021-.062.018-.123.038-.184.055l-.116.034c-.038.01-.076.022-.115.034s-.042.012-.06.017l-.11.031c-.061.02-.123.037-.184.054l-.239.07-.123.034-.123.033-.108.031c-.2.055-.39.11-.586.163s-.4.113-.609.167c-.135.036-.271.073-.406.107a.563.563,0,0,1-.076.021c-.064.017-.123.034-.191.05s-.144.036-.213.056l-.213.054-.046.01-.237.06a.432.432,0,0,1-.048.012l-.246.059c-.21.053-.422.1-.63.152l-.045.012-.035.008-.09.021c-.042.011-.083.02-.123.028a.415.415,0,0,1-.054.011l-.042.011a.236.236,0,0,1-.039.009.814.814,0,0,0-.08.02l-.078.017h-.016l-.161.036-.278.062-.191.043-.492.106c-.067.016-.132.03-.2.042-.212.045-.423.089-.635.131l-.293.056-.323.064c-.108.021-.216.042-.322.06l-.055.011a.326.326,0,0,1-.055.01l-.139.027h-.021l-.116.021-.275.049-.111.021c-.045.009-.092.017-.138.023l-.044.008-.205.034c-.059.009-.117.021-.175.028l-.114.021c-.068.012-.134.022-.2.032s-.136.023-.205.032l-.321.052a.2.2,0,0,1-.047.008l-.369.053a.308.308,0,0,1-.048.007c-.067.011-.134.021-.2.03h-.042a.246.246,0,0,1-.059.009l-.229.033h-.048l-.123.02-.123.016a1.345,1.345,0,0,0-.169.022c-.057.007-.08.012-.123.016-.1.014-.193.026-.288.036l-.068.008h-.049l-.114.012-.073.011-.072.009h-.043l-.426.048-.171.02a.793.793,0,0,1-.1.01.179.179,0,0,1-.044,0,.04.04,0,0,1-.021,0h-.009c-.113.012-.227.022-.342.032a.055.055,0,0,0-.034.007h-.08c-.111.012-.224.021-.334.032l-.115.009-.13.014-.131.01-.257.021a.168.168,0,0,1-.043,0l-.213.016-.083.007-.123.009h-.135q-.185.017-.369.026a1,1,0,0,0-.148.007l-.458.026-.171.011-.271.011-.339.012-.123.006h-.419c-.123,0-.246,0-.376.008h-.212a.689.689,0,0,1-.081,0h-.655c-.332,0-.662,0-.993-.01-.5-.01-1-.028-1.5-.054s-1-.061-1.5-.1c-.253-.021-.508-.046-.76-.071l-.557-.06-.513-.061-.084-.01-.512-.069-.554-.08c-.282-.042-.566-.087-.849-.135-.4-.068-.8-.141-1.194-.217l-.724-.147c-.048-.009-.092-.02-.139-.03q-1.015-.216-2.023-.474-.336-.086-.671-.177-.59-.163-1.178-.335c-.391-.117-.784-.237-1.174-.363l-.492-.159-.679-.231c-.261-.09-.519-.182-.777-.277s-.514-.189-.771-.286c-.13-.048-.258-.1-.386-.149-.513-.2-1.027-.41-1.536-.625q-.382-.16-.765-.328-.695-.309-1.39-.635c-.238-.113-.475-.225-.712-.342l-.262-.123c-.347-.171-.694-.344-1.037-.523-.156-.082-.312-.162-.467-.246s-.312-.165-.467-.246c-.078-.042-.158-.082-.235-.123l-.322-.176q-.369-.2-.738-.415c-.246-.14-.463-.263-.692-.4q-1.107-.643-2.192-1.336c-.1-.062-.2-.123-.3-.188-.193-.123-.386-.246-.577-.375s-.352-.23-.526-.348q-.7-.471-1.4-.962c-.1-.068-.194-.135-.29-.205s-.22-.155-.328-.235-.22-.16-.33-.24c-.04-.027-.081-.057-.123-.086-.1-.071-.2-.144-.294-.217l-.084-.062c-.115-.085-.231-.17-.346-.257-.061-.044-.123-.09-.183-.139-.131-.1-.263-.2-.393-.3q-.465-.354-.924-.717c-.153-.123-.3-.246-.454-.361-.192-.15-.38-.3-.567-.458s-.341-.277-.508-.417-.358-.3-.534-.448c-.134-.111-.266-.224-.4-.336s-.28-.24-.42-.363-.28-.246-.419-.369l-.416-.369-.337-.3-.123-.114-.369-.332q-1.208-1.107-2.385-2.272c-.093-.09-.188-.183-.279-.277q-1.107-1.1-2.171-2.241c-.115-.123-.228-.246-.338-.369q-1.159-1.254-2.278-2.557c-.2-.235-.4-.468-.6-.7q-.257-.3-.512-.615a.013.013,0,0,1,0-.006l-.214-.261c-.073-.086-.144-.173-.213-.261-.025-.027-.046-.054-.068-.083a.009.009,0,0,1-.009-.008c-.06-.075-.123-.151-.183-.228-.093-.112-.185-.226-.277-.341l-.141-.177-.212-.263c-.042-.053-.085-.106-.123-.161l-.033-.042-.039-.052q-.2-.252-.4-.508c-.076-.1-.155-.2-.231-.3s-.167-.219-.246-.328c-.184-.235-.369-.475-.545-.715l-.012-.011-.027-.037c-.028-.039-.058-.076-.085-.115l-.011-.012c-.044-.061-.09-.123-.135-.182-.068-.091-.133-.181-.2-.271l-.052-.068-.08-.107-.113-.155c-.008-.01-.015-.021-.024-.033l-.088-.123c-.065-.085-.123-.171-.189-.257-.038-.05-.073-.1-.109-.149-.076-.1-.153-.208-.229-.316-.144-.2-.288-.4-.43-.6h0l-.016-.021-.01-.015a.058.058,0,0,1-.011-.016c-.042-.059-.085-.123-.123-.178l-.142-.2c-.071-.1-.143-.2-.211-.3-.123-.162-.231-.328-.346-.492-.055-.077-.109-.156-.162-.233-.025-.034-.049-.069-.071-.1-.152-.22-.3-.443-.454-.664a.043.043,0,0,1-.008-.011c-.026-.038-.053-.076-.076-.114-.054-.076-.106-.156-.16-.234-.075-.111-.148-.219-.22-.33l-.178-.268c-.041-.059-.08-.123-.123-.179-.02-.028-.04-.06-.059-.09s-.045-.064-.066-.1c-.176-.267-.352-.534-.525-.8q-.369-.564-.724-1.13c-.123-.19-.239-.378-.358-.569s-.239-.379-.356-.57q-.347-.557-.685-1.118c-.246-.4-.478-.795-.716-1.194l-.025-.041c-.046-.078-.092-.156-.137-.234q-.315-.539-.629-1.08t-.615-1.087c-.2-.364-.41-.729-.615-1.1s-.4-.738-.6-1.107q-.4-.738-.792-1.483-1.57-2.981-3.028-6.061-.675-1.428-1.328-2.874-.787-1.747-1.541-3.52-.808-1.9-1.577-3.825-.457-1.145-.9-2.3-.823-2.14-1.6-4.3-.544-1.51-1.066-3.034c-.173-.492-.339-.995-.508-1.492-.039-.123-.08-.236-.123-.355q-.984-2.966-1.9-5.973-.54-1.783-1.058-3.583.721-.2,1.444-.369,1.782-.426,3.584-.712c.417-.068.835-.123,1.254-.183.229-.032.461-.059.691-.087l.184-.021.263-.027c.106-.014.215-.024.321-.035.262-.026.523-.053.785-.072a.405.405,0,0,1,.067,0c.123-.012.255-.022.385-.03.386-.031.775-.055,1.161-.078a1.142,1.142,0,0,0,.16-.007l.352-.013c.317-.013.635-.022.953-.029h.116a49.367,49.367,0,0,1,16.155,2.433h0a52.578,52.578,0,0,1,10.445,4.709q1.826,1.074,3.6,2.306c.395.276.786.556,1.177.843h0q1.605,1.176,3.15,2.46c11.822,9.8,21.236,24,31.63,36.494h0a108.5,108.5,0,0,0,15.519,15.743A69.264,69.264,0,0,0,1734.874,1870.484Z" transform="translate(-781.676 -1159.173)" fill="#dee6f3" opacity="0.8"/>
    <path id="Path_116" data-name="Path 116" d="M1850.338,2140.521c-15.383,9.179-33.152,16.7-49.2,16.378-17.229-.342-33.832-10.529-46.531-25.622a123,123,0,0,1-14.47-21.846,142.018,142.018,0,0,1,75.382,15.829c9.919,5.1,19.573,11.4,30.017,14.231A46.291,46.291,0,0,0,1850.338,2140.521Z" transform="translate(-885.934 -1435.333)" fill="#dae2ed"/>
    <path id="Path_118" data-name="Path 118" d="M1939.313,1999.933l-2.662,2.362-5.83,5.166-2.1,1.862-1.841-.942-2.123-1.086-3.76-1.925-3.166-1.62.753-1.872,2.618-6.517,6.008,1.517.087.022,1.017.257,3.064.774.137.035Z" transform="translate(-1041.77 -1335.606)" fill="#fed1bc"/>
    <path id="Path_119" data-name="Path 119" d="M1981.191,2010.669a10.471,10.471,0,0,1-.686,6.458,9.449,9.449,0,0,1-.585,1.146l-2.1,1.862-1.845-.943-2.123-1.086c-.266-3.433.956-7.124,2.427-10.357.008-.018.017-.041.027-.06l.086.022,1.018.258,3.064.772c.019.037.038.075.057.115A8.166,8.166,0,0,1,1981.191,2010.669Z" transform="translate(-1090.866 -1346.419)" fill="#ffae9b" opacity="0.7"/>
    <path id="Path_120" data-name="Path 120" d="M1865.4,1974.744a1.3,1.3,0,0,1-.521.159,3.221,3.221,0,0,0-1.931.657,23.068,23.068,0,0,0-2.981,4.275c-.738,1.286-1.308,2.42-1.581,2.9a1.963,1.963,0,0,1,.354.454.011.011,0,0,1,.01.007,7.45,7.45,0,0,1,1.175.875c.056.05.111.1.166.153,1.076,1.009,1.831,2.176,1.582,2.289-.157.072-.893.424-1.869.964a20.906,20.906,0,0,0-5.677,4.24c-.211.262-.434.543-.659.839-.411.53-.84,1.1-1.263,1.664s-.819,1.107-1.2,1.626a3.857,3.857,0,0,1-5.606.672l.413-1.616,1.282-3.655,1.858-5.7,2.425-4.829.9-1.513.782-1.31,1.889-3.874a10.647,10.647,0,0,1,2.583-3.73,1.563,1.563,0,0,1,.521-.208c1.476-.335,3.52,1.107,4.693,2.081l.042-.041C1863.174,1972.263,1865.17,1973.792,1865.4,1974.744Z" transform="translate(-978.247 -1313.391)" fill="#8e554f"/>
    <path id="Path_121" data-name="Path 121" d="M1851.818,1963.171s-.014.023-.037.071c-.343.658-3.016,5.792-4.257,7.729-.154.239-.329.513-.515.82-.123.193-.246.4-.38.615a47.523,47.523,0,0,0-7.007,17.631l-.03.165-.407-.172-.146-.064-.026-.012a1.268,1.268,0,0,1-.754-1.3c.022-.168.051-.358.08-.567,0,0,.025-.089.068-.246a93.019,93.019,0,0,1,5.9-15.579c.477-.951.984-1.888,1.51-2.8a2.377,2.377,0,0,1,.123-.2c.529-.9,2.182-4.482,2.182-4.482a7.931,7.931,0,0,1,1.445-2.542l.086.045c.012,0,.022-.016.033-.021a9.512,9.512,0,0,1,1.709.692h0l.115.059h.01l.091.047.02.01.063.032a.119.119,0,0,0,.026.015.4.4,0,0,1,.038.022h.008Z" transform="translate(-971.979 -1306.559)" fill="#774642"/>
    <g id="Group_79" data-name="Group 79" transform="translate(874.514 669.775)" opacity="0.4">
      <path id="Path_122" data-name="Path 122" d="M1914.16,2080.18c-.157.073-.893.424-1.87.964a20.931,20.931,0,0,0-5.677,4.239c-.211.262-.434.544-.659.839-.456-.261-.75-.5-.694-1.082a10.242,10.242,0,0,1,.344-1.765,7.547,7.547,0,0,1,1.7-3.084,13.991,13.991,0,0,1,2.2-1.906,5.559,5.559,0,0,0,.492-.385,2.89,2.89,0,0,0,.354-.383,5.487,5.487,0,0,1,.428-.607.723.723,0,0,1,.107-.09.473.473,0,0,1,.177-.077.338.338,0,0,1,.176.02,7.461,7.461,0,0,1,1.175.874c.057.051.111.1.166.154C1913.655,2078.9,1914.41,2080.07,1914.16,2080.18Z" transform="translate(-1905.254 -2076.839)" fill="#ffae9b"/>
    </g>
    <g id="Group_80" data-name="Group 80" transform="translate(866.274 665.702)" opacity="0.15">
      <path id="Path_123" data-name="Path 123" d="M1855.4,2051.134c-.157.073-.893.424-1.87.964a20.905,20.905,0,0,0-5.677,4.239c-.211.262-.434.544-.659.839-.411.53-.84,1.1-1.263,1.664s-.819,1.107-1.2,1.626a3.828,3.828,0,0,1-5.113,1.026l-.03.165-.407-.172-.146-.064-.026-.012a1.268,1.268,0,0,1-.754-1.3c.022-.168.051-.358.08-.567,0,0,.025-.089.068-.246a93.014,93.014,0,0,1,5.9-15.58c.569.035,1.134.069,1.689.1l.625.042c2.6.18,5.012.392,7.065.6-.738,1.287-1.308,2.421-1.581,2.9a1.959,1.959,0,0,1,.354.454.011.011,0,0,1,.01.008,7.425,7.425,0,0,1,1.175.875c.056.05.11.1.166.154C1854.894,2049.857,1855.649,2051.024,1855.4,2051.134Z" transform="translate(-1838.252 -2043.72)" fill="#202a3f"/>
    </g>
    <path id="Path_124" data-name="Path 124" d="M2064.654,1602.581c-.044.709-.221,2.517-.348,3.567-.08.648-.217,1.711-.343,2.484s-.278,1.685-.428,2.5c-.075.4-.157.837-.246,1.268-.274,1.373-.545,2.8-.891,4.163-.116.465-.234.948-.344,1.411-.094.387-.211.8-.31,1.194-2.4,9.576-4.483,19.344-6.352,28.983-.007.033-.012.064-.02.1-.283,1.464-.518,2.679-.812,3.782-.123.468-.246.922-.369,1.368a32.478,32.478,0,0,1-3.192,8.262,26.17,26.17,0,0,1-4.212,5.043,15.074,15.074,0,0,1-1.487,1.288c-.551.432-1.129.851-1.571,1.138-.106.069-.281.187-.424.263a15.971,15.971,0,0,1-2.451,1.063,12.474,12.474,0,0,1-3.2.615,1.643,1.643,0,0,1-.252,0l-.055-.007a7.8,7.8,0,0,1-1.652-.4.375.375,0,0,1-.06-.017c-2.39-1.23-4.97-2-7.379-3.11q-.553-.253-1.088-.534c-4.171-2.193-8.157-4.864-12.2-7.279-2.443-1.456-4.888-2.915-7.418-4.209-4.364-2.234-8.539-4.536-12.776-6.967-1.271-.728-10-3.379-9.512-4.932a7.065,7.065,0,0,0,.14-.931.253.253,0,0,1,.011-.076c.017-.112.03-.209.042-.3.034-.261.056-.47.123-.84a46.175,46.175,0,0,1,1.949-8.044,9.311,9.311,0,0,1,.944-1.8v-.007c.021-.037.018-.06.05-.083.745-.51.67-.984,1.8-.936,1.492.066,3.444.434,5.063.607.073,0,.2.023.352.043,3.16.4,6.046.653,9.334,1.012,1.517.166,3.2.378,4.866.63,1.545.232,3.087.492,4.5.788.849.175,1.861.385,2.535.586,3.359,1,6.693,1.353,9.406,3.828-.2-1.995-.308-2.759-.354-3.43-.063-.884-.022-1.6.037-4.754.246-13.52.022-30.041,1.336-43.775,1.854-19.369,30.672,2.482,37.452,7.238A74.941,74.941,0,0,1,2064.654,1602.581Z" transform="translate(-1100.891 -969.805)" fill="#3e3e89"/>
    <path id="Path_125" data-name="Path 125" d="M2221.9,2044.12l-4.266.753-.6.106-3.444.615-.055-.007a7.84,7.84,0,0,1-1.652-.4.406.406,0,0,1-.06-.018c-2.39-1.23-4.97-2-7.379-3.111-.179-.355-.369-.728-.56-1.117-4.042-8.062-11.561-22.808-17.76-33.525,1.545.233,3.087.492,4.5.788.849.175,1.861.385,2.535.586,3.359,1,6.693,1.353,9.406,3.827-.2-1.995-.307-2.758-.354-3.43a28.791,28.791,0,0,1,2.848,2.738s-.236-2.533-.566-6.626c4.611,4.122,8.421,7.447,8.64,7.38.492-.155,6.669,23.4,8.347,29.839h0C2221.755,2043.534,2221.9,2044.12,2221.9,2044.12Z" transform="translate(-1277.071 -1344.323)" fill="#30306e" opacity="0.5"/>
    <path id="Path_126" data-name="Path 126" d="M2432.792,1781.149q-.089,1.23-.219,2.554-.123,1.246-.286,2.563c-2.713,2.119-8.047,4.269-9.67,5.641a9.166,9.166,0,0,0-2.819,6.1c-1.008,9.078,2.337,17.126,4.346,25.754-.008.033-.012.064-.019.1-.283,1.464-.518,2.679-.812,3.782-.122.469-.246.923-.369,1.368q-.861-1.981-1.713-3.964a14.1,14.1,0,0,1-1.006-2.89c-.135-.7-.164-1.415-.307-2.109a20.076,20.076,0,0,0-2.032-4.37c-1.008-2.08-2.309-4.065-3.45-6.076l-7.069-12.45a11.588,11.588,0,0,1-1.586-3.77,8.531,8.531,0,0,1,.825-4.74,15.5,15.5,0,0,1,1.7-2.925,18.047,18.047,0,0,1,12.229-7.051C2423.475,1778.309,2430.507,1778.255,2432.792,1781.149Z" transform="translate(-1469.64 -1145.411)" fill="#30306e" opacity="0.5"/>
    <path id="Path_127" data-name="Path 127" d="M2431.777,1769.78c-.038,1.155-.1,2.4-.2,3.728q-.089,1.23-.219,2.554c-1.592,1.266-7.549,5.579-15,5.724a3.677,3.677,0,0,0-3.486,4.636c1.182,4.372,2.841,10.753,3.893,15.822-3-8.118-6.283-16.064-9.664-24.174q-1.377-3.31-2.777-6.661c.046-.123,0,.019.064-.16.017-.048.033-.091.048-.135Z" transform="translate(-1468.425 -1137.771)" fill="#30306e"/>
    <path id="Path_133" data-name="Path 133" d="M2109.724,1642.088c2.082,4.878,5.89,9.408,8.831,13.755.472.7,1.312,1.882,2.113,3.065.14.207.28.414.42.615l.384.577q1.423,2.136,2.765,4.267c.113.178.226.356.336.534q2.582,4.122,4.9,8.232c.129.226.256.454.384.681.383.679.759,1.362,1.13,2.042q.3.543.592,1.087c.238.443.478.887.712,1.331,4.349,8.182,8.094,16.394,11.67,24.8q.3.693.593,1.392l.475,1.131c3.339,7.95,6.569,16.084,10.051,24.537.921,2.232.994,2.139,1.677,3.633a2.066,2.066,0,0,0,2.632,1.23c.786-.138,1.942-.448,3.166-.807,2.227-.656,4.673-1.468,5.485-1.674.13-.034.235-.06.321-.081h0c1.4-.529,3.231-.577,4.059-1.865.009-.014.016-.017.023-.014a.523.523,0,0,0-.017-.086c-.842-4.119-.272-1.012-1.23-6.97-1.687-10.454-3.5-23.914-6.557-34.983l-.018-.123c-2.179-8.144-4.754-15.9-7.575-23.512-2.754-7.44-5.744-14.749-8.83-22.166q-.3-.738-.615-1.476-.962-2.31-1.934-4.639-.535-1.274-1.068-2.558c.024-.052.046-.105.065-.16l.048-.134c.027-.071.053-.135.079-.2.078-.206.156-.41.257-.76a9.055,9.055,0,0,0,.292-1.622c.167-1.627.217-3.626.246-5.346v-.017a2.248,2.248,0,0,0-1.066-1.944c-1.845-1.14-4.634-2.893-6.286-3.871-4.182-2.47-7.571-7.206-12.972-6.81-2.612.189-4.92,1.754-6.878,3.49a33.994,33.994,0,0,0-9.272,13.543c-.011.033-.023.063-.034.1-.123.323-.226.646-.32.967A15.652,15.652,0,0,0,2109.724,1642.088Z" transform="translate(-1208.714 -1000.405)" fill="#3e3e89"/>
    <path id="Path_134" data-name="Path 134" d="M2254.51,1868q1.414,2.377,2.756,4.8c.9,1.61,1.769,3.241,2.646,4.866.437.814.854,1.637,1.281,2.46s.854,1.637,1.272,2.46l1.24,2.477c.41.827.832,1.649,1.23,2.481.8,1.663,1.607,3.321,2.4,4.995l2.319,5.031c.394.836.751,1.688,1.125,2.532l1.107,2.537.555,1.269c.186.423.369.846.546,1.274l1.066,2.557,1.058,2.561c.174.427.357.851.525,1.281l.505,1.29,2.016,5.166c.17.429.325.861.484,1.3l.473,1.3.946,2.6.946,2.6.881,2.627c.583,1.753,1.175,3.5,1.75,5.257l1.6,5.3.791,2.654.715,2.676.708,2.677.7,2.679-.823-2.644-.813-2.646-.805-2.645-.875-2.626-1.735-5.252-1.845-5.212-.926-2.6-.974-2.583-.972-2.583-.486-1.294c-.164-.432-.322-.861-.492-1.29l-2.035-5.141-.509-1.286c-.17-.429-.353-.852-.529-1.278l-1.064-2.552-1.055-2.556c-.174-.427-.355-.85-.54-1.271l-.549-1.27-1.1-2.537c-.369-.844-.726-1.694-1.107-2.534l-2.26-5.043-2.32-5.022c-.78-1.67-1.586-3.328-2.37-5-.4-.833-.807-1.659-1.209-2.488s-.8-1.66-1.217-2.485l-1.23-2.477c-.406-.828-.836-1.645-1.249-2.469l-.627-1.23-.637-1.23q-.313-.616-.636-1.23Z" transform="translate(-1337.041 -1223.91)" fill="#4e4e98"/>
    <path id="Path_135" data-name="Path 135" d="M2109.742,1748.591c2.082,4.878,5.89,9.408,8.831,13.755.473.7,1.313,1.882,2.113,3.065a210.693,210.693,0,0,1,11.619,19.37,88.614,88.614,0,0,1-.532-13.367,11.867,11.867,0,0,1,1.2-5.621c1.529-2.615,4.751-3.87,6.312-6.467.664-1.107.984-2.395,1.637-3.51,1.732-2.952,5.262-4.69,7.311-6.607q-.3-.738-.615-1.476-.961-2.31-1.933-4.639-.535-1.274-1.069-2.558c.024-.052.046-.106.065-.16l.048-.134c.027-.071.053-.135.079-.2-5.562-3.959-12.7-5.356-19.42-5.446a58.208,58.208,0,0,0-6.925.323q-2.173.234-4.323.631-2.3.422-4.564,1.033l-.443.123c-.011.033-.023.063-.034.1-.123.323-.225.646-.32.967A15.613,15.613,0,0,0,2109.742,1748.591Z" transform="translate(-1208.733 -1106.907)" fill="#30306e" opacity="0.5"/>
    <path id="Path_139" data-name="Path 139" d="M2109.749,1748.276c13.8,3.646,38.053-.076,38.053-.076l-.17-.771-1.934-4.639-27.222-8.178-1.275-.381s-1.261.369-3.048,1.012a56.877,56.877,0,0,0-5.361,2.214A15.585,15.585,0,0,0,2109.749,1748.276Z" transform="translate(-1208.74 -1106.593)" fill="#30306e"/>
    <path id="Path_140" data-name="Path 140" d="M2403.84,2355.63q.238.565.475,1.132c3.339,7.95,6.569,16.083,10.051,24.537.921,2.231.994,2.138,1.677,3.632a2.066,2.066,0,0,0,2.632,1.23c.786-.138,1.942-.447,3.166-.807Z" transform="translate(-1468.004 -1651.566)" fill="#30306e" opacity="0.5"/>
    <path id="Path_146" data-name="Path 146" d="M2114.576,1832v.026a.039.039,0,0,0-.006-.026Z" transform="translate(-1214.312 -1192.338)" fill="#fff"/>
    <path id="Path_147" data-name="Path 147" d="M2431.3,790.259c-.539,1.091-1.117,2.176-1.722,3.253h0c-3.29,5.874-7.3,11.6-9.4,17.8a23.953,23.953,0,0,1-1.73,3.728c-1.157,2.135-2.2,4.059-1.845,6.877.162.956.352,1.905.551,2.855.456,2.185.968,4.361,1.332,6.563,1.627,9.864,2.09,19.982,2.6,30.01.14,2.758.283,5.508.452,8.241a13.523,13.523,0,0,1,0,4.122.319.319,0,0,1-.033.08,4.617,4.617,0,0,1-1.888,1.424,33.4,33.4,0,0,1-5.484,2.07c-2.728.809-7.1,2.46-9.987,1.824a3.563,3.563,0,0,1-1.43-.691c-1.614-1.256-2.51-3.8-2.849-5.639a19.125,19.125,0,0,1-.286-2.871c-.038-1.266.01-2.536.037-3.8a126.664,126.664,0,0,0-2.035-25.535q-1.133-6.2-2.879-12.267a31.111,31.111,0,0,1-1.476-4.956c-.2-1.845.391-4.076.628-5.916.246-1.882.5-3.761.7-5.65a64.521,64.521,0,0,0,.183-9.6c-.018-.428-.043-.861-.066-1.289-.1-1.766-.14-3.6-.347-5.378-.069-.594-.157-1.177-.268-1.757-.054-.277-.359-1.239-.717-2.241-.467-1.3-1.038-2.689-1.285-2.695.567.018,1.13.059,1.693.123a20.331,20.331,0,0,1,2.8.526c.492.123.969.271,1.448.434l.216.074c3.007,1.065,4.8,1.23,6.9-.155q.321-.21.653-.472c.114-.089.226-.181.34-.278.344-.292.7-.615,1.077-.994,1.845-1.831,3.846-3.413,5.749-5.19.221-.205.439-.412.658-.623,1.554-1.513,3.566-2.86,4.244-4.872.942-2.789.868-6.183,1.031-9.076.2-3.649.275-7.317.123-10.966-.034-.78-.1-1.528-.163-2.233-.219-2.509-.344-4.49,1.529-5.472a6.672,6.672,0,0,1,2.532-.622c2.54-.207,6.038-.3,8.587-1.269.231-.086.453-.181.665-.282.137-.065.27-.134.4-.205,1.017-.566,2.548,10.64,2.653,11.517C2436.386,769.069,2436.006,780.714,2431.3,790.259Z" transform="translate(-1457.656 -240.995)" fill="#4e4e98"/>
    <path id="Path_149" data-name="Path 149" d="M2208.752,1090.216h0l-3.531-5.883-2.506-4.182h0c-.181-.3-.369-.605-.547-.909-.123-.2-.235-.4-.352-.615h0a8.648,8.648,0,0,0-.7-1.126,6.636,6.636,0,0,0-1.326-1.23l-.071-.052a20.039,20.039,0,0,1-1.832-1.4q-.112.362-.2.728h0c-.161.679-.269,1.373-.437,2.05-.038.157-.082.317-.132.474-.021.07-.043.138-.068.207a6.1,6.1,0,0,1-.326.78c-.027.052-.052.1-.082.155s-.055.1-.086.15-.059.1-.092.149-.053.084-.082.123-.083.114-.124.17a.888.888,0,0,1-.1.123c-.037.037-.076.087-.117.123a1,1,0,0,0-.076.08c-.027.027-.074.07-.113.1l-.033.032c-.047.039-.095.079-.143.114h-.01c-.055.043-.114.083-.173.123a1.911,1.911,0,0,1-.174.1c-.059.031-.123.063-.179.09h-.009a4.873,4.873,0,0,1-2.9.066c-.165-.034-.33-.069-.492-.106q-.369-.079-.727-.167l-.492-.123-.395-.1c-.588-.151-1.173-.309-1.761-.461-.2-.053-.4-.1-.594-.154l-.261-.065-.491-.123c-.186-.045-.369-.087-.558-.123l-.117-.026c-.136-.031-.273-.059-.408-.087q-.362-.074-.721-.136l-.1-.016-.247-.039-.265-.041c-.047-.009-.1-.013-.142-.02h0c-.108-.015-.219-.031-.325-.042l-.331-.037c-.369-.037-.729-.06-1.1-.068a10.194,10.194,0,0,0-5.042,1.076c-.057.031-.112.062-.165.094a3.539,3.539,0,0,0-.377.261c-.049.038-.1.078-.14.117-.022.019-.043.039-.066.06h0c-.968.9-1.2,2.148-1.9,3.408l-.492.876q-1.789,3.21-3.606,6.406l2.509,2h0l23.821,19.042,1.854,1.476.956.764,1.992-4.869h0l7.044-17.225.369-.906C2209.231,1091.008,2208.991,1090.611,2208.752,1090.216Z" transform="translate(-1263.732 -528.284)" fill="#fff"/>
    <path id="Path_150" data-name="Path 150" d="M2208.752,1090.216h0l-3.531-5.883-2.506-4.182h0c-.181-.3-.369-.605-.547-.909-.123-.2-.235-.4-.352-.615h0a8.648,8.648,0,0,0-.7-1.126,6.636,6.636,0,0,0-1.326-1.23l-.071-.052a20.039,20.039,0,0,1-1.832-1.4q-.112.362-.2.728h0c-.161.679-.269,1.373-.437,2.05-.038.157-.082.317-.132.474-.021.07-.043.138-.068.207a6.1,6.1,0,0,1-.326.78c-.027.052-.052.1-.082.155s-.055.1-.086.15-.059.1-.092.149-.053.084-.082.123-.083.114-.124.17a.888.888,0,0,1-.1.123c-.037.037-.076.087-.117.123a1,1,0,0,0-.076.08c-.027.027-.074.07-.113.1l-.033.032c-.047.039-.095.079-.143.114h-.01c-.055.043-.114.083-.173.123a1.911,1.911,0,0,1-.174.1c-.059.031-.123.063-.179.09h-.009a4.873,4.873,0,0,1-2.9.066c-.165-.034-.33-.069-.492-.106q-.369-.079-.727-.167l-.492-.123-.395-.1c-.588-.151-1.173-.309-1.761-.461-.2-.053-.4-.1-.594-.154l-.261-.065-.491-.123c-.186-.045-.369-.087-.558-.123l-.117-.026c-.136-.031-.273-.059-.408-.087q-.362-.074-.721-.136l-.1-.016-.247-.039-.265-.041c-.047-.009-.1-.013-.142-.02h0c-.108-.015-.219-.031-.325-.042l-.331-.037c-.369-.037-.729-.06-1.1-.068a10.194,10.194,0,0,0-5.042,1.076c-.057.031-.112.062-.165.094a3.539,3.539,0,0,0-.377.261c-.049.038-.1.078-.14.117-.022.019-.043.039-.066.06h0c-.968.9-1.2,2.148-1.9,3.408l-.492.876q-1.789,3.21-3.606,6.406l2.509,2h0l23.821,19.042,1.854,1.476.956.764,1.992-4.869h0l7.044-17.225.369-.906C2209.231,1091.008,2208.991,1090.611,2208.752,1090.216Zm-29.65-7.116h.018a5.411,5.411,0,0,1,.8.474c2.46,1.51,4.92,3,7.487,4.317,1.794.924,3.635,1.642,5.495,2.412,1.5.615,2.913,1.086,3.526-.871a13.885,13.885,0,0,0,.6-3.284,5.7,5.7,0,0,0,2.119,2.842,2.567,2.567,0,0,1,.582.479c.492.628.436,2.074.411,2.839-.06,1.845-.14,3.7-.327,5.547a17.65,17.65,0,0,1-.3,2.091c-.064.284-.139.826-.422.995.06-.037-4.059-5.748-4.405-6.164-2.4-2.877-6.259-4.686-9.309-6.8-1.364-.945-2.721-1.9-4.039-2.905a10.191,10.191,0,0,1-2.237-1.968c0-.005,0-.009,0-.01Z" transform="translate(-1263.732 -528.284)" fill="#aeb9d7" opacity="0.25"/>
    <path id="Path_153" data-name="Path 153" d="M2113.26,1191.883a1.232,1.232,0,0,1-.658.765,5.259,5.259,0,0,1-1.086.447c-.034.012-.068.025-.1.034-.123.039-.26.079-.4.123-.861.246-1.734.471-2.611.677q-2.066.486-4.169.818a88.452,88.452,0,0,1-16.282.679c-2.276-.062-4.557-.144-6.853-.188-.411-.008-.825-.013-1.236-.02-1.633-.021-3.289-.028-4.932-.139a26.829,26.829,0,0,1-3.755-.492c-2.807-.592-7.6-1.857-9.047-4.659a3.139,3.139,0,0,1-.2-2.164,30.008,30.008,0,0,0,.967-3.58c.063-.892.115-1.785.163-2.679q.123-2.441.181-4.888c.044-1.776.063-3.556.069-5.335v-1.012a.563.563,0,0,0,0-.07c0-5.166-.088-10.352-.069-15.526v-.309c0-1.145.014-2.293.035-3.444q.02-1.241.055-2.483c.008-.317.018-.635.029-.952.095-2.914.258-5.825.534-8.733.055-.615.123-1.23.186-1.845.1-.931.195-1.9.284-2.9a45.51,45.51,0,0,1,3.018-12.99,28.179,28.179,0,0,1,2.882-5.151,38.61,38.61,0,0,1,2.736-4.1l.007-.009a8.626,8.626,0,0,1,.993-.984c1.388-1.165,2.923-2.134,4.331-3.274.625-.508,4.418-4.113,3.959-1.555a6.175,6.175,0,0,0,2.071,6.071,33.348,33.348,0,0,0,6.441,4.182,34.372,34.372,0,0,1,9.566,8.032q.293.355.564.716h0c.106.15.217.3.331.438l.012.014c.23.312.454.627.67.95s.431.645.637.974.4.661.6,1,.379.675.562,1.021c.123.246.255.492.368.738.02.036.037.07.055.1q.686,1.41,1.246,2.9a36.09,36.09,0,0,1,1.4,4.658c.178.77.336,1.562.47,2.369q.409,2.445.8,4.9a.088.088,0,0,1,0,.02q.216,1.343.418,2.681c.079.513.156,1.027.231,1.537q.292,1.958.567,3.911c.064.477.133.951.2,1.424q.232,1.68.452,3.36c.041.331.083.659.123.991.067.484.123.97.185,1.451.053.4.1.8.15,1.2.071.569.139,1.138.206,1.709.123,1.007.237,2.019.352,3.027l.861,8.62c.1,1.2.18,2.39.256,3.588a92.347,92.347,0,0,0,.861,10.732A7.721,7.721,0,0,1,2113.26,1191.883Z" transform="translate(-1168.057 -554.783)" fill="#4e4e98"/>
    <path id="Path_163" data-name="Path 163" d="M2237.923,1157.072c.015.254.028.51.04.765-4.574-4.891-14.3-9.564-16.124-10.394a7.623,7.623,0,0,1-2.29-2.775c-.023-.321-.053-.63-.1-.935a8.076,8.076,0,0,0-.771-2.547c-.64-1.316-1.457-2.561-1.23-4.1.094-.636.359-1.23.492-1.862.205-.952.369-1.959.5-2.986a8.091,8.091,0,0,0,2.356,3.638,33.38,33.38,0,0,0,6.441,4.182,34.39,34.39,0,0,1,9.566,8.032A51.983,51.983,0,0,1,2237.923,1157.072Z" transform="translate(-1304.506 -578.642)" fill="#3a3a7b"/>
    <path id="Path_167" data-name="Path 167" d="M2237.409,1084.373s-14.474-5.032-17.1-8.47c-.438-.574-.923-.738-.861-.97a23.163,23.163,0,0,1,1.285-3.218,11.947,11.947,0,0,0,1.094-3.075s10.553,6.919,15.866,6.511Z" transform="translate(-1306.29 -522.864)" fill="#fff"/>
    <path id="Path_168" data-name="Path 168" d="M2378.972,1267.094c-.3,2.184-.577,4.369-.7,6.565a9.387,9.387,0,0,0-1.43-2.187c-.165-.2-.341-.392-.525-.589-.012-.255-.026-.51-.041-.765a52.454,52.454,0,0,0-1.107-8.978c.2.239.384.478.568.723.105.149.215.293.328.436l.013.015a30.823,30.823,0,0,1,2.467,3.936C2378.7,1266.534,2378.839,1266.814,2378.972,1267.094Z" transform="translate(-1442.86 -691.688)" fill="#30306e"/>
    <path id="Path_169" data-name="Path 169" d="M2375.178,1259.6c-.185-.246-.369-.484-.568-.724-.024-.108-.052-.215-.08-.323A8.685,8.685,0,0,0,2375.178,1259.6Z" transform="translate(-1442.299 -689.417)" fill="#47478e"/>
    <path id="Path_170" data-name="Path 170" d="M2259.159,1298.644l.765-.135a5.524,5.524,0,0,1-1.086.448l-.1.033a4.542,4.542,0,0,1-1.107-1.107c-1.149-1.856-1.3-4.442-1.6-6.56-.363-2.6-1.016-5.147-1.561-7.713-1.669-7.841-3.034-15.933-4.05-23.9-.4-3.2-.308-6.382-.914-9.518-.8-4.16.123-8.67-3.436-11.807a24.54,24.54,0,0,0-3.747-2.413c-2.9-1.732-5.452-4.031-8.487-5.51a11.28,11.28,0,0,1-2.721-1.551,4.285,4.285,0,0,1-1.2-1.845,1.131,1.131,0,0,1,.123-1.16.65.65,0,0,1,.3-.167q.064.455.1.933a7.566,7.566,0,0,0,2.288,2.775c1.825.83,11.549,5.5,16.127,10.394,0-.062-.007-.123-.011-.19s-.006-.123-.01-.192c0-.123-.012-.255-.02-.383.037.11.067.22.1.331a3.714,3.714,0,0,0,.463,1.02h0c.415.664.971,1.268,1.34,1.994.01.018.019.037.028.057.022.043.044.087.064.135-.044.738-.067,1.467-.068,2.2a20.964,20.964,0,0,0,.115,2.292,22.848,22.848,0,0,0,.731,3.722,21.689,21.689,0,0,1,.541,4.238c.023.395.051.788.089,1.179.031.369.07.738.123,1.107q.878,6.019,1.807,12.026l2.385,15.946c.14.788.283,1.58.429,2.37.02.107.041.218.06.326a.281.281,0,0,0,0,.041.708.708,0,0,0,.019.084c.042.246.088.492.136.729s.086.459.123.688a19.261,19.261,0,0,0,.286,2.871c.369,2.013,1.175,4.3,2.829,5.624C2259.92,1298.255,2259.521,1298.511,2259.159,1298.644Z" transform="translate(-1315.383 -660.642)" fill="#47478e"/>
    <path id="Path_171" data-name="Path 171" d="M2200.8,1114.317a8.806,8.806,0,0,1,.867,3.482c-2.136-3.579-4.508-9.47-4.636-11.228-.179-2.468,3.487-4.971,3.487-4.971l.172.133c-.492,1.1-.977,2.1-.527,3.289a5.5,5.5,0,0,1-.094,3.336c-.136.628-.4,1.23-.492,1.862C2199.347,1111.754,2200.164,1113,2200.8,1114.317Z" transform="translate(-1286.629 -551.77)" fill="#30306e"/>
    <path id="Path_181" data-name="Path 181" d="M2409.757,1104.936c-.606,2.829-.524,5.479-1.637,8.185q-.308.758-.607,1.514c-.655,1.631-1.3,3.26-2.044,4.877q-2.274,4.966-4.55,9.933a.072.072,0,0,0-.007-.038,8.758,8.758,0,0,0-.219-.973,21.522,21.522,0,0,1-.844-6.013,66.129,66.129,0,0,1,.765-8.767c.246-1.817.51-3.629.71-5.451a60.152,60.152,0,0,0,.211-9.259q-.028-.622-.064-1.245c-.094-1.7-.133-3.467-.334-5.185-.065-.571-.152-1.135-.263-1.692-.053-.268-.353-1.2-.708-2.16.06-.831.091-1.353.085-1.456a3.326,3.326,0,0,1,.327-1.026,20.992,20.992,0,0,1,2.8.5q.679.169,1.353.38a.614.614,0,0,1,.208.112,11.871,11.871,0,0,0-1.967,1.364c-.5.428-1,1.022-.855,1.662l.2,1.334c1.1,2.01,1.4,4.372,2.439,6.41a.4.4,0,0,0,.178.207.394.394,0,0,0,.353-.1,5.949,5.949,0,0,0,2.379-3.552.027.027,0,0,1,0-.012c.13.346.258.694.387,1.039a31.972,31.972,0,0,1,1.722,5.917A9.936,9.936,0,0,1,2409.757,1104.936Z" transform="translate(-1464.504 -538.247)" fill="#3a3a7b"/>
    <path id="Path_182" data-name="Path 182" d="M2237.667,1075.161l-.14,4.532-.068,2.194-.078,2.494s-14.472-5.031-17.1-8.471c-.37-.485-.772-.673-.854-.861a.148.148,0,0,1-.011-.108,15.837,15.837,0,0,1,.892-2.337c.13-.29.262-.587.393-.879a11.943,11.943,0,0,0,1.094-3.075S2232.354,1075.571,2237.667,1075.161Z" transform="translate(-1306.262 -522.873)" fill="#fff"/>
    <path id="Path_185" data-name="Path 185" d="M2414.854,1103.073a38.965,38.965,0,0,1-1.814,7.067c-.029-.039-.056-.08-.081-.123-.018-.416-.041-.83-.064-1.243-.007-.17-.019-.339-.025-.51.534-1.758,1.429-8.084,1.048-9.434a.847.847,0,0,1,.134-.02,6.5,6.5,0,0,1,.834,2.228A7.43,7.43,0,0,1,2414.854,1103.073Z" transform="translate(-1475.924 -549.323)" fill="#47478e"/>
    <path id="Path_186" data-name="Path 186" d="M2418.092,1109.635a40.627,40.627,0,0,1-.158,5.182c-.415,2.8-1.775,5.34-2.758,7.952a142.115,142.115,0,0,1-6.6,14.8l-.059-1.23a.069.069,0,0,0,.007.037l4.551-9.932c.97-2.115,1.78-4.254,2.654-6.4,1.107-2.706,1.028-5.362,1.633-8.186a9.784,9.784,0,0,0,.012-3.493,31.436,31.436,0,0,0-1.716-5.917c-1.031-2.772-2.09-5.543-3-8.363q1.334,2.952,2.534,5.954C2416.372,1103,2418.154,1106.378,2418.092,1109.635Z" transform="translate(-1472.109 -545.184)" fill="#47478e"/>
    <path id="Path_192" data-name="Path 192" d="M2573.5,1161.258c1.627,9.864,2.09,19.982,2.6,30.01a143.34,143.34,0,0,0-2.935-16.85c-.861-3.379-1.968-6.693-2.772-10.085a59.132,59.132,0,0,1-1.578-14.668c.077-4.337,2.059-7.8,4.611-11.315.969-1.336,2.027-2.611,2.886-4.021a31.436,31.436,0,0,1,3.028-4.787q2.392-2.783,4.788-5.565l.469-.547c-3.29,5.874-7.3,11.6-9.4,17.8a23.978,23.978,0,0,1-1.73,3.728c-1.157,2.135-2.2,4.058-1.845,6.876.162.956.352,1.905.551,2.855C2572.625,1156.875,2573.132,1159.051,2573.5,1161.258Z" transform="translate(-1612.678 -570.915)" fill="#47478e"/>
    <path id="Path_193" data-name="Path 193" d="M2583.1,1305.382c.162.956.352,1.905.551,2.855q-.227-.474-.455-.948a10.473,10.473,0,0,1-1.294-4.038,3,3,0,0,1,.177-1.23,4.667,4.667,0,0,1,1.091-1.419,20.31,20.31,0,0,0,1.772-2.091C2583.786,1300.64,2582.74,1302.564,2583.1,1305.382Z" transform="translate(-1624.161 -724.462)" fill="#3a3a7b"/>
    <path id="Path_198" data-name="Path 198" d="M2426.834,1475.637a2.056,2.056,0,0,0-.681-.136,1.048,1.048,0,0,0-.73.334,2.043,2.043,0,0,0-.6,1.912,1.775,1.775,0,0,0,1.45,1.338,1.57,1.57,0,0,0,1.648-1.019,2.156,2.156,0,0,0-.051-1.263A1.737,1.737,0,0,0,2426.834,1475.637Z" transform="translate(-1486.364 -879.684)" fill="#3a3a7b"/>
    <path id="Path_199" data-name="Path 199" d="M2435.807,1537.027a2.057,2.057,0,0,0-.681-.136,1.056,1.056,0,0,0-.731.334,2.047,2.047,0,0,0-.6,1.913,1.774,1.774,0,0,0,1.451,1.338,1.566,1.566,0,0,0,1.646-1.018,2.14,2.14,0,0,0-.05-1.263A1.736,1.736,0,0,0,2435.807,1537.027Z" transform="translate(-1494.233 -933.524)" fill="#3a3a7b"/>
    <path id="Path_205" data-name="Path 205" d="M2157.843,1376.71c-.044.359-.076.713-.1,1.066A3.518,3.518,0,0,0,2157.843,1376.71Z" transform="translate(-1252.172 -793.044)" fill="#3a3a7b"/>
    <path id="Path_206" data-name="Path 206" d="M2365.369,1215.19a1.438,1.438,0,0,1-.158.086A.152.152,0,0,1,2365.369,1215.19Z" transform="translate(-1434.125 -651.388)" fill="#d33131"/>
    <path id="Path_215" data-name="Path 215" d="M2209.3,1333.67a1.793,1.793,0,0,1-.255.892C2209.141,1334.265,2209.225,1333.969,2209.3,1333.67Z" transform="translate(-1297.172 -755.298)" fill="#47478e"/>
    <path id="Path_216" data-name="Path 216" d="M2211.339,1326.55c-.067.292-.141.583-.219.873A2.248,2.248,0,0,1,2211.339,1326.55Z" transform="translate(-1298.987 -749.054)" fill="#47478e"/>
    <path id="Path_217" data-name="Path 217" d="M2086.442,1402.294c-2.276-.062-4.558-.144-6.853-.188-.411-.008-.825-.013-1.236-.02-1.634-.021-3.289-.028-4.932-.139a26.807,26.807,0,0,1-3.755-.492c-2.807-.592-7.6-1.857-9.047-4.659a3.138,3.138,0,0,1-.2-2.164,29.793,29.793,0,0,0,.967-3.58q.094-1.337.164-2.679.123-2.441.181-4.888c.044-1.776.062-3.556.069-5.335q.013-.507,0-1.012a.559.559,0,0,0,0-.07c-.092-5.211-1.572-10.415-1.683-15.666a12.54,12.54,0,0,1,1.012-5.839,9.048,9.048,0,0,1,.723-1.2,18.18,18.18,0,0,1,2.214-2.493,73.562,73.562,0,0,1,14.144-10.752.739.739,0,0,0,.218-.194c-2.234,7.5-7.084,14.427-6.764,22.222a34.6,34.6,0,0,0,1.968,8.906,43.566,43.566,0,0,0,3.471,8.746,38.557,38.557,0,0,0,3.3,4.659,25.436,25.436,0,0,0,3.878,3.461,11.035,11.035,0,0,1,3.075,3.9,6.958,6.958,0,0,1,.328,4.815C2087.267,1399.206,2087.205,1400.793,2086.442,1402.294Z" transform="translate(-1166.551 -761.656)" fill="#47478e"/>
    <path id="Path_219" data-name="Path 219" d="M1977.985,1173.478a19.941,19.941,0,0,1-2.866,4.968c-.873,1.128-1.823,2.245-2.793,3.321-.67.748-1.353,1.476-2.028,2.188l-.406.423c-.135.139-.268.279-.4.416s-.267.274-.4.411c-.115.116-.229.231-.341.348-.793.8-1.563,1.566-2.279,2.275-2.551,2.526-4.428,4.364-4.394,4.953.056.8,2.313,5.9,4.78,11.444l.927,2.084c.437.984.873,1.958,1.294,2.915,2.241,5.056,4.142,9.47,4.1,10.123a.372.372,0,0,1-.026.123.263.263,0,0,1-.017.044.886.886,0,0,1-.071.139l-.036.057c-.013.018-.027.039-.043.058a4.572,4.572,0,0,1-.685.7c-.259.221-.566.462-.91.713-.31.226-.65.461-1.011.7-.178.123-.369.246-.553.369-.08.053-.162.1-.246.157q-.537.345-1.107.689c-.293.18-.589.358-.886.533-.141.086-.283.167-.423.246-.309.181-.615.358-.915.53l-.341.194c-.788.45-1.513.851-2.091,1.17-.446.246-.811.439-1.053.571l-.338.18a31.728,31.728,0,0,1-2.723-2.418c-.586-.577-1.149-1.179-1.691-1.8-.84-.952-1.631-1.946-2.381-2.969-4.551-6.206-7.625-13.433-9.93-20.734-1.783-5.638-2.759-10.51.025-16.034,2.361-4.689,6.182-8.467,9.587-12.39,2.62-3.02,5.359-5.944,7.942-8.993,1.353-1.6,2.655-3.237,4.124-4.73.669-.678,1.407-1.275,2.091-1.917.055-.053.114-.108.174-.166l.007-.009c.5-.492,1.132-1.107,1.782-.48a15.934,15.934,0,0,1,1.909,2.829,10.45,10.45,0,0,0,1.47,2.138,14,14,0,0,1,3.168,4.428A13.3,13.3,0,0,1,1977.985,1173.478Z" transform="translate(-1064.702 -597.39)" fill="#4e4e98"/>
    <path id="Path_220" data-name="Path 220" d="M2094.743,1394.835a2.12,2.12,0,0,1,.054-.825,2.688,2.688,0,0,1,.586-.905c1.384-1.038,2.541-3.135,3.533-4.551q1.686-2.394,3.131-4.943c.137-.246.413-.645.708-1.12-4.87,5.435-10.316,10.015-10.25,11.014.07,1.036,3.867,9.365,7,16.443-.977-3.082-1.268-6.43-2.553-9.414C2096.14,1398.655,2094.923,1396.878,2094.743,1394.835Z" transform="translate(-1194.961 -798.114)" fill="#3a3a7b"/>
    <path id="Path_221" data-name="Path 221" d="M2126.1,1713.258c-.026.058-.055.113-.088.172a8.521,8.521,0,0,1-1.445,1.773c-.21.215-.274.205-.3.389-.007.053-.014.123-.018.215a7.14,7.14,0,0,1-.588,1.9l-.061.17-.11.13-1.211,1.434a1.093,1.093,0,0,1-.6.369.731.731,0,0,1-.168.027l-.064.16-.15.384a1.352,1.352,0,0,1-.643.71l-.53.266-.186.1-.048.024a.7.7,0,0,1-.517.047,33.057,33.057,0,0,1-4.141-1.391,7.085,7.085,0,0,1-2.958-3.338c-.059-.1-.114-.2-.171-.3a3.975,3.975,0,0,1-.38-1.8,4.315,4.315,0,0,0-.641-1.74c-.729-1.33-1.667-2.527-2.521-3.777a77.4,77.4,0,0,0,7.279-4.409c.33-.246.625-.472.874-.686.468.661,1.031,1.417,1.476,2.009a2.844,2.844,0,0,0,.964.808,2.882,2.882,0,0,0,.948.3,11.062,11.062,0,0,1,4.214,1.343,3.628,3.628,0,0,1,1.88,2.593A4.6,4.6,0,0,1,2126.1,1713.258Z" transform="translate(-1209.041 -1080.142)" fill="#fed1bc"/>
    <g id="Group_87" data-name="Group 87" transform="translate(906.128 635.868)" opacity="0.76">
      <path id="Path_222" data-name="Path 222" d="M2162.3,1801.17l.807,1.862.206.466a2.185,2.185,0,0,0,.254.465,1.93,1.93,0,0,0,.38.38l.4.308c.54.411,1.06.842,1.621,1.221.362.246.723.482,1.1.706l.187-.095c-.349-.309-.713-.6-1.081-.888-.532-.418-1.107-.781-1.662-1.166l-.418-.288a1.672,1.672,0,0,1-.351-.317,1.889,1.889,0,0,1-.246-.412l-.23-.453-.931-1.805a.017.017,0,0,0-.03.014Z" transform="translate(-2162.3 -1801.146)" fill="#ffae9b"/>
    </g>
    <g id="Group_88" data-name="Group 88" transform="translate(910.888 634.074)" opacity="0.76">
      <path id="Path_223" data-name="Path 223" d="M2201,1786.56l.738,1.073a2.351,2.351,0,0,0,.2.266c.079.085.16.151.239.229l.475.444,1.907,1.778.111-.132.062-.169h0l-1.968-1.606-.5-.412c-.082-.069-.171-.135-.246-.206a2.348,2.348,0,0,1-.208-.246Z" transform="translate(-2201 -1786.56)" fill="#ffae9b"/>
    </g>
    <g id="Group_89" data-name="Group 89" transform="translate(908.508 634.717)" opacity="0.76">
      <path id="Path_224" data-name="Path 224" d="M2181.65,1791.79l.643,1.487.323.738a1.18,1.18,0,0,0,.218.369c.1.108.2.191.3.286l2.364,2.214a.183.183,0,0,0,.05.032l.063-.16.175-.011a.175.175,0,0,0-.055-.11v-.008l-2.481-2.091c-.1-.086-.212-.176-.3-.259a1.076,1.076,0,0,1-.211-.317l-.36-.726Z" transform="translate(-2181.65 -1791.79)" fill="#ffae9b"/>
    </g>
    <path id="Path_225" data-name="Path 225" d="M2108.57,1709.116c.852,1.248,1.791,2.449,2.52,3.778a4.327,4.327,0,0,1,.641,1.739,3.963,3.963,0,0,0,.38,1.8c.055.1.113.2.171.306a9.6,9.6,0,0,1,.615-3.272,5.8,5.8,0,0,1,.837-1.7,6.863,6.863,0,0,1,1.449-1.264,10.47,10.47,0,0,1,2.171-1.424,2.378,2.378,0,0,0,1.384-1.321c.033-.069.066-.14.1-.214.107-.239.215-.476.322-.715a2.83,2.83,0,0,1-.965-.809c-.447-.589-1.012-1.347-1.476-2.007-.247.214-.544.444-.875.685A77.241,77.241,0,0,1,2108.57,1709.116Z" transform="translate(-1209.05 -1080.098)" fill="#ffae9b" opacity="0.4"/>
    <path id="Path_226" data-name="Path 226" d="M2215.384,1763.975a1.788,1.788,0,0,0,0-.271,1.136,1.136,0,0,0-.188-.409,6.7,6.7,0,0,1-.464-.748c-.369-.679-1.087-1.107-1.534-1.74a4.754,4.754,0,0,1-.3-.515c-.158-.3-.3-.622-.484-.911a2.769,2.769,0,0,0,.481,1.521,14.475,14.475,0,0,0,1.63,1.833c0,.115.369.467.445.577a7.482,7.482,0,0,1,.387.727Z" transform="translate(-1300.117 -1128.65)" fill="#ffae9b"/>
    <path id="Path_227" data-name="Path 227" d="M2030.3,1419.871a2.875,2.875,0,0,1,2.186,1.407,12.153,12.153,0,0,1,1.076,2.472,19.266,19.266,0,0,0,3.422,5.781c-2.46-5.534-4.725-10.648-4.778-11.444-.04-.589,1.845-2.427,4.392-4.953.818-.811,1.707-1.69,2.62-2.623a16.535,16.535,0,0,0-1.544,1.012q-3.373,2.33-6.887,4.428a6.99,6.99,0,0,1-2.616,1.107c-1.426.2-3.055-.394-4.227.444l7.273,1.567A1.569,1.569,0,0,1,2030.3,1419.871Z" transform="translate(-1134.828 -822.687)" fill="#47478e"/>
    <path id="Path_228" data-name="Path 228" d="M2096.69,1697.187q.328.531.689,1.044a1.974,1.974,0,0,0,.387.448.822.822,0,0,0,.214.123,1.471,1.471,0,0,0,1.038-.106,16.1,16.1,0,0,0,4.872-2.548c1.086-.758,3.721-2.4,3.85-3.813a1.7,1.7,0,0,0-.748-1.845,3.869,3.869,0,0,1-.762.813c-.258.222-.565.461-.91.713-.311.225-.649.461-1.011.7-2.108,1.409-4.909,2.984-6.564,3.888C2097.3,1696.862,2096.934,1697.058,2096.69,1697.187Z" transform="translate(-1198.63 -1068.232)" fill="#dee6f3"/>
    <path id="Path_229" data-name="Path 229" d="M2096.69,1713.157q.328.532.689,1.044a1.967,1.967,0,0,0,.387.448,47.444,47.444,0,0,0,6.542-5.949c-2.108,1.41-4.909,2.984-6.564,3.888C2097.3,1712.833,2096.934,1713.028,2096.69,1713.157Z" transform="translate(-1198.63 -1084.202)" fill="#aeb9d7"/>
    <path id="Path_230" data-name="Path 230" d="M2219.067,1765.559a8.512,8.512,0,0,1-1.445,1.773c-.21.215-.274.206-.3.389a.764.764,0,0,1-.123-.172,7.157,7.157,0,0,0-.574-.974c-.337-.48-.826-.828-1.2-1.275a2.669,2.669,0,0,1-.759-1.79,7.062,7.062,0,0,1,1.327,1.162,3.668,3.668,0,0,0,1.968.878A6.147,6.147,0,0,0,2219.067,1765.559Z" transform="translate(-1302.092 -1132.271)" fill="#ffae9b" opacity="0.45"/>
    <path id="Path_239" data-name="Path 239" d="M2425.8,1101.574a.053.053,0,0,0,0,.012,5.948,5.948,0,0,1-2.379,3.552.4.4,0,0,1-.353.1.4.4,0,0,1-.178-.207c-1.018-1.989-1.326-4.287-2.363-6.265.114-1.034.19-2.018.2-2.772a4.151,4.151,0,0,1,.381-.369,11.885,11.885,0,0,1,1.968-1.364.676.676,0,0,1,.219.314C2424.066,1096.934,2424.936,1099.252,2425.8,1101.574Z" transform="translate(-1482.641 -545.333)" fill="#30306e"/>
    <path id="Path_240" data-name="Path 240" d="M2455.425,1087.949a.363.363,0,0,1-.077.23.381.381,0,0,1-.263.08,5.013,5.013,0,0,1-1.313-.134,7.858,7.858,0,0,1-.348,4.575,7.391,7.391,0,0,1-3.921,2.952c-1.659.541-2.729-1.332-3.4-2.616-.448-.852-.631-1.828-1.09-2.706-.151-.285-.426-.615-.73-.5-.239.083-.314.369-.369.615-.867-2.322-1.737-4.645-2.511-7a.676.676,0,0,0-.219-.314,12.389,12.389,0,0,1,8.529-1.291,8.356,8.356,0,0,1,4.052,2.006A5.169,5.169,0,0,1,2455.425,1087.949Z" transform="translate(-1500.752 -534.208)" fill="#47478e"/>
    <path id="Path_242" data-name="Path 242" d="M1683.8,1714.341v40.565q-.675-1.428-1.328-2.874-.787-1.748-1.541-3.52-.808-1.9-1.577-3.825v-30.345a2.251,2.251,0,1,1,4.446,0Z" transform="translate(-832.62 -1086.869)" fill="#d38d2f"/>
    <path id="Path_243" data-name="Path 243" d="M1683.8,1955.58v9.31l-1.328.991q-.787-1.748-1.541-3.52-.808-1.9-1.577-3.825v-.212Z" transform="translate(-832.62 -1300.719)" fill="#a76621"/>
    <path id="Path_244" data-name="Path 244" d="M3027.838,1714.341v114.731a2.885,2.885,0,0,1-.394,1.476,2.149,2.149,0,0,1-1.83,1.125,2.254,2.254,0,0,1-2.067-1.642,2.953,2.953,0,0,1-.157-.958V1714.341a2.251,2.251,0,1,1,4.447,0Z" transform="translate(-2011.356 -1086.869)" fill="#d38d2f"/>
    <path id="Path_246" data-name="Path 246" d="M3027.838,1908.752l-4.448-2.412v-8.49l4.278,4.578.17.575Z" transform="translate(-2011.355 -1250.088)" fill="#a76621"/>
    <path id="Path_247" data-name="Path 247" d="M1832.595,1731.722v8.6c0,.861-.656,1.422-1.252,1.156a.989.989,0,0,1-.154-.09l-.015-.011c-1.245-.894-2.688-1.943-4.28-3.075-.755-.535-1.544-1.089-2.36-1.655h0c-.718-.492-1.459-1-2.214-1.511-11.93-8.005-28.454-16.818-36-6.384-6.027,8.328-21.348,11.588-38.665,11.006h0a138.154,138.154,0,0,1-28.882-4.173,43.956,43.956,0,0,0-10.858-1.292h-.561l-.564.009c-.19,0-.376.008-.566.016s-.369.012-.561.021-.342.015-.513.025c-.246.011-.492.026-.728.041-.152.011-.3.02-.452.032-.188.014-.376.027-.563.043s-.376.031-.563.048c-.721.066-1.444.146-2.163.236-.215.028-.43.055-.645.085-.186.026-.369.052-.561.08q-1.134.166-2.266.369c-.347.063-.692.123-1.038.195-1.165.227-2.325.482-3.472.758l-.4.1c-.181.044-.36.09-.541.136-.541.136-1.08.28-1.614.428l-.534.149-.185.053c-.294.082-.585.168-.877.255-.177.052-.352.1-.527.157-.491.148-.969.3-1.45.452-2.6.834-5.114,1.759-7.482,2.721l-.216.089-.638.264c-.521.214-1.034.433-1.541.651-.15.066-.3.133-.449.2l-.218.095-.671.3q-1.568.7-3.023,1.4l-.582.28c-.861.418-1.687.833-2.476,1.23l-.369.189q-1.537.794-2.872,1.531h0l-.123.069c-.044.023-.085.045-.123.07-.964.531-1.838,1.031-2.615,1.486q-.808-1.9-1.577-3.825-.458-1.145-.9-2.3-.823-2.14-1.6-4.3v-.1a3.323,3.323,0,0,1,1.371-2.829c.324-.205.7-.439,1.135-.7,1.143-.695,2.643-1.579,4.446-2.568a122.4,122.4,0,0,1,16.271-7.477h0c11.007-4.075,24.365-6.946,36.461-3.872,26.756,6.8,59.282,8.339,68.589-4.526,7.858-10.864,26.725,1.531,38.548,10.085.335.246.665.481.984.72,1.663,1.209,3.162,2.321,4.448,3.253l.763.547a1.314,1.314,0,0,1,.48,1.072Z" transform="translate(-814.86 -1086.916)" fill="#fed267"/>
    <path id="Path_248" data-name="Path 248" d="M1842.575,1770.794v2.121c-1.244-.894-2.688-1.943-4.28-3.074-.755-.535-1.543-1.09-2.36-1.656h0c-.718-.492-1.459-1-2.214-1.51-11.93-8.006-28.454-16.818-36-6.385-6.027,8.328-21.347,11.589-38.665,11.007h0a138.135,138.135,0,0,1-28.882-4.173,43.955,43.955,0,0,0-10.857-1.292h-.561l-.564.009c-.189,0-.376.009-.566.016s-.369.012-.561.021-.342.015-.513.024c-.246.011-.492.026-.728.041-.151.011-.3.02-.451.032-.188.013-.377.027-.563.043s-.376.031-.563.048c-.721.067-1.444.146-2.163.236-.215.028-.431.055-.645.085-.186.026-.369.052-.561.08q-1.134.166-2.265.369c-.347.063-.692.123-1.038.194-1.165.228-2.324.482-3.472.759l-.4.1c-.181.044-.36.09-.541.136-.541.137-1.08.281-1.614.428l-.534.149-.184.053c-.294.082-.586.167-.877.255-.177.052-.352.1-.526.157-.492.148-.969.3-1.45.451-2.6.834-5.114,1.759-7.481,2.721l-.217.088-.638.265c-.521.214-1.034.433-1.541.651l-.449.2-.218.094-.671.3q-1.568.7-3.023,1.4l-.582.281c-.861.418-1.687.833-2.476,1.23l-.369.189q-1.537.793-2.872,1.531c-.043.022-.085.047-.123.07s-.085.046-.123.07c-.965.531-1.838,1.031-2.615,1.486q-.808-1.9-1.577-3.825-.457-1.145-.9-2.3c.283-.17.584-.351.9-.536,1.23-.726,2.73-1.574,4.446-2.487.025-.015.047-.028.073-.041h0a123.732,123.732,0,0,1,12.228-5.687h0a94.778,94.778,0,0,1,14.412-4.525c8.056-1.792,16.6-2.359,24.6-.326,13.844,3.521,28.125,5.705,42.254,5.06a54.21,54.21,0,0,0,16.84-2.98,19.851,19.851,0,0,0,6.28-3.354c2.46-2.188,3.721-5.7,5.846-8.323a8.276,8.276,0,0,1,8.383-2.787c8.035,1.792,15.211,7,22.351,11.769.6.4,3.082,2.36,5.629,4.543l.264.227c.574.492,1.146,1,1.7,1.492C1840.626,1768.114,1842.575,1770.09,1842.575,1770.794Z" transform="translate(-826.262 -1118.455)" fill="#ffc150"/>
    <path id="Path_117" data-name="Path 117" d="M1762.878,2666.752c17.182,1.722,34.656,1.135,51.951,1.134,15.087,0,30.266-.324,45.261-1.535,3.85-.311,22.377-1.336,19.063-5.941-1.652-2.292-16.768-2.123-20.258-2.6q-2.372-.321-4.765-.541c-2.476-.233-4.962-.4-7.456-.513-3.632-.175-7.28-.256-10.923-.33l-1.953-.038-1.131-.023c-4.28-.089-8.552-.2-12.791-.466-.918-.057-1.838-.123-2.751-.2-.081-.007-.165-.015-.246-.02a198.976,198.976,0,0,0-20.048-.471c-2.967.066-5.944.185-8.916.344q-1.323.07-2.643.151l-1.462.092c-3.792.246-7.562.555-11.262.9q-1.765.163-3.514.338-3.357.334-6.617.7c-3.075.342-13.945,2.084-15.43,4.255a1.111,1.111,0,0,0-.065.1C1745.078,2665.5,1758.829,2666.347,1762.878,2666.752Z" transform="translate(-891.733 -1914.248)" fill="#dee6f3" opacity="0.8"/>
    <path id="Path_128" data-name="Path 128" d="M2522.3,2548l.345,4.384.6,7.659-8.8,1.508-1.834-5.841-1.272-4.05-2.422-7.714,10.727,3.25Z" transform="translate(-1560.16 -1816.724)" fill="#fed1bc"/>
    <path id="Path_129" data-name="Path 129" d="M2539.57,2571.148l.344,4.385c-2.766,2.012-6.533,2.893-10.032,3.32l-1.271-4.05a8.3,8.3,0,0,1,1.25-1.6,10.344,10.344,0,0,1,5.789-2.764,9.525,9.525,0,0,1,1.267-.1Z" transform="translate(-1577.429 -1839.868)" fill="#ffae9b" opacity="0.7"/>
    <path id="Path_130" data-name="Path 130" d="M2516.928,2626.63v.009a1.323,1.323,0,0,0,.386.4,11.564,11.564,0,0,0,4.257,1.042c1.3.064,3.17.261,4.059.33.234.017.323.024.338.027-.023,0-.443-.029.113.031.807.09,1.682.369,2.969.482s3.546.438,5.142.469c.642.012,1.452-.025,2.287-.079,1.237-.078,2.526-.189,3.388-.215,1.442-.043,2.738-.081,3.741-.133s.924-.135,1.714-.194h-.009a2.91,2.91,0,0,0,.13-.576h0a3.986,3.986,0,0,0-2.829-4.284c-.621-.223-1.269-.328-1.9-.521s-1.328-.369-1.953-.56h0l-.178-.053-.4-.123c-.143-.046-.283-.09-.425-.137-.063-.02-.123-.043-.194-.067l-.194-.073c-.132-.049-.261-.1-.391-.163a27.521,27.521,0,0,1-5.054-3.283c-.836-.631-1.082-1.107-1.612-1.353-.4-.184-.688.223-.916.738a13.9,13.9,0,0,1-.578,1.434c-.015.018-.045.146-.069.21-.037.109-.072.219-.107.331s-.064.228-.093.344-.055.234-.08.35-.044.233-.063.349v.012a2.214,2.214,0,0,0-.275.485,37.376,37.376,0,0,1-8.117-1.635.371.371,0,0,1-.064-.027,2.773,2.773,0,0,1-1.117-1.267h0c-.044-.07-.087-.137-.132-.2a1.412,1.412,0,0,0-.346-.432,5.3,5.3,0,0,0-1.2,2.36,7.129,7.129,0,0,0-.172.955c.017.01.034.015.052.025C2516.564,2623.274,2516.139,2625.028,2516.928,2626.63Z" transform="translate(-1566.798 -1881.283)" fill="#8e554f"/>
    <path id="Path_131" data-name="Path 131" d="M2518.928,2693.617c0,.011.029,0,.03.024s.013.069-.021.09a8.86,8.86,0,0,0,2.9.43c1.279.061,3.33.209,4.732.387.106.012.192.027.246.035a76.506,76.506,0,0,0,15.866.526q1.648-.108,3.248-.271c.136-.014.22-.023.271-.027h.017a2.814,2.814,0,0,0,.586-.138,1.227,1.227,0,0,0,.892-1.149v-.194a2.372,2.372,0,0,1,.017-.418l-.087.011c.03,0,.091,0-.09.019a.167.167,0,0,1-.04.008,57.02,57.02,0,0,1-9.538.839l-.358-.007a66.311,66.311,0,0,1-9.124-1.095c-.4-.073-.615-.124-.961-.184-2.787-.5-5.712-.829-8.474-1.139h-.026l-.054-.006h-.014c-.061,0,.007.041-.012.047s0,0,0,.011v.072a.2.2,0,0,1-.008.066.077.077,0,0,1,0,.026c0,.019-.007.074-.009.093v.018c0,.025.025.094-.009.123h0A9.161,9.161,0,0,0,2518.928,2693.617Z" transform="translate(-1568.891 -1946.004)" fill="#774642"/>
    <g id="Group_81" data-name="Group 81" transform="translate(961.601 736.266)" opacity="0.4">
      <path id="Path_132" data-name="Path 132" d="M2623.687,2622.75c-.093.493-.178.849-.715,1.01a8.211,8.211,0,0,1-1.7.312,7.86,7.86,0,0,1-3.389-.454,14.7,14.7,0,0,1-2.531-1.322,5.866,5.866,0,0,0-.53-.313,2.6,2.6,0,0,0-.492-.19,6.216,6.216,0,0,1-.695-.175.6.6,0,0,1-.124-.066.466.466,0,0,1-.133-.134.277.277,0,0,1-.047-.166,7.414,7.414,0,0,1,.34-1.374,1.8,1.8,0,0,1,.069-.21c.282-.3.658-2.558,1.494-2.168.53.246.776.725,1.613,1.353a22.928,22.928,0,0,0,5.832,3.585C2623,2622.545,2623.362,2622.657,2623.687,2622.75Z" transform="translate(-2613.328 -2617.453)" fill="#ffae9b"/>
    </g>
    <path id="Path_136" data-name="Path 136" d="M2630.66,2567.72C2630.783,2568.316,2630.734,2567.746,2630.66,2567.72Z" transform="translate(-1666.927 -1837.571)" fill="#3e3e89"/>
    <path id="Path_137" data-name="Path 137" d="M2599.386,2582.35l-.086.022C2599.334,2582.365,2599.365,2582.355,2599.386,2582.35Z" transform="translate(-1639.424 -1850.401)" fill="#3e3e89"/>
    <path id="Path_138" data-name="Path 138" d="M2597.43,2582.816c.013,0,.053-.015.1-.026a.443.443,0,0,0-.092.022A.013.013,0,0,0,2597.43,2582.816Z" transform="translate(-1637.784 -1850.787)" fill="#3e3e89"/>
    <path id="Path_141" data-name="Path 141" d="M2516.784,2649a9.23,9.23,0,0,0,.022,1.807c0,.011.029,0,.03.025s.014.068-.021.089a8.873,8.873,0,0,0,2.9.429c1.279.061,3.33.209,4.732.387.106.012.192.027.246.036a76.474,76.474,0,0,0,15.866.526c-1.384-.306-2.757-.662-4.108-1.046-.326-.093-.648-.187-.97-.283-.266-.076-.529-.156-.792-.236a73.639,73.639,0,0,1-9.235-3.466,55.922,55.922,0,0,1-5.559-2.914q-1.427-.861-2.783-1.805a7.117,7.117,0,0,0-.172.956c.016.01.034.015.051.024-.464,1.655-.889,3.409-.1,5.012v.009l-.054-.007h-.015c-.061,0,.007.041-.013.046s0,0,0,.011v.072a.206.206,0,0,1-.007.066.094.094,0,0,1,0,.026c0,.019-.007.074-.008.093v.018c0,.025.024.094-.009.123Z" transform="translate(-1566.77 -1903.198)" fill="#202a3f" opacity="0.15"/>
    <path id="Path_142" data-name="Path 142" d="M2593.174,636.434l-.1.234c-.861.289-2.672.44-3.141.553-1.17.279-4.833,1.86-5.742.626a2.1,2.1,0,0,1-.256-1.161,6.324,6.324,0,0,0-1.529-4.045c-.723-.675-1.582-1.214-2.306-1.93-.93-.916-3.607-3.075-3.264-4.616.146-.654.434-1.885.755-3.163h0c.151-.615.311-1.236.465-1.811.246-.893.469-1.673.637-2.117a1.345,1.345,0,0,1,.185-.369c.406-.421,1.468.728,1.657.967a3.494,3.494,0,0,1,.229.331,4.109,4.109,0,0,1,.547,2.169,4.976,4.976,0,0,0-.029,1.23,2.172,2.172,0,0,0,.413.786,15.1,15.1,0,0,0,2.311,1.845,4.939,4.939,0,0,1,.88.884c.326.46.812.644,1.209,1.053l.164-.205.8.6a5.357,5.357,0,0,1-.339.416c.139.123.283.246.426.369.1.079.188.156.28.234l.189.159c.043.033.086.066.123.1l.075.058a6.292,6.292,0,0,0,2.283,5.2,2.3,2.3,0,0,0,.216.171c.041.035.085.065.123.1a6.285,6.285,0,0,0,.739.454l.171.085c.084.043.173.082.262.123Z" transform="translate(-1619.695 -128.126)" fill="#fed1bc"/>
    <path id="Path_143" data-name="Path 143" d="M2658.608,645.958c-.076.075-.148.154-.221.234a2.3,2.3,0,0,0-.164.194c-.053.071-.106.129-.158.2-.014.022-.032.043-.049.066-.044.062-.086.123-.131.186a.264.264,0,0,1-.022.033c-.051.075-.1.153-.148.231a2.315,2.315,0,0,0-.123.22c-.03.05-.057.1-.084.156,0,.014-.014.026-.021.039l-.075.149c-.036.076-.071.155-.1.234l-.22.508c-.23.246-.454.513-.667.775-.745.914-1.218,2.155-1.922,3.113l-.8-.6,4.563-5.781C2658.383,645.921,2658.5,645.94,2658.608,645.958Z" transform="translate(-1687.134 -152.126)" fill="#fed1bc"/>
    <path id="Path_144" data-name="Path 144" d="M2663.739,645.568l.1-.235-1.568-.677c-.09-.038-.177-.079-.263-.123-.057-.027-.113-.057-.17-.086a6.069,6.069,0,0,1-.738-.453l-.131-.1c-.072-.053-.146-.112-.215-.171a6.3,6.3,0,0,1-2.28-5.208l-.076-.058-.123-.1-.19-.157-.279-.234q-.215-.185-.426-.369c.907-.99,1.4-2.476,2.262-3.53.213-.263.437-.524.667-.775l.221-.508c.034-.079.068-.157.105-.235.023-.049.049-.1.075-.148a.266.266,0,0,1,.02-.038c.026-.053.055-.106.083-.157.04-.075.085-.149.123-.219s.1-.156.148-.232l.022-.033c.042-.063.086-.123.131-.185.016-.025.033-.045.049-.068.051-.068.1-.132.155-.2s.111-.132.168-.194.143-.159.219-.234c-.108-.019-.226-.037-.35-.052l1.664-2.108.2,1.036.424,2.214a45.682,45.682,0,0,0-1.01,6.408,17.107,17.107,0,0,0,.246,1.981c.113.665.252,1.4.395,2.091.218,1.057.444,2.026.594,2.536h0c.078.265.135.406.16.376A.984.984,0,0,1,2663.739,645.568Z" transform="translate(-1690.361 -137.024)" fill="#fed1bc"/>
    <path id="Path_145" data-name="Path 145" d="M2608.372,633.552a3.387,3.387,0,0,0-.164,1.4,2.235,2.235,0,0,0,.823,1.176c.691.573,1.511.975,2.2,1.552a6.7,6.7,0,0,1,2.157,5.67,6.914,6.914,0,0,0,2.562-.69,2.339,2.339,0,0,0,.969-.766,2.153,2.153,0,0,0,.282-.967,7.526,7.526,0,0,0-.369-2.791,5.242,5.242,0,0,0-.615-1.462,6.293,6.293,0,0,0-2.1-1.722q-2.17-1.314-4.305-2.686a2.184,2.184,0,0,1-.52-.413,2.287,2.287,0,0,1-.394-.893c-.135-.471-.308-1.294-.708-1.582-.271.5.148,1.258.236,1.769A6.293,6.293,0,0,1,2608.372,633.552Z" transform="translate(-1647.143 -137.629)" fill="#ffae9b" opacity="0.6"/>
    <path id="Path_148" data-name="Path 148" d="M2257.237,1056.878l-13.425-.938-3.892,1.616,7.179,6.924,9.112-.658,3.121.92-.737-4.908Z" transform="translate(-1324.245 -511.726)" fill="#aeb9d7"/>
    <path id="Path_151" data-name="Path 151" d="M2166.739,814.148a6.449,6.449,0,0,0,1.256,3.473c1.476,2.3,4.686,1.78,6.149,1.392.029-.007.059-.018.091-.025l.147-.042c.1-.026.181-.054.246-.076.175-.056.272-.094.272-.094a12.107,12.107,0,0,0,1.708,1.664l.176.143c.073-.043.112-.069.112-.069a16.213,16.213,0,0,0,10.191,3.236,2.322,2.322,0,0,0,.24.017,5.076,5.076,0,0,0,1.133-.123,11.227,11.227,0,0,0,1.934-.422,2.227,2.227,0,0,1,.649-.193c.071-.032.142-.065.214-.1,2.85-1.363,5.3-3.861,5.835-6.912a.591.591,0,0,1,.011-.081c.025-.134.04-.271.055-.408a17.432,17.432,0,0,0,.039-3.136c-.015-.246-.035-.492-.062-.748a.315.315,0,0,0-.008-.087,29.189,29.189,0,0,0-.861-4.51c-.218-.808-.48-1.578-.738-2.343-.087-.258-.172-.519-.256-.777a15.288,15.288,0,0,1-.755-3.534,11.494,11.494,0,0,1,.058-1.381c.016-.237.03-.478.037-.712v-.226a2.822,2.822,0,0,0-.16-1.12c-.021-.038-.037-.074-.055-.108-.3-.58-.357-.32-1.073-.5-2.316-.583-5.136-.384-7.516-.56l-8.654-.645c-1.353-.1-2.711-.2-4.069-.3l-1.936,2.525,2.138-.692h.021l.007.006c.007.006,0,0,.009,0l.026.007c.011,0,.024.007.039.009h.009c.032.007.073.018.117.032l.09.023a.483.483,0,0,0,.055.014l.032.011c.015,0,.026.007.041.009.043.011.089.025.133.039a.087.087,0,0,1,.028.009.044.044,0,0,0,.022,0l.064.021a.261.261,0,0,1,.073.02.092.092,0,0,0,.022.01l.038.007.025.009.036.011.038.011.07.022h0a.55.55,0,0,0,.073.021s.008.007.012,0a.428.428,0,0,0,.063.021.157.157,0,0,1,.039.012l.037.012.034.011.041.012a.01.01,0,0,1,.009,0c.042.014.082.028.123.039a.087.087,0,0,0,.022.007.773.773,0,0,1,.073.026.077.077,0,0,1,.026.009l.049.017.139.049.081.03.081.033c.041.015.082.032.124.051.064.026.123.052.18.079l.061.028c.035.016.07.037.1.053a.045.045,0,0,0,.015.007.715.715,0,0,1,.07.045l.022.015a.208.208,0,0,1,.04.026h0a.127.127,0,0,1,.033.026l.01.007h0l.015.013a.1.1,0,0,0,.019.022h0c0,.007.01.013.01.018h0a.174.174,0,0,0,.008.02v.011a.059.059,0,0,1,.008.025h0a.087.087,0,0,1-.023.06h0l-.032.029-.023.015-.025.013a.848.848,0,0,1-.19.063c-.045.011-.1.02-.151.03a.909.909,0,0,0-.123.027h-.009c-.04.01-.077.022-.123.036a.414.414,0,0,0-.089.037.333.333,0,0,0-.065.029c-.034.015-.07.033-.1.052-.073.041-.146.087-.217.135a3.922,3.922,0,0,0-.689.649,1.5,1.5,0,0,0-.1.123c-.031.037-.06.074-.089.111s-.044.057-.068.089l-.15.207c-.021.031-.043.065-.065.1a.153.153,0,0,0-.012.021h0c-.025.037-.05.074-.076.114s-.046.069-.067.106a.017.017,0,0,0-.008.009c-.018.032-.043.066-.062.1s-.038.066-.06.1a.11.11,0,0,1-.017.032.413.413,0,0,1-.04.064c-.028.052-.059.106-.089.157a.3.3,0,0,0-.022.037l-.054.093-.011.021v.007c-.044.078-.084.151-.123.225-.016.028-.027.054-.042.081-.026.048-.05.1-.076.148-.007.01-.011.018-.018.028a.184.184,0,0,0-.02.045c-.005.016-.032.058-.047.087a.488.488,0,0,1-.026.058c-.005.009-.01.018-.014.027s-.009.022-.014.033l-.027.054c-.015.031-.03.063-.045.09s-.018.041-.028.058-.026.057-.038.082v.007a.411.411,0,0,1-.021.047.212.212,0,0,1-.016.039.182.182,0,0,1-.026.049.562.562,0,0,1-.033.078.163.163,0,0,1-.017.041c-.009.017-.015.033-.022.048s-.012.028-.018.043a.334.334,0,0,1-.015.033c-.012.03-.024.055-.033.081a.151.151,0,0,0-.016.037c-.026.059-.045.107-.062.15l-.025.055c-.016.044-.026.068-.026.068-.023.054-.045.111-.064.165-.036.089-.069.18-.1.266s-.062.177-.09.268-.056.179-.08.266-.049.179-.072.267-.044.178-.064.267-.034.157-.049.235l-.019.095-.033.189-.006.028c-.012.086-.023.169-.034.253s-.018.141-.029.214-.018.165-.023.246c-.006.052-.007.1-.011.149s-.01.123-.014.181c-.01.176-.014.352-.014.526v.338c0,.144.007.287.017.431a13.793,13.793,0,0,0,.563,3.092c.031.1.063.205.1.305.1.309.2.6.305.878.037.092.07.182.107.271.07.182.144.353.214.519.037.08.073.16.109.246s.07.155.1.229q.107.222.207.419c.032.066.065.13.1.193.015.031.032.062.048.09.033.059.063.116.091.173.061.107.114.207.167.3l.07.123c.021.036.072.112.1.162a.9.9,0,0,0,.079.123.341.341,0,0,1,.037.064c.032.046.048.074.054.081l-1.792-.53-.173-.051c-.043-.063-.085-.123-.129-.177l.034.09a2.938,2.938,0,0,0-.185-.255,4.285,4.285,0,0,0-.486-.52.225.225,0,0,1-.048-.041,2.571,2.571,0,0,0-2.326-.669.616.616,0,0,0-.091.022,2.776,2.776,0,0,0-.284.1,3.157,3.157,0,0,0-1.107.71A2.337,2.337,0,0,0,2166.739,814.148Z" transform="translate(-1260.063 -282.739)" fill="#fed1bc"/>
    <path id="Path_152" data-name="Path 152" d="M2248.44,1003.677a16.984,16.984,0,0,0,7.513,3.307,12.835,12.835,0,0,0,1.368.157,11.136,11.136,0,0,0,1.98-.044,9.775,9.775,0,0,0,1.042-.177c.155-.036.31-.074.468-.114.129-.036.257-.069.386-.111a12.023,12.023,0,0,0,1.5-.571,2.152,2.152,0,0,0-.649.193,11.2,11.2,0,0,1-1.934.422,5.063,5.063,0,0,1-1.132.123,2.3,2.3,0,0,1-.24-.017,16.2,16.2,0,0,1-10.191-3.236S2248.509,1003.634,2248.44,1003.677Z" transform="translate(-1331.717 -465.832)" fill="#fed1bc"/>
    <path id="Path_154" data-name="Path 154" d="M2183.626,811.607a1.247,1.247,0,0,1-.343.093c-1.737.282-3.252,4.236-3.252,4.236-2.265,5.516,1.673,11.512,1.765,11.65l-1.968-.579c-.042-.063-.084-.123-.123-.177L2175.54,815.6l3.429-4.474,2.136-.692S2184.345,811.252,2183.626,811.607Z" transform="translate(-1267.783 -296.412)" fill="#fed1bc"/>
    <path id="Path_155" data-name="Path 155" d="M2313.243,959.152a3.267,3.267,0,0,1-1.9,2.815,3.572,3.572,0,0,1-.514.218,5.335,5.335,0,0,1-6.056-2.435c-.541-.913-.777-1.975.041-2.664a1.012,1.012,0,0,1,.615-.232c1.117-.073,2.056.638,3.041,1.016a7.29,7.29,0,0,0,2.052.485,17.731,17.731,0,0,0,2.091-.123C2313.168,958.2,2313.247,958.665,2313.243,959.152Z" transform="translate(-1380.689 -424.822)" fill="#8e554f"/>
    <path id="Path_156" data-name="Path 156" d="M2314.8,976.177v.171a3.643,3.643,0,0,1-.514.218,5.337,5.337,0,0,1-6.056-2.435,4.508,4.508,0,0,1,2.45-.876C2312.851,973.123,2314.693,974.432,2314.8,976.177Z" transform="translate(-1384.154 -439.203)" fill="#f98282"/>
    <path id="Path_157" data-name="Path 157" d="M2273.807,931.193a2.189,2.189,0,1,1-2.319-2.053A2.189,2.189,0,0,1,2273.807,931.193Z" transform="translate(-1350.127 -400.518)" fill="#ffae9b" opacity="0.4"/>
    <path id="Path_158" data-name="Path 158" d="M2397.121,936.071c-.018.164-.04.327-.068.492a2.19,2.19,0,1,1-.246-4.374,2.414,2.414,0,0,1,.283,0A18.837,18.837,0,0,1,2397.121,936.071Z" transform="translate(-1460.023 -403.192)" fill="#ffae9b" opacity="0.4"/>
    <path id="Path_159" data-name="Path 159" d="M2351.891,918.031l.3,1.626a2.029,2.029,0,0,1-.9,2.091l-.663.423,1.061-.4a1.65,1.65,0,0,0,.938-2.187l-.666-1.571a.038.038,0,0,0-.043-.021A.038.038,0,0,0,2351.891,918.031Z" transform="translate(-1421.338 -390.745)" fill="#ffae9b"/>
    <path id="Path_160" data-name="Path 160" d="M2260.22,878.656a8.686,8.686,0,0,1,3.386-1.924,7.169,7.169,0,0,1,2.982-.216c.381.053,1.221.06,1.127.653-.084.524-.807.5-1.2.482-.656-.033-1.332-.069-1.993-.059A9.243,9.243,0,0,0,2260.22,878.656Z" transform="translate(-1342.048 -354.31)" fill="#ad695e"/>
    <path id="Path_161" data-name="Path 161" d="M2375.386,869.629a.523.523,0,0,1,.062.294,10.839,10.839,0,0,0-2.294-.176c-.548.038-1.107.117-1.645.194-.324.047-.92.123-1.031-.352-.123-.528.568-.6.881-.67a5.458,5.458,0,0,1,2.478-.012C2374.218,869,2375.137,869.168,2375.386,869.629Z" transform="translate(-1438.732 -347.577)" fill="#ad695e"/>
    <path id="Path_162" data-name="Path 162" d="M2219.454,1104.723a15.871,15.871,0,0,1,.9-2.062l.079.06a5.919,5.919,0,0,0-.394,2.46c.009.123.021.234.037.349C2219.638,1105.2,2219.4,1104.924,2219.454,1104.723Z" transform="translate(-1306.29 -552.7)" fill="#5a5aad"/>
    <path id="Path_164" data-name="Path 164" d="M2240.54,1013.507h0l3.213,2.347.277.007q.415.018.824.06c.358.034.713.082,1.067.138.177.028.354.058.53.091.441.079.88.173,1.318.273,1.454.336,2.9.759,4.349,1.107l.2.046c.318.076.635.146.954.21a4.854,4.854,0,0,0,2.9-.066,3.006,3.006,0,0,0,1.137-.909,4.136,4.136,0,0,0,.354-.531,6.177,6.177,0,0,0,.51-1.2c-.272-.6-.508-1.214-.719-1.836a20.418,20.418,0,0,1-.848-3.511l-.56-3.762-.07-.477c-.073.036-.143.069-.214.1a2.152,2.152,0,0,0-.65.193,11.219,11.219,0,0,1-1.933.422,5.081,5.081,0,0,1-1.133.123,2.268,2.268,0,0,1-.24-.017,16.2,16.2,0,0,1-10.191-3.236s-.038.026-.112.069l-.176-.144q.019.107.041.218c.019.106.037.213.055.324s.03.184.044.28l.044.3c.044.3.085.615.123.942.009.074.016.148.024.221s.014.139.021.209c.041.42.071.851.086,1.293,0,.08,0,.157.008.236s0,.161,0,.246V1008c0,.123,0,.256-.011.383a15.815,15.815,0,0,1-.188,1.914c-.032.189-.067.378-.106.563-.012.062-.025.123-.04.187-.07.309-.154.615-.246.915-.078.246-.162.473-.256.7-.048.114-.1.229-.147.342h0C2240.71,1013.18,2240.629,1013.344,2240.54,1013.507Z" transform="translate(-1324.788 -465.297)" fill="#fed1bc"/>
    <path id="Path_165" data-name="Path 165" d="M2240.55,1014.042l3.213,2.345c.092,0,.184,0,.276.009.277.012.552.033.824.06.358.034.713.082,1.068.138.177.028.354.058.53.091.442.079.881.173,1.319.273,1.454.336,2.9.758,4.349,1.107l.2.045c.317.076.635.146.955.21a4.856,4.856,0,0,0,2.9-.066,3.006,3.006,0,0,0,1.135-.909,4.355,4.355,0,0,0,.355-.531,6.161,6.161,0,0,0,.51-1.2c-.272-.6-.508-1.214-.719-1.836,0,0-.5,3.848-1.265,4.345-.578.376-7.332-2.7-10.61-4.227a2.476,2.476,0,0,1-1.376-2.728l.384-1.919a2.24,2.24,0,0,1,2.542-1.765,17.106,17.106,0,0,0,6.149-.055c.782-.166,2.177-.553,2.6-1.283a.446.446,0,0,0-.123-.018,2.155,2.155,0,0,0-.65.193,11.2,11.2,0,0,1-1.934.422,5.069,5.069,0,0,1-1.132.123,2.289,2.289,0,0,1-.24-.017,16.2,16.2,0,0,1-10.191-3.236s-.038.026-.112.069l-.135.075c.018.106.037.213.055.323s.029.184.044.28l.044.3c.044.3.085.615.123.942.009.074.016.148.023.221s.015.139.021.209c.041.419.07.851.086,1.293,0,.077,0,.157.007.236s0,.161,0,.246v.734c0,.123,0,.256-.011.382a15.815,15.815,0,0,1-.188,1.914c-.032.189-.065.378-.106.563-.013.062-.026.123-.041.187-.07.31-.151.615-.246.915-.076.246-.161.476-.256.7-.046.114-.093.229-.148.342h0A3.869,3.869,0,0,1,2240.55,1014.042Z" transform="translate(-1324.797 -465.832)" fill="#ffae9b" opacity="0.4"/>
    <path id="Path_166" data-name="Path 166" d="M2180.241,952.182a.718.718,0,0,1-.369.492,3.62,3.62,0,0,1-3,.09c-1.188-.454-2.993-2.109-1.888-3.434a2.18,2.18,0,0,1,.42-.411,1.561,1.561,0,0,1,1.222-.186c.369.146.763.215,1.145.326a3.7,3.7,0,0,1,2.08,1.688A2.225,2.225,0,0,1,2180.241,952.182Z" transform="translate(-1266.995 -417.655)" fill="#ffae9b" opacity="0.4"/>
    <path id="Path_172" data-name="Path 172" d="M2152.088,811.686a1.239,1.239,0,0,1-.342.093,3.223,3.223,0,0,0-1.809,1.49.874.874,0,0,0-.079.123,14.809,14.809,0,0,0-1.364,2.63c-.023.054-.044.111-.064.166-2.124,5.468,1.737,11.348,1.829,11.484-.452-.134-.954-.176-1.392-.319a3.936,3.936,0,0,1-1.209-.941,2.641,2.641,0,0,0-2.875-.774,3.192,3.192,0,0,0-1.107.71,11.787,11.787,0,0,1-.6-1.176c-.4-.8-.762-1.615-1.119-2.434-.351-.8-.664-1.6-1.054-2.379-.009-.016-.015-.031-.023-.048a7.885,7.885,0,0,1-.9-2.48,6.323,6.323,0,0,1,0-1.406h0a3.751,3.751,0,0,0-.041-1.012c-.123-.55-.246-1.1-.362-1.652l7.847-2.55,2.136-.692a13.141,13.141,0,0,1,2.427.84C2152.2,811.478,2152.269,811.6,2152.088,811.686Z" transform="translate(-1236.246 -296.491)" fill="#824a46"/>
    <path id="Path_173" data-name="Path 173" d="M2152.053,811.686a1.235,1.235,0,0,1-.342.093,3.225,3.225,0,0,0-1.809,1.49.893.893,0,0,0-.078.123c-.471.076-.894.143-1.181.219a22.062,22.062,0,0,0-2.888.919,11.2,11.2,0,0,0-2.45,1.417,6.317,6.317,0,0,0-1.968,2.275,5.5,5.5,0,0,0-.475,2.138c-.009-.016-.015-.031-.023-.048a7.872,7.872,0,0,1-.9-2.48,6.294,6.294,0,0,1,0-1.406h0a3.771,3.771,0,0,0-.041-1.012c-.123-.55-.246-1.1-.362-1.652l7.847-2.55,2.136-.692a13.139,13.139,0,0,1,2.427.84C2152.164,811.478,2152.234,811.6,2152.053,811.686Z" transform="translate(-1236.21 -296.491)" fill="#6d3e3c" opacity="0.5"/>
    <path id="Path_174" data-name="Path 174" d="M2116.956,777.307a5.238,5.238,0,0,0-1.769,1.862c-.458.748-.819,1.571-1.249,2.36a9.731,9.731,0,0,1-.716,1.145,8.142,8.142,0,0,1-.9,1.007,7.72,7.72,0,0,1-2.236,1.467,7.672,7.672,0,0,0,2.169-1.536,7.914,7.914,0,0,0,.846-1.022,9.391,9.391,0,0,0,.664-1.149c.4-.795.724-1.628,1.171-2.418a5.571,5.571,0,0,1,1.819-2.044Z" transform="translate(-1210.383 -267.076)" fill="#ad695e"/>
    <path id="Path_175" data-name="Path 175" d="M2190.175,696.521a9.808,9.808,0,0,0-5.623-1.364,9.981,9.981,0,0,0-2.875.6,10.523,10.523,0,0,0-2.572,1.44c-1.59,1.184-2.941,2.671-4.517,3.9a11.99,11.99,0,0,1-2.556,1.55,6.676,6.676,0,0,1-2.911.572,6.657,6.657,0,0,0,2.893-.615,11.921,11.921,0,0,0,2.515-1.58c1.547-1.247,2.871-2.754,4.461-3.979a10.715,10.715,0,0,1,2.6-1.51,10.269,10.269,0,0,1,8.781.663Z" transform="translate(-1262.153 -195.044)" fill="#ad695e"/>
    <path id="Path_176" data-name="Path 176" d="M2197.94,813.468a19.456,19.456,0,0,1-2.811.465c-.947.094-1.9.086-2.837.1a11.727,11.727,0,0,0-2.791.293,5.065,5.065,0,0,0-2.441,1.331,5.109,5.109,0,0,1,2.416-1.423,12.279,12.279,0,0,1,2.812-.391c.942-.047,1.883-.066,2.811-.189a19.461,19.461,0,0,0,2.749-.55Z" transform="translate(-1277.886 -298.753)" fill="#ad695e"/>
    <path id="Path_177" data-name="Path 177" d="M2131.434,842.413c-.132.711-.259,1.419-.333,2.133a9.032,9.032,0,0,0,0,2.139,5.534,5.534,0,0,0,.676,2.019,3.869,3.869,0,0,0,1.512,1.5,3.927,3.927,0,0,1-1.6-1.454,5.667,5.667,0,0,1-.783-2.039,9.263,9.263,0,0,1-.094-2.193c.043-.731.142-1.454.246-2.171Z" transform="translate(-1228.533 -324.406)" fill="#ad695e"/>
    <path id="Path_178" data-name="Path 178" d="M2352.367,715.632a2.543,2.543,0,0,0,.113-1.23,4.211,4.211,0,0,0-.378-1.224,6.619,6.619,0,0,0-1.559-2.082,8.869,8.869,0,0,0-2.2-1.451,13.789,13.789,0,0,0-2.505-.884,13.831,13.831,0,0,1,2.545.8,9.032,9.032,0,0,1,2.285,1.4,6.9,6.9,0,0,1,1.69,2.1,4.522,4.522,0,0,1,.449,1.3,2.872,2.872,0,0,1-.082,1.4Z" transform="translate(-1417.137 -207.246)" fill="#ad695e"/>
    <path id="Path_179" data-name="Path 179" d="M2162.576,714.537c-3.344,2.661-10.823.942-10.823.942a58.752,58.752,0,0,0-7.973-1.164q-1.439-.1-2.653-.073a20.953,20.953,0,0,0-2.453.172c-5.452.718-6.6,3.541-6.519,5.967a8.938,8.938,0,0,0,.453,2.433c.07.214.14.408.208.578,0,0,.007.016.018.048.046.116.09.218.129.309.01.022.018.044.029.069.029.065.058.138.09.215,0,.005,0,.011,0,.016.011.027.025.055.036.085-.113-.266-.631-.587-.839-.8a10.962,10.962,0,0,1-.794-.921,7.3,7.3,0,0,1-.984-1.7,5.994,5.994,0,0,1-.3-3.269,16.112,16.112,0,0,1,1.092-3.368c1-2.45,1.8-4.784,3.992-6.473a18.148,18.148,0,0,1,5.088-2.583c.527-.184,1.056-.358,1.584-.524a5.18,5.18,0,0,0,1.417-1.083c.1-.081.195-.159.293-.246.769-.626,1.552-1.237,2.375-1.792a11.194,11.194,0,0,1,8.628-1.616,11.929,11.929,0,0,1,6.9,4.027,10.416,10.416,0,0,1,.731,1.048,13.872,13.872,0,0,1,1.733,4.8C2164.457,712.039,2163.786,713.574,2162.576,714.537Z" transform="translate(-1227.931 -199.116)" fill="#ad695e"/>
    <path id="Path_180" data-name="Path 180" d="M2377.061,1076.642c-.1.332-.189.5-.246.447l-4.744-7a.492.492,0,0,1,.22-.6c1.577-.948.912-6.741.912-6.741,1.044,1.259,4.409,2.926,4.9,4.417a.179.179,0,0,0,.012.042C2378.49,1068.561,2377.595,1074.884,2377.061,1076.642Z" transform="translate(-1440.117 -517.698)" fill="#fff"/>
    <path id="Path_183" data-name="Path 183" d="M2378.2,1068.359c-.007.754-.083,1.738-.2,2.772-.123,1.061-.276,2.182-.443,3.158a22.165,22.165,0,0,1-.5,2.354c-.1.331-.19.5-.247.445l-1.187-1.748-1.525-2.255-2.032-3a.492.492,0,0,1,.221-.6c1.574-.948.911-6.741.911-6.741.03.033.058.068.091.1,1.135,1.246,4.331,2.862,4.808,4.314a.136.136,0,0,0,.012.039A4.7,4.7,0,0,1,2378.2,1068.359Z" transform="translate(-1440.116 -517.699)" fill="#fff"/>
    <path id="Path_184" data-name="Path 184" d="M2416.53,1089.213a.729.729,0,0,0-.1,0c-.261-.462-.554-.91-.846-1.353Z" transform="translate(-1478.3 -539.72)" fill="#373777" opacity="0.8"/>
    <path id="Path_187" data-name="Path 187" d="M2234,820.251c0,.3-.024.626-.044.94a16.81,16.81,0,0,1-5.913,1.661,32.756,32.756,0,0,1-7.4-.205,14.216,14.216,0,0,1-2.053-.419,8.465,8.465,0,0,0-2.508-.693,5.126,5.126,0,0,0-2.179.689,6.123,6.123,0,0,0-2.36,2.3c.02-.055.04-.112.064-.166a14.618,14.618,0,0,1,1.442-2.746,3.237,3.237,0,0,1,1.809-1.49,1.244,1.244,0,0,0,.342-.094,58.754,58.754,0,0,1,7.974,1.163S2230.66,822.913,2234,820.251Z" transform="translate(-1299.355 -304.831)" fill="#ffae9b" opacity="0.4"/>
    <path id="Path_188" data-name="Path 188" d="M2233.26,742.051a18.879,18.879,0,0,1-2.04-.7h0c-.067-.032-.132-.066-.194-.1a23.562,23.562,0,0,1-2.24-1.23,17,17,0,0,0-7.256-2.521,10.908,10.908,0,0,0,1.3-.628c.114-.054.228-.106.342-.159a15.573,15.573,0,0,1,3.416,1.353C2229.03,739.379,2230.669,741.048,2233.26,742.051Z" transform="translate(-1308.116 -231.767)" fill="#824a46" opacity="0.8"/>
    <path id="Path_189" data-name="Path 189" d="M2428.18,1092c.161.044.773.221,1.652.541-.009-.023-.016-.044-.023-.068Q2429,1092.2,2428.18,1092Z" transform="translate(-1489.351 -543.351)" fill="#4e4e98"/>
    <g id="Group_82" data-name="Group 82" transform="translate(908.064 531.026)" opacity="0.76">
      <path id="Path_190" data-name="Path 190" d="M2183.186,951.589a.1.1,0,0,1-.091-.05,5.228,5.228,0,0,0-2.091-2.294,3.15,3.15,0,0,0-2.834,0,.094.094,0,0,1-.124-.034.1.1,0,0,1-.01-.073.1.1,0,0,1,.045-.058,3.28,3.28,0,0,1,3.017,0,5.4,5.4,0,0,1,2.172,2.372.1.1,0,0,1-.039.123A.114.114,0,0,1,2183.186,951.589Z" transform="translate(-2178.033 -948.712)" fill="#ad695e"/>
      <path id="Path_191" data-name="Path 191" d="M2187.66,953.53a.1.1,0,0,1-.1-.09c0-.021-.111-2.16,1.636-2.46a.1.1,0,0,1,.111.078.094.094,0,0,1-.016.071.1.1,0,0,1-.062.039c-1.582.274-1.476,2.245-1.476,2.264a.092.092,0,0,1-.025.068A.1.1,0,0,1,2187.66,953.53Z" transform="translate(-2186.387 -950.7)" fill="#ad695e"/>
    </g>
    <path id="Path_194" data-name="Path 194" d="M2447.446,1093.4a5.15,5.15,0,0,0-1.29,1.47,5.937,5.937,0,0,1-1.217,1.626,2.073,2.073,0,0,1-.872.563,1.712,1.712,0,0,1-1.388-.328c-.973-.7-1.347-2.107-2.168-2.989a.822.822,0,0,1-.181-.261l.217.074C2443.554,1094.62,2445.347,1094.787,2447.446,1093.4Z" transform="translate(-1500.007 -544.579)" fill="#47478e"/>
    <path id="Path_195" data-name="Path 195" d="M2502,1091.349l.169-.219A.385.385,0,0,1,2502,1091.349Z" transform="translate(-1554.092 -542.588)" fill="#47478e"/>
    <path id="Path_196" data-name="Path 196" d="M2571.046,831.391a6.185,6.185,0,0,1-.453,1.94c-.783,1.654-2.712,2.337-4.394,3.064a24.569,24.569,0,0,0-4.438,2.488c.221-.205.439-.412.658-.624,1.554-1.513,3.567-2.859,4.245-4.872.942-2.789.868-6.183,1.03-9.075.2-3.649.275-7.317.124-10.966-.035-.78-.1-1.528-.164-2.234a1.559,1.559,0,0,1,1.423.688c1.736,1.968,1.831,6.8,2.071,9.29a48.631,48.631,0,0,1-.1,10.3Z" transform="translate(-1606.501 -296.995)" fill="#47478e"/>
    <path id="Path_197" data-name="Path 197" d="M2632.956,731.337c-2.55.967-6.048,1.063-8.588,1.269a6.638,6.638,0,0,0-2.53.622,3.413,3.413,0,0,1,.123-1.476,2.5,2.5,0,0,1,.133-.322c.605-1.194,2.008-1.476,3.2-1.78.179-.047.849-.209,1.721-.4,2.18-.474,5.614-1.107,5.658-.427.056.829.149,1.659.28,2.478C2632.953,731.314,2632.954,731.325,2632.956,731.337Z" transform="translate(-1659.163 -224.584)" fill="#dee6f3"/>
    <path id="Path_200" data-name="Path 200" d="M2632.956,751.132c-2.55.967-6.048,1.063-8.588,1.269a6.638,6.638,0,0,0-2.53.622,3.413,3.413,0,0,1,.123-1.476c2.583.018,8.839.012,10.985-.448A.066.066,0,0,1,2632.956,751.132Z" transform="translate(-1659.163 -244.379)" fill="#aeb9d7"/>
    <g id="Group_83" data-name="Group 83" transform="translate(920.781 527.481)" opacity="0.7">
      <path id="Path_201" data-name="Path 201" d="M2284.3,921.278c.55-.754-.706-1.353-1.412-1.386-.524-.026-1.558.4-1.435.967.113.526,1.257.7,1.721.728A1.292,1.292,0,0,0,2284.3,921.278Z" transform="translate(-2281.439 -919.891)" fill="#ffece3"/>
      <path id="Path_202" data-name="Path 202" d="M2402.557,927.371c.013.133.025.269.037.4a.3.3,0,0,0,.007.081h0c.011.123.02.246.028.376v.018h0a1.632,1.632,0,0,1-.368.094,2.022,2.022,0,0,1-1.072-.087.312.312,0,0,1-.14-.143.33.33,0,0,1-.021-.066c-.06-.336.492-.7.813-.753A1.59,1.59,0,0,1,2402.557,927.371Z" transform="translate(-2386.315 -926.374)" fill="#ffece3"/>
    </g>
    <path id="Path_203" data-name="Path 203" d="M2287.81,905.977a2.574,2.574,0,0,1,.906-.683,2.65,2.65,0,0,1,.548-.187,2.716,2.716,0,0,1,.582-.058,2.577,2.577,0,0,1,1.121.278,3.046,3.046,0,0,1,.9.686,5.609,5.609,0,0,0-.984-.51c-.083-.036-.171-.057-.256-.089a1.283,1.283,0,0,0-.262-.061,2.489,2.489,0,0,0-.53-.059,2.992,2.992,0,0,0-1.055.177A4.084,4.084,0,0,0,2287.81,905.977Z" transform="translate(-1366.245 -379.393)" fill="#ad695e"/>
    <path id="Path_204" data-name="Path 204" d="M2377.061,893.881a4.767,4.767,0,0,0-.984-.2,2.942,2.942,0,0,0-.97.071,2.384,2.384,0,0,0-.861.423,4.078,4.078,0,0,0-.695.722,2.372,2.372,0,0,1,.571-.868,2.278,2.278,0,0,1,.429-.318,2.253,2.253,0,0,1,1.557-.22A2.609,2.609,0,0,1,2377.061,893.881Z" transform="translate(-1441.44 -369.215)" fill="#ad695e"/>
    <path id="Path_207" data-name="Path 207" d="M2624.269,601.831l-3.4-1.085a1.545,1.545,0,0,0-.431.766,9.168,9.168,0,0,0,.094,2.235c-.032.712.145,1.593-.369,2.091-.722.7-1.4.552-2.035-.21a.752.752,0,0,1-.414.515,2.411,2.411,0,0,1-1.6-.169c.052.1-.083-.017-.177.053-.323.246-1.293-.058-1.51-.4a8.01,8.01,0,0,1-1.381-4.517,3.609,3.609,0,0,1,.41-1.983,2.118,2.118,0,0,1,1.578-1.068,1.5,1.5,0,0,1,1,.3,4.3,4.3,0,0,1,.368.427c.2.246.39.517.354.531a1.467,1.467,0,0,0,.2-.065,1.352,1.352,0,0,1,.83-.194,1.237,1.237,0,0,1,.956.738,1.742,1.742,0,0,1,1.823.423c.134-.228.664-.123.929-.123A3.245,3.245,0,0,1,2624.269,601.831Z" transform="translate(-1651.479 -110.159)" fill="#fed1bc"/>
    <g id="Group_84" data-name="Group 84" transform="translate(963.715 489.147)" opacity="0.6">
      <path id="Path_208" data-name="Path 208" d="M2632.088,608.237a4.773,4.773,0,0,0-.711.569,2.853,2.853,0,0,0-.55.711,1.629,1.629,0,0,0-.085.2l-.034.1c-.009.036-.012.071-.018.107a2.237,2.237,0,0,0-.015.443c.015.3.052.6.1.9.09.6.229,1.2.335,1.8s.227,1.2.347,1.8l-.023.008a10.222,10.222,0,0,1-.563-1.756,14.766,14.766,0,0,1-.292-1.821c-.032-.306-.058-.615-.06-.925a2.36,2.36,0,0,1,.036-.471c.008-.039.015-.08.025-.123l.042-.113a1.517,1.517,0,0,1,.1-.216,2.95,2.95,0,0,1,.606-.706,4.931,4.931,0,0,1,.749-.537Z" transform="translate(-2630.514 -608.21)" fill="#ffae9b"/>
    </g>
    <g id="Group_85" data-name="Group 85" transform="translate(965.936 489.634)" opacity="0.6">
      <path id="Path_209" data-name="Path 209" d="M2649.916,612.182a9.755,9.755,0,0,0-.861,1.293,2.984,2.984,0,0,0-.293.7.678.678,0,0,0,0,.339,3.754,3.754,0,0,1,.094.39c.094.519.17,1.031.229,1.545s.133,1.021.209,1.539l-.023.007a6.909,6.909,0,0,1-.429-1.51c-.046-.258-.074-.518-.1-.777s-.044-.517-.08-.77a3.641,3.641,0,0,0-.07-.369.837.837,0,0,1,.022-.429,3.1,3.1,0,0,1,.341-.722,9.816,9.816,0,0,1,.946-1.247Z" transform="translate(-2648.573 -612.17)" fill="#ffae9b"/>
    </g>
    <path id="Path_210" data-name="Path 210" d="M2672.465,622.465a1.693,1.693,0,0,1-.19.523c-.246.378-1.126.72-1.514.369-.411-.376-.161-1.353-.152-1.834.01-.534-.056-1.069-.014-1.6a2.176,2.176,0,0,1,.6-1.445.362.362,0,0,1,.17-.1.41.41,0,0,1,.246.055l1.34.615c.58.267.6.293.359.873A14.033,14.033,0,0,0,2672.465,622.465Z" transform="translate(-1701.889 -127.979)" fill="#fed1bc"/>
    <g id="Group_86" data-name="Group 86" transform="translate(968.259 490.057)" opacity="0.6">
      <path id="Path_211" data-name="Path 211" d="M2668.059,620.929q-.133-.675-.258-1.353c-.079-.453-.156-.905-.225-1.359-.034-.228-.068-.455-.1-.686a2.715,2.715,0,0,1-.02-.362.683.683,0,0,1,.016-.113.835.835,0,0,1,.032-.09c.022-.055.047-.11.07-.162a8.358,8.358,0,0,1,.7-1.194l.022.011c-.148.439-.332.861-.5,1.28-.021.052-.042.1-.059.155l-.026.074v.056c0,.1,0,.213.009.325.01.226.028.454.049.681.044.455.1.91.151,1.365s.1.911.161,1.366Z" transform="translate(-2667.459 -615.61)" fill="#ffae9b"/>
    </g>
    <path id="Path_212" data-name="Path 212" d="M2630.52,606.214a3.8,3.8,0,0,1,1.217-2.214c.2.246.39.516.353.531a3.092,3.092,0,0,0-1.433,1.626Z" transform="translate(-1666.804 -115.371)" fill="#ffae9b" opacity="0.6"/>
    <path id="Path_213" data-name="Path 213" d="M2688.242,625.5l-1.39-.455-.862,2.5,1.637.418Z" transform="translate(-1715.453 -133.823)" fill="#fed1bc"/>
    <path id="Path_214" data-name="Path 214" d="M2664.67,707.34l.123.1a.834.834,0,0,1-.116.061C2664.677,707.448,2664.675,707.4,2664.67,707.34Z" transform="translate(-1696.754 -206.001)" fill="#ffae9b" opacity="0.6"/>
    <path id="Path_218" data-name="Path 218" d="M2688.656,626.933a6.294,6.294,0,0,0-.81.69c-.233-.041-.507-.074-.8-.1.012-.108.02-.218.022-.326.008-.369-.042-.729-.018-1.092a1.443,1.443,0,0,1,.4-.984.387.387,0,0,1,.182-.108.371.371,0,0,1,.143,0,1.133,1.133,0,0,1,.861.83A2.448,2.448,0,0,1,2688.656,626.933Z" transform="translate(-1716.372 -133.791)" fill="#ffae9b" opacity="0.6"/>
    <path id="Path_231" data-name="Path 231" d="M2533.384,385.276l-16.5,23.714c-2.4.082-7.34-3-12.759-7.049l-.8-.6c-1.507-1.143-3.043-2.352-4.564-3.578a2.176,2.176,0,0,1-.413-.786,5.058,5.058,0,0,1,.029-1.23,4.087,4.087,0,0,0-.547-2.17,3.438,3.438,0,0,0-.229-.331c-.189-.239-1.251-1.387-1.657-.967a1.357,1.357,0,0,0-.185.369c-.168.444-.4,1.23-.637,2.117-7.011-5.864-12.88-11.315-12.88-11.315l17.941-23S2524.036,382.176,2533.384,385.276Z" transform="translate(-1536.77 98.225)" fill="#fff"/>
    <path id="Path_232" data-name="Path 232" d="M2532.754,384.45l-16.47,23.746h0a.058.058,0,0,1-.041.021,4.744,4.744,0,0,1-1.339-.186,11.092,11.092,0,0,1-1.276-.448,23.7,23.7,0,0,1-2.415-1.2c-1.567-.881-3.075-1.867-4.551-2.888s-2.927-2.08-4.346-3.178L2498.074,397a.024.024,0,0,1-.01-.011h0a2.409,2.409,0,0,1-.322-.52,1.948,1.948,0,0,1-.1-.289,1.249,1.249,0,0,1-.043-.312,5.088,5.088,0,0,1,.044-.6,3.271,3.271,0,0,0,.016-.581,4.393,4.393,0,0,0-.194-1.146,3.364,3.364,0,0,0-.223-.535,3.834,3.834,0,0,0-.311-.492,3.878,3.878,0,0,0-.39-.43,4.371,4.371,0,0,0-.442-.378,1.307,1.307,0,0,0-.492-.246.258.258,0,0,0-.217.039.587.587,0,0,0-.123.219,11.5,11.5,0,0,0-.369,1.116c-.112.379-.217.759-.32,1.141a.083.083,0,0,1-.1.059.073.073,0,0,1-.032-.017q-3.288-2.749-6.511-5.576t-6.383-5.723a.1.1,0,0,1-.011-.138l17.923-23.018a.123.123,0,0,1,.172-.022l.007.006c1.283,1.163,2.583,2.311,3.884,3.455s2.61,2.281,3.927,3.407q3.951,3.38,8.008,6.633,2.035,1.62,4.1,3.2t4.2,3.063c1.421.984,2.864,1.953,4.348,2.845l.557.335.567.317.567.317.577.3A20.646,20.646,0,0,0,2532.754,384.45Zm-.023.007-.606-.22-.3-.109-.3-.132-.6-.263c-.2-.086-.388-.191-.584-.285l-.582-.29-.571-.312-.57-.312-.557-.33c-1.494-.881-2.952-1.825-4.378-2.812s-2.829-2.007-4.219-3.045-2.76-2.1-4.121-3.176q-4.081-3.228-8.045-6.6t-7.834-6.847l.178-.016-17.957,23-.011-.139q3.145,2.908,6.367,5.733t6.494,5.585l-.135.043c.1-.383.209-.764.322-1.144s.228-.759.381-1.134c.02-.048.043-.095.067-.14a.576.576,0,0,1,.044-.073.4.4,0,0,1,.067-.069.427.427,0,0,1,.347-.073,1.477,1.477,0,0,1,.56.279,4.583,4.583,0,0,1,.457.395,3.534,3.534,0,0,1,.961,1.52,4.565,4.565,0,0,1,.2,1.187v.3c0,.1-.012.2-.022.3a4.462,4.462,0,0,0-.046.582,1.117,1.117,0,0,0,.035.274,1.893,1.893,0,0,0,.1.268,2.288,2.288,0,0,0,.3.492l-.011-.012,4.231,3.321c1.418,1.1,2.866,2.157,4.337,3.184s2.971,2.008,4.531,2.89a23.541,23.541,0,0,0,2.4,1.2,11.205,11.205,0,0,0,1.26.446,4.677,4.677,0,0,0,1.312.191l-.04.022Z" transform="translate(-1536.124 99.047)" fill="#ffc150"/>
    <path id="Path_233" data-name="Path 233" d="M2587.635,475.563a.522.522,0,0,1-.4-.851l11.711-14.253a.52.52,0,0,1,.8.66l-11.71,14.257A.52.52,0,0,1,2587.635,475.563Z" transform="translate(-1628.739 10.671)" fill="#dee6f3"/>
    <path id="Path_234" data-name="Path 234" d="M2561.772,452.85a.518.518,0,0,1-.4-.85l11.711-14.252a.52.52,0,0,1,.8.661l-11.71,14.253A.52.52,0,0,1,2561.772,452.85Z" transform="translate(-1606.055 30.588)" fill="#dee6f3"/>
    <path id="Path_235" data-name="Path 235" d="M2615.651,492.609a.519.519,0,0,1-.4-.85l11.711-14.253a.519.519,0,1,1,.8.659l-11.711,14.254A.516.516,0,0,1,2615.651,492.609Z" transform="translate(-1653.308 -4.267)" fill="#dee6f3"/>
    <path id="Path_236" data-name="Path 236" d="M2637.785,514.938a.52.52,0,0,1-.4-.851l11.71-14.253a.52.52,0,1,1,.8.66l-11.711,14.253A.521.521,0,0,1,2637.785,514.938Z" transform="translate(-1672.72 -23.849)" fill="#dee6f3"/>
    <path id="Path_237" data-name="Path 237" d="M2671.343,532.418a.52.52,0,0,1-.4-.85l11.711-14.255a.52.52,0,0,1,.8.66l-11.711,14.254A.52.52,0,0,1,2671.343,532.418Z" transform="translate(-1702.151 -39.179)" fill="#dee6f3"/>
    <path id="Path_238" data-name="Path 238" d="M2783.533,570.21a.519.519,0,0,1-.424-.819l4.715-6.691a.52.52,0,0,1,.85.6l-4.716,6.689A.518.518,0,0,1,2783.533,570.21Z" transform="translate(-1800.543 -78.957)" fill="#dee6f3" opacity="0.56"/>
    <path id="Path_241" data-name="Path 241" d="M2387.662,1069.768c-.007.754-.084,1.738-.2,2.772-.124,1.061-.276,2.182-.443,3.158-.087-.337-.071-.738-.137-1.078-.141-.745-.369-1.476-.573-2.2a19.463,19.463,0,0,0-.713-3.1,19.671,19.671,0,0,0-1.281-2.091,8.462,8.462,0,0,1-1.488-2.877c.52-.016,1.137.549,1.671.674a5.438,5.438,0,0,1,.925.235,2.945,2.945,0,0,1,.868.651,3.373,3.373,0,0,1,1.089,1.66A11.15,11.15,0,0,1,2387.662,1069.768Z" transform="translate(-1449.578 -519.108)" fill="#47478e" opacity="0.06"/>
    <path id="Path_245" data-name="Path 245" d="M3027.838,2634.78v3.807a2.886,2.886,0,0,1-.394,1.476l-3.9-.516a2.956,2.956,0,0,1-.157-.958v-3.807Z" transform="translate(-2011.356 -1896.383)" fill="#93501a"/>
    <path id="Path_249" data-name="Path 249" d="M2981.743,2657.585a4.341,4.341,0,0,1-.732,2.449,3.616,3.616,0,0,1-.246.329,3.124,3.124,0,0,1-2.374,1.15h-12.778a3.263,3.263,0,0,1-2.783-1.728,4.425,4.425,0,0,1-.572-2.2,4.268,4.268,0,0,1,.984-2.774,3.126,3.126,0,0,1,2.373-1.15h12.772A3.678,3.678,0,0,1,2981.743,2657.585Z" transform="translate(-1957.742 -1912.941)" fill="#a76621"/>
    <path id="Path_250" data-name="Path 250" d="M2985.091,2693.149a3.635,3.635,0,0,1-.246.328,3.122,3.122,0,0,1-2.374,1.15h-12.778a3.26,3.26,0,0,1-2.783-1.728,3.058,3.058,0,0,1,.246-.33,3.124,3.124,0,0,1,2.373-1.15H2982.3A3.262,3.262,0,0,1,2985.091,2693.149Z" transform="translate(-1961.822 -1946.057)" fill="#93501a"/>
  </g>
</svg>
