<svg id="Layer_1" width="500" height=500 data-name="Layer 1" xmlns="http://www.w3.org/2000/svg" xmlns:xlink="http://www.w3.org/1999/xlink" viewBox="0 0 841.89 595.28"><defs><style>.cls-1{fill:url(#linear-gradient);}.cls-2{fill:url(#linear-gradient-2);}.cls-3{fill:url(#linear-gradient-3);}.cls-4{fill:url(#linear-gradient-4);}.cls-5{fill:url(#linear-gradient-5);}.cls-6{fill:url(#linear-gradient-6);}.cls-7{fill:url(#linear-gradient-7);}.cls-8{fill:url(#linear-gradient-8);}.cls-9{fill:url(#linear-gradient-9);}.cls-10{fill:url(#linear-gradient-10);}.cls-11{fill:url(#linear-gradient-11);}.cls-12{fill:url(#linear-gradient-12);}.cls-13{fill:url(#linear-gradient-14);}.cls-14{fill:url(#linear-gradient-15);}.cls-15{fill:url(#linear-gradient-16);}.cls-16{fill:url(#linear-gradient-17);}.cls-17{fill:url(#linear-gradient-18);}.cls-18{fill:url(#linear-gradient-19);}.cls-19{fill:url(#linear-gradient-20);}.cls-20{fill:url(#linear-gradient-21);}.cls-21{fill:url(#linear-gradient-22);}.cls-22{fill:url(#linear-gradient-23);}.cls-23{fill:url(#linear-gradient-24);}.cls-24{fill:#536db5;}.cls-25{fill:#fff;}.cls-26{fill:#d1ddff;}.cls-27{fill:#e0594c;}.cls-28{fill:#ba4b41;}.cls-29{fill:#4e3773;}.cls-30{fill:#2e2045;}.cls-31{fill:#7593e6;}.cls-32{fill:#ffd79c;}.cls-33{mask:url(#mask);}.cls-34{fill:#ffc670;}.cls-35{mask:url(#mask-2);}.cls-36{mask:url(#mask-4);}.cls-37{mask:url(#mask-5);}.cls-38{fill:none;}.cls-39{mask:url(#mask-6);}.cls-40{mask:url(#mask-7);}.cls-41{mask:url(#mask-8);}.cls-42{mask:url(#mask-9);}.cls-43{mask:url(#mask-10);}.cls-44{mask:url(#mask-11);}.cls-45{mask:url(#mask-12);}.cls-46{mask:url(#mask-13);}.cls-47{mask:url(#mask-14);}.cls-48{fill:#7d3d3c;}.cls-49{fill:#613130;}.cls-50{fill:#ffdbdb;}.cls-51{mask:url(#mask-15);}.cls-52{fill:#ffabab;}.cls-53{fill:url(#linear-gradient-25);}.cls-54{fill:url(#linear-gradient-26);}.cls-55{mask:url(#mask-16);}.cls-56{fill:#211536;}.cls-57{mask:url(#mask-17);}.cls-58{fill:url(#linear-gradient-27);}.cls-59{fill:url(#linear-gradient-28);}.cls-60{mask:url(#mask-18);}.cls-61{mask:url(#mask-19);}.cls-62{fill:url(#linear-gradient-29);}.cls-63{fill:#f2ad46;}.cls-64{fill:#fff5e5;}.cls-65{mask:url(#mask-20);}.cls-66{fill:#402d5e;}.cls-67{mask:url(#mask-21);}.cls-68{mask:url(#mask-22);}.cls-69{mask:url(#mask-23);}.cls-70{fill:url(#linear-gradient-30);}.cls-71{fill:url(#linear-gradient-31);}.cls-72{fill:url(#linear-gradient-32);}.cls-73{fill:url(#linear-gradient-33);}.cls-74{fill:url(#linear-gradient-34);}.cls-75{fill:#87a1e6;}.cls-76{fill:#993a31;}</style><linearGradient id="linear-gradient" x1="15764.11" y1="-16726.98" x2="15764.13" y2="-17179.39" gradientTransform="matrix(0.03, 0, 0, -0.03, 1.27, 16.56)" gradientUnits="userSpaceOnUse"><stop offset="0" stop-color="#fff"/><stop offset="1" stop-color="#fff" stop-opacity="0"/></linearGradient><linearGradient id="linear-gradient-2" x1="14571.92" y1="-16826.41" x2="14571.94" y2="-17694.24" xlink:href="#linear-gradient"/><linearGradient id="linear-gradient-3" x1="16391.44" y1="-9017.79" x2="17266.91" y2="-10803.38" xlink:href="#linear-gradient"/><linearGradient id="linear-gradient-4" x1="13586.9" y1="-9828.88" x2="13586.91" y2="-12951.7" xlink:href="#linear-gradient"/><linearGradient id="linear-gradient-5" x1="17284.48" y1="-13932.61" x2="16931.57" y2="-13231.3" xlink:href="#linear-gradient"/><linearGradient id="linear-gradient-6" x1="14930.67" y1="-16855.95" x2="14930.67" y2="-16169.02" xlink:href="#linear-gradient"/><linearGradient id="linear-gradient-7" x1="14694.78" y1="-6551.98" x2="14694.81" y2="-5191.13" xlink:href="#linear-gradient"/><linearGradient id="linear-gradient-8" x1="12438.28" y1="-10058.36" x2="13279.43" y2="-7734.64" xlink:href="#linear-gradient"/><linearGradient id="linear-gradient-9" x1="13255.03" y1="-6960.98" x2="13255.04" y2="-3467.8" xlink:href="#linear-gradient"/><linearGradient id="linear-gradient-10" x1="14320.43" y1="-10753.38" x2="14424.45" y2="-13648.48" xlink:href="#linear-gradient"/><linearGradient id="linear-gradient-11" x1="14397.76" y1="-10588.25" x2="16610.47" y2="-10588.24" xlink:href="#linear-gradient"/><linearGradient id="linear-gradient-12" x1="16349.84" y1="-9059.4" x2="17225.29" y2="-10845" xlink:href="#linear-gradient"/><linearGradient id="linear-gradient-14" x1="13545.28" y1="-9870.5" x2="13545.31" y2="-12993.3" xlink:href="#linear-gradient"/><linearGradient id="linear-gradient-15" x1="17242.86" y1="-13974.21" x2="16889.97" y2="-13272.91" xlink:href="#linear-gradient"/><linearGradient id="linear-gradient-16" x1="14889.06" y1="-16897.56" x2="14889.06" y2="-16210.63" xlink:href="#linear-gradient"/><linearGradient id="linear-gradient-17" x1="13108.92" y1="-16529.43" x2="13108.93" y2="-18035.39" xlink:href="#linear-gradient"/><linearGradient id="linear-gradient-18" x1="9452.89" y1="-15289.73" x2="9452.9" y2="-18651.09" xlink:href="#linear-gradient"/><linearGradient id="linear-gradient-19" x1="14736.39" y1="-6510.38" x2="14736.41" y2="-5149.51" xlink:href="#linear-gradient"/><linearGradient id="linear-gradient-20" x1="12479.9" y1="-10016.75" x2="13321.03" y2="-7693.04" xlink:href="#linear-gradient"/><linearGradient id="linear-gradient-21" x1="13296.62" y1="-6919.37" x2="13296.65" y2="-3426.2" xlink:href="#linear-gradient"/><linearGradient id="linear-gradient-22" x1="14362.05" y1="-10711.78" x2="14466.05" y2="-13606.86" xlink:href="#linear-gradient"/><linearGradient id="linear-gradient-23" x1="14439.33" y1="-10546.51" x2="16652.04" y2="-10546.48" xlink:href="#linear-gradient"/><linearGradient id="linear-gradient-24" x1="14805.19" y1="-14225.81" x2="14805.22" y2="-1383.77" gradientTransform="matrix(0.03, 0, 0, -0.03, 1.27, 16.56)" gradientUnits="userSpaceOnUse"><stop offset="0" stop-color="#87a1e6"/><stop offset="1" stop-color="#536db5"/></linearGradient><mask id="mask" x="440.57" y="491.64" width="15.12" height="8.5" maskUnits="userSpaceOnUse"><g id="id0"><rect class="cls-1" x="440.57" y="491.64" width="15.12" height="8.5"/></g></mask><mask id="mask-2" x="401.77" y="494.34" width="25.13" height="16.54" maskUnits="userSpaceOnUse"><g id="id2"><rect class="cls-2" x="401.77" y="494.34" width="25.13" height="16.54"/></g></mask><mask id="mask-4" x="364.57" y="493.27" width="16.59" height="26.45" maskUnits="userSpaceOnUse"><g id="id6"><rect class="cls-16" x="364.57" y="493.27" width="16.59" height="26.45"/></g></mask><mask id="mask-5" x="178.41" y="486.98" width="181.64" height="40.72" maskUnits="userSpaceOnUse"><g id="id8"><rect class="cls-17" x="178.41" y="486.98" width="181.64" height="40.72"/></g></mask><mask id="mask-6" x="396.79" y="154.74" width="44.41" height="37.55" maskUnits="userSpaceOnUse"><g id="id10"><rect class="cls-18" x="396.79" y="154.74" width="44.41" height="37.55"/></g></mask><mask id="mask-7" x="356.17" y="211.69" width="28.56" height="92.44" maskUnits="userSpaceOnUse"><g id="id12"><rect class="cls-19" x="356.17" y="211.69" width="28.56" height="92.44"/></g></mask><mask id="mask-8" x="364.46" y="91.07" width="27.45" height="138.04" maskUnits="userSpaceOnUse"><g id="id14"><rect class="cls-20" x="364.46" y="91.07" width="27.45" height="138.04"/></g></mask><mask id="mask-9" x="402.17" y="319.27" width="15.95" height="100.08" maskUnits="userSpaceOnUse"><g id="id16"><rect class="cls-21" x="402.17" y="319.27" width="15.95" height="100.08"/></g></mask><mask id="mask-10" x="411.2" y="303.47" width="51.22" height="24.09" maskUnits="userSpaceOnUse"><g id="id18"><rect class="cls-22" x="411.2" y="303.47" width="51.22" height="24.09"/></g></mask><mask id="mask-11" x="472.85" y="287.59" width="10.9" height="19.72" maskUnits="userSpaceOnUse"><g id="id20"><rect class="cls-3" x="472.85" y="287.59" width="10.9" height="19.72"/></g></mask><mask id="mask-12" x="378.86" y="325.68" width="15.1" height="47.97" maskUnits="userSpaceOnUse"><g id="id22"><rect class="cls-4" x="378.86" y="325.68" width="15.1" height="47.97"/></g></mask><mask id="mask-13" x="481.02" y="393.52" width="6.24" height="7.79" maskUnits="userSpaceOnUse"><g id="id24"><rect class="cls-5" x="481.02" y="393.52" width="6.24" height="7.79"/></g></mask><mask id="mask-14" x="421.78" y="478.77" width="5.45" height="8.34" maskUnits="userSpaceOnUse"><g id="id26"><rect class="cls-6" x="421.78" y="478.77" width="5.45" height="8.34"/></g></mask><mask id="mask-15" x="395.61" y="155.92" width="44.41" height="37.55" maskUnits="userSpaceOnUse"><g id="id28"><rect class="cls-7" x="395.61" y="155.92" width="44.41" height="37.55"/></g></mask><linearGradient id="linear-gradient-25" x1="13935.62" y1="-5513.36" x2="14119.79" y2="-5931.64" gradientTransform="matrix(0.03, 0, 0, -0.03, 1.27, 16.56)" gradientUnits="userSpaceOnUse"><stop offset="0" stop-color="#ffabab"/><stop offset="1" stop-color="#ffdbdb"/></linearGradient><linearGradient id="linear-gradient-26" x1="15469.38" y1="-5444.63" x2="15348.29" y2="-5818.6" xlink:href="#linear-gradient-25"/><mask id="mask-16" x="354.99" y="212.87" width="28.56" height="92.44" maskUnits="userSpaceOnUse"><g id="id30"><rect class="cls-8" x="354.99" y="212.87" width="28.56" height="92.44"/></g></mask><mask id="mask-17" x="363.28" y="92.25" width="27.45" height="138.04" maskUnits="userSpaceOnUse"><g id="id32"><rect class="cls-9" x="363.28" y="92.25" width="27.45" height="138.04"/></g></mask><linearGradient id="linear-gradient-27" x1="15331.78" y1="-7584.82" x2="16389.26" y2="-10566.59" gradientTransform="matrix(0.03, 0, 0, -0.03, 1.27, 16.56)" gradientUnits="userSpaceOnUse"><stop offset="0" stop-color="#2e2045"/><stop offset="1" stop-color="#211536"/></linearGradient><linearGradient id="linear-gradient-28" x1="14598.49" y1="-6961.51" x2="14598.52" y2="-10671.6" gradientTransform="matrix(0.03, 0, 0, -0.03, 1.27, 16.56)" gradientUnits="userSpaceOnUse"><stop offset="0" stop-color="#fff"/><stop offset="1" stop-color="#d1ddff"/></linearGradient><mask id="mask-18" x="400.99" y="320.45" width="15.95" height="100.08" maskUnits="userSpaceOnUse"><g id="id34"><rect class="cls-10" x="400.99" y="320.45" width="15.95" height="100.08"/></g></mask><mask id="mask-19" x="410.02" y="304.65" width="51.22" height="24.09" maskUnits="userSpaceOnUse"><g id="id36"><rect class="cls-11" x="410.02" y="304.65" width="51.22" height="24.09"/></g></mask><linearGradient id="linear-gradient-29" x1="13826.36" y1="-2788.1" x2="14326.94" y2="-2372.04" gradientTransform="matrix(0.03, 0, 0, -0.03, 1.27, 16.56)" gradientUnits="userSpaceOnUse"><stop offset="0" stop-color="#ffdbdb"/><stop offset="1" stop-color="#ffabab"/></linearGradient><mask id="mask-20" x="471.67" y="288.77" width="10.9" height="19.72" maskUnits="userSpaceOnUse"><g id="id38"><rect class="cls-12" x="471.67" y="288.77" width="10.9" height="19.72"/></g></mask><mask id="mask-21" x="377.68" y="326.86" width="15.1" height="47.97" maskUnits="userSpaceOnUse"><g id="id40"><rect class="cls-13" x="377.68" y="326.86" width="15.1" height="47.97"/></g></mask><mask id="mask-22" x="479.84" y="394.7" width="6.24" height="7.79" maskUnits="userSpaceOnUse"><g id="id42"><rect class="cls-14" x="479.84" y="394.7" width="6.24" height="7.79"/></g></mask><mask id="mask-23" x="420.6" y="479.95" width="5.45" height="8.34" maskUnits="userSpaceOnUse"><g id="id44"><rect class="cls-15" x="420.6" y="479.95" width="5.45" height="8.34"/></g></mask><linearGradient id="linear-gradient-30" x1="11635.16" y1="-8005.96" x2="11787.68" y2="-8575.2" gradientTransform="matrix(0.03, 0, 0, -0.03, 1.27, 16.56)" gradientUnits="userSpaceOnUse"><stop offset="0" stop-color="#ffc670"/><stop offset="1" stop-color="#f2ad46"/></linearGradient><linearGradient id="linear-gradient-31" x1="17008.62" y1="-6026.63" x2="17008.62" y2="-6521.63" xlink:href="#linear-gradient-30"/><linearGradient id="linear-gradient-32" x1="17870.59" y1="-12794.15" x2="18504.1" y2="-13159.9" xlink:href="#linear-gradient-30"/><linearGradient id="linear-gradient-33" x1="21369.58" y1="-10099.28" x2="21798.26" y2="-10346.77" xlink:href="#linear-gradient-30"/><linearGradient id="linear-gradient-34" x1="11539.34" y1="-11038.68" x2="11786.84" y2="-11467.37" xlink:href="#linear-gradient-30"/></defs><title>Artboard 1</title><g id="Layer_1-2" data-name="Layer_1"><g id="_1893827696144" data-name=" 1893827696144"><path class="cls-23" d="M144.56,356.36s-41,108.25,79.24,157.78,273.82-58.73,348.82-29.72,203.77-128.06,80-263.2-438.67-42.46-508,135.14Z"/><path class="cls-24" d="M138.79,414.51c.08.59.15,1.19.24,1.79,225-38.31,456.56-16.76,549.62-5.07.27-.58.56-1.14.82-1.72-92.77-11.68-325-33.42-550.68,5Zm565.15-77.93c0-.61-.06-1.22-.09-1.83-79.11-10.66-316.13-36.33-549.72.61-.34.66-.69,1.33-1,2,234.12-37.26,472-11.41,550.83-.77Zm-13.61-58.4c-.28-.64-.59-1.29-.88-1.93-84.3-10.61-283.7-29.53-488.71-4.09l-2,2.08C405.22,248.29,606.44,267.56,690.33,278.18ZM660.12,229.9c-.57-.69-1.12-1.38-1.71-2.07C510.74,207.22,364,213,263.32,222.16c-1.12.71-2.26,1.41-3.37,2.13C361,215,510.19,208.74,660.12,229.9Zm-84.3-58.24c-2.3-.81-4.62-1.58-7-2.33-57.48-4.27-113.39-5.17-164.93-4.08-3,.64-6.07,1.31-9.09,2a1738.33,1738.33,0,0,1,181,4.39Z"/><path class="cls-24" d="M203.12,259.82s-32.55-31.54-28.68-69.72a4,4,0,0,1,2-2.84,4.11,4.11,0,0,1,3.49-.37c35.81,14.94,48.26,58.25,48.26,58.25l-25.07,14.68Z"/><path class="cls-24" d="M215.68,252.46l-5.06,3a53.74,53.74,0,0,1-4.56-17.07l1.87.75,7.75,13.36Z"/><path class="cls-24" d="M203.12,259.82s-32.55-31.54-28.68-69.72a4,4,0,0,1,2-2.84s11.25,38.46,34.18,68.16l-7.5,4.4Z"/><path class="cls-24" d="M175.86,211.65c-.47-2.1-.86-4.24-1.15-6.41l18.55-10.86c1.8,1.29,3.51,2.65,5.15,4.06Zm-1.48-9.44a63.7,63.7,0,0,1,.06-12.11,4,4,0,0,1,2-2.84,4.11,4.11,0,0,1,3.49-.37,65.3,65.3,0,0,1,10.8,5.75l-16.35,9.57Z"/><path class="cls-24" d="M175.86,211.65c-.47-2.1-.86-4.24-1.15-6.41l6.64-3.89c.68,1.79,1.45,3.72,2.28,5.75l-7.77,4.55Zm.58-24.39s1.3,4.43,3.91,11.46l-6,3.49a63.7,63.7,0,0,1,.06-12.11A4,4,0,0,1,176.44,187.26Z"/><polygon class="cls-24" points="228.19 245.14 203.12 259.82 206.34 265.17 231.4 250.49 228.19 245.14"/><path class="cls-24" d="M210.62,255.42l-7.5,4.4,3.22,5.34,8.26-4.83,2.93-1.72c-1.12-1.73-2.22-3.5-3.31-5.29L211,255.21Z"/><path class="cls-24" d="M190.91,246.61c-.32.69-.69,1.37-1,2-.48.92-.93,1.85-1.33,2.8a21.63,21.63,0,0,0-1.76,7.61c-.3,8.63,5.43,15.76,11.75,21.11a1.09,1.09,0,0,0,1,.24,1,1,0,0,0,.75-.63l6.09-14.63-3.22-5.34A105.19,105.19,0,0,1,191.72,246a1,1,0,0,0-.81.61Z"/><path class="cls-24" d="M190.91,246.61c-.32.69-.69,1.37-1,2-.48.92-.93,1.85-1.33,2.8l0,.09a64.36,64.36,0,0,0,14.72,21.06l3.1-7.45-3.22-5.34A105.19,105.19,0,0,1,191.72,246a1.06,1.06,0,0,0-.81.61Z"/><path class="cls-24" d="M222.3,228.24c.76,0,1.54.06,2.31.08,1,0,2.09.09,3.13.2a22.63,22.63,0,0,1,7.62,2.12c7.81,3.87,11.41,12.26,13.14,20.29a1.08,1.08,0,0,1-.25.95,1,1,0,0,1-.92.35l-15.93-1.74-3.21-5.35a104.7,104.7,0,0,0-6.82-16.49A1,1,0,0,1,222.3,228.24Z"/><path class="cls-24" d="M206.54,237.33h0l0,0h0a1.09,1.09,0,0,1,1.45.38,202.35,202.35,0,0,1,16.21,27,1.08,1.08,0,0,1-.35,1.44h0l0,0,0,0h0a1.11,1.11,0,0,1-1.45-.39,201.92,201.92,0,0,1-16.21-27A1.08,1.08,0,0,1,206.54,237.33Z"/><ellipse class="cls-24" cx="196.05" cy="219.86" rx="9.06" ry="9.28" transform="translate(-98.14 204.79) rotate(-45.34)"/><path class="cls-24" d="M187.57,216.17a9.17,9.17,0,0,0,.65,8.28,9.43,9.43,0,0,0,5.47,4.22C191.42,224.37,189.38,220.16,187.57,216.17Z"/><ellipse class="cls-24" cx="196.05" cy="219.86" rx="6.28" ry="6.43" transform="translate(-98.14 204.78) rotate(-45.34)"/><path class="cls-24" d="M190.27,217.09a6.34,6.34,0,0,0,.35,5.95,6.45,6.45,0,0,0,8.73,2.33,6.07,6.07,0,0,0,1.75-1.54,6.34,6.34,0,0,0-.35-6,6.44,6.44,0,0,0-8.73-2.33A6.2,6.2,0,0,0,190.27,217.09Z"/><path class="cls-24" d="M207.37,267.15l12.85,21.51s-23.64,4.75-9.6,21.68S239.07,343,239.07,343s-37.37,26.43-19.44,50.8-2.33,40.48-2.33,40.48l10.52,43H439.7s-10-74-38.73-48-9.3-43.37-54.07-50.39c-6.95-28.75-23.68-72.31-59-67.82-6.86-34.66-19.15-37.49-26.93-35.22-3-10.76-11.19-8.67-15.44-6.74l-13.05-16.65-25.07,14.68Z"/><path class="cls-24" d="M309.69,315a35.67,35.67,0,0,0-21.83-3.91c-6.86-34.66-19.15-37.49-26.93-35.21,0,0,15.63,1.55,12.55,40.23s35.51,45.28,35.06,26.42c-.19-8,.55-17.91,1.15-27.53Z"/><path class="cls-24" d="M207.37,267.15l12.85,21.51s-23.64,4.75-9.6,21.68q1.81,2.19,3.63,4.34c-8.56,2.68-35.47,14.95-13.33,59.33,6.29,12.62,11.77,16.9,16.46,16.16a28.36,28.36,0,0,0,2.25,3.6c17.93,24.37-2.33,40.48-2.33,40.48l10.52,43h33.4c-.84-12.69-5.17-30.7-17.67-55-29.55-57.47,35.58-66.49,35.58-66.49l-.62-.77c-1.21-1.24-4.38-3.51-11-3.06a16.52,16.52,0,0,1,4.36-4.87,536.22,536.22,0,0,0-37-39c-24.51-23.13,3.84-20.65,3.84-20.65a8.93,8.93,0,0,0-8.83-2.17,7.72,7.72,0,0,1,4.91-3.85l-14.28-21.92-13.1,7.67ZM238.17,342l.9,1s-.45.32-1.23.92C238,343.22,238.07,342.59,238.17,342Z"/><path class="cls-24" d="M204.16,261.8s-32.56-31.54-28.68-69.71a4,4,0,0,1,2-2.85,4.11,4.11,0,0,1,3.49-.37c35.81,14.94,48.26,58.25,48.26,58.25L204.16,261.8Z"/><path class="cls-24" d="M216.72,254.45l-5.06,3a53.81,53.81,0,0,1-4.56-17.07l1.87.74Z"/><path class="cls-24" d="M204.16,261.8s-32.56-31.54-28.68-69.71a4,4,0,0,1,2-2.85s11.25,38.46,34.18,68.17l-7.5,4.39Z"/><path class="cls-24" d="M176.9,213.63c-.48-2.1-.86-4.23-1.15-6.41l18.55-10.86c1.8,1.29,3.51,2.65,5.15,4.06L176.9,213.63Zm-1.49-9.43a64.55,64.55,0,0,1,.07-12.11,4,4,0,0,1,2-2.85,4.11,4.11,0,0,1,3.49-.37,66.47,66.47,0,0,1,10.8,5.75l-16.36,9.58Z"/><path class="cls-24" d="M176.9,213.63c-.48-2.1-.86-4.23-1.15-6.41l6.63-3.88c.69,1.79,1.45,3.71,2.29,5.74l-7.77,4.55Zm.58-24.39s1.3,4.44,3.91,11.46l-6,3.5a64.55,64.55,0,0,1,.07-12.11A4,4,0,0,1,177.48,189.24Z"/><polygon class="cls-24" points="229.23 247.12 204.16 261.8 207.38 267.15 232.44 252.47 229.23 247.12"/><path class="cls-24" d="M211.66,257.41l-7.5,4.39,3.21,5.35,8.26-4.84,2.94-1.72c-1.12-1.73-2.23-3.49-3.31-5.29L212,257.19l-.37.22Z"/><path class="cls-24" d="M192,248.59c-.32.69-.69,1.37-1,2-.47.92-.92,1.85-1.32,2.81a21.63,21.63,0,0,0-1.76,7.61c-.31,8.62,5.43,15.75,11.75,21.1a1.06,1.06,0,0,0,1,.24,1,1,0,0,0,.75-.63l6.08-14.62-3.21-5.35A104.61,104.61,0,0,1,192.76,248a1,1,0,0,0-.81.6Z"/><path class="cls-24" d="M192,248.59c-.32.69-.69,1.37-1,2-.47.92-.92,1.85-1.32,2.81l0,.08a64.36,64.36,0,0,0,14.72,21.06l3.09-7.44-3.21-5.35A104.61,104.61,0,0,1,192.76,248a1,1,0,0,0-.81.6Z"/><path class="cls-24" d="M223.33,230.22c.77.05,1.55.06,2.32.08,1,0,2.09.09,3.13.2a22.63,22.63,0,0,1,7.62,2.12c7.81,3.87,11.41,12.26,13.13,20.3a1.05,1.05,0,0,1-1.16,1.29l-15.93-1.74-3.21-5.35a104.7,104.7,0,0,0-6.82-16.49,1,1,0,0,1,.92-.41Z"/><path class="cls-24" d="M207.58,239.31h0l0,0h0a1.1,1.1,0,0,1,1.45.38,202.35,202.35,0,0,1,16.21,27,1.09,1.09,0,0,1-.35,1.45h0l0,0h0a1.11,1.11,0,0,1-1.45-.39,201.92,201.92,0,0,1-16.21-27,1.07,1.07,0,0,1,.35-1.44Z"/><ellipse class="cls-24" cx="197.09" cy="221.85" rx="9.06" ry="9.28" transform="translate(-99.25 206.11) rotate(-45.34)"/><path class="cls-24" d="M188.6,218.16a9.18,9.18,0,0,0,.65,8.27,9.46,9.46,0,0,0,5.47,4.22C192.46,226.35,190.42,222.14,188.6,218.16Z"/><ellipse class="cls-24" cx="197.09" cy="221.85" rx="6.28" ry="6.43" transform="translate(-99.25 206.11) rotate(-45.34)"/><path class="cls-24" d="M191.31,219.07a6.34,6.34,0,0,0,.35,6,6.45,6.45,0,0,0,8.73,2.33,5.92,5.92,0,0,0,1.75-1.54,6.34,6.34,0,0,0-.35-5.95,6.43,6.43,0,0,0-8.73-2.32,6,6,0,0,0-1.75,1.53Z"/><path class="cls-24" d="M323.9,477.29H439.7s-10-74-38.73-48-9.3-43.37-54.07-50.39c-6.95-28.75-23.68-72.31-59-67.82-.08-.38-.15-.75-.23-1.12H266L323.9,477.29Z"/><ellipse class="cls-24" cx="295.17" cy="303.43" rx="3.32" ry="3.4" transform="translate(-128.13 300.12) rotate(-45.34)"/><path class="cls-24" d="M622.6,228.92s38.23-36,35.07-79.61a4.42,4.42,0,0,0-2.19-3.26,4.68,4.68,0,0,0-4-.42c-41.4,17.07-57,66.53-57,66.53l28.14,16.76Z"/><path class="cls-24" d="M608.5,220.52l5.68,3.38A62.49,62.49,0,0,0,620,204.41l-2.15.85Z"/><path class="cls-24" d="M622.6,228.92s38.23-36,35.07-79.61a4.42,4.42,0,0,0-2.19-3.26S641.36,190,614.18,223.9l8.42,5Z"/><path class="cls-24" d="M655.34,173.91c.6-2.4,1.12-4.84,1.52-7.32L636,154.19c-2.09,1.47-4.1,3-6,4.64Zm2-10.77a73.08,73.08,0,0,0,.33-13.83,4.42,4.42,0,0,0-2.19-3.26,4.68,4.68,0,0,0-4-.42A78.25,78.25,0,0,0,639,152.2Z"/><path class="cls-24" d="M655.34,173.91c.6-2.4,1.12-4.84,1.52-7.32l-7.45-4.44q-1.27,3.07-2.8,6.56Zm.14-27.86s-1.63,5.07-4.84,13.09l6.7,4a73.08,73.08,0,0,0,.33-13.83A4.42,4.42,0,0,0,655.48,146.05Z"/><polygon class="cls-24" points="594.46 212.16 622.6 228.92 618.75 235.03 590.61 218.27 594.46 212.16"/><path class="cls-24" d="M614.18,223.9l8.42,5L618.75,235l-9.27-5.52-3.3-2c1.34-2,2.66-4,4-6l3.63,2.16Z"/><path class="cls-24" d="M637,213.84c.34.79.74,1.56,1.11,2.33.51,1.06,1,2.12,1.42,3.21a24.45,24.45,0,0,1,1.76,8.69c.06,9.85-6.72,18-14.12,24.11a1.26,1.26,0,0,1-1.11.27,1.11,1.11,0,0,1-.83-.72L618.75,235l3.85-6.11a124.4,124.4,0,0,0,13.48-15.77,1.14,1.14,0,0,1,.91.69Z"/><path class="cls-24" d="M637,213.84c.34.79.74,1.56,1.11,2.33.51,1.06,1,2.12,1.42,3.21l0,.1A76.48,76.48,0,0,1,622,243.53l-3.29-8.5,3.85-6.11a124.4,124.4,0,0,0,13.48-15.77,1.14,1.14,0,0,1,.91.69Z"/><path class="cls-24" d="M601.75,192.86c-.88.06-1.77.06-2.65.09-1.19,0-2.38.1-3.58.23a26.37,26.37,0,0,0-8.77,2.42c-9,4.42-13.44,14-15.67,23.18a1.18,1.18,0,0,0,1.28,1.48l18.25-2,3.85-6.11a122.23,122.23,0,0,1,8.34-18.83,1.14,1.14,0,0,0-1-.47Z"/><path class="cls-24" d="M619.44,203.24h0l0,0,0,0h0a1.28,1.28,0,0,0-1.67.44,239.26,239.26,0,0,0-19.41,30.79,1.22,1.22,0,0,0,.36,1.65h0l0,0,0,0h0a1.29,1.29,0,0,0,1.67-.45,239.36,239.36,0,0,0,19.4-30.78A1.21,1.21,0,0,0,619.44,203.24Z"/><ellipse class="cls-24" cx="632.01" cy="183.29" rx="10.75" ry="10.2" transform="translate(51.35 492.93) rotate(-44.24)"/><path class="cls-24" d="M641.82,179.08a10.6,10.6,0,0,1-1,9.45,11.23,11.23,0,0,1-6.39,4.82c2.73-4.92,5.2-9.72,7.41-14.27Z"/><ellipse class="cls-24" cx="632.01" cy="183.29" rx="7.45" ry="7.06" transform="translate(51.36 492.94) rotate(-44.24)"/><path class="cls-24" d="M638.7,180.12a7.33,7.33,0,0,1-.6,6.8,7.49,7.49,0,0,1-10.05,2.66,6.62,6.62,0,0,1-1.95-1.76,7.29,7.29,0,0,1,.6-6.79,7.49,7.49,0,0,1,10-2.66A6.86,6.86,0,0,1,638.7,180.12Z"/><path class="cls-24" d="M617.5,237.29l-15.38,24.57s26.83,5.42,10.24,24.76-33.57,37.27-33.57,37.27,41.8,30.19,20.51,58,1.33,46.22,1.33,46.22l-13.45,49.16h-242s13.91-84.53,45.82-54.82,12.06-49.53,63.43-57.54c8.89-32.84,29.44-82.59,69.68-77.47C537.94,226.58,564,251.7,564,251.75h0l25.36-31.21,28.14,16.76Z"/><path class="cls-24" d="M495.13,477.29H345.2s13.91-84.53,45.82-54.82c27.06,25.19,16.91-27.91,44.49-49.56l.76-.58.77-.56.9-.62.68-.44.15-.09a5.27,5.27,0,0,1-.42-2.39,5.91,5.91,0,0,1,5.84-5.54,5.2,5.2,0,0,1,4.93,3.39l.67-.19.08,0c.72-.18,1.45-.36,2.2-.51h0q1.14-.24,2.34-.42c8.89-32.84,29.44-82.59,69.68-77.47-32.11.09-50.33,45.7-58.67,74.65,0,0,3.74,2.46.82,8.6,0,0,3.11-2.34,4.45-8.72,9.73.67,20.27,6.75,20.67,29.84.39,22.92-11.07,37.13-21.89,45.41a51.67,51.67,0,0,0-30.95.56c12.35-1.87,13.88,7.15,14.06,8.85-1.09.4-1.71.59-1.71.59s35.7-7.6,43.29,14.58c12.88-12.57,34.43-22.51,70.14-16.47,13,2.19,22.33,5.59,28.91,9.75l-6.07,22.19Z"/><path class="cls-24" d="M617.5,237.29l-15.38,24.57s26.83,5.42,10.24,24.76-33.57,37.27-33.57,37.27,41.8,30.19,20.51,58,1.33,46.22,1.33,46.22l-13.45,49.16H549c1.38-14.49,6.93-35.06,22-62.83,35.66-65.64-38.43-75.95-38.43-75.95l.74-.87c1.42-1.42,5.11-4,12.7-3.49a18,18,0,0,0-4.81-5.57c9.35-10.51,25.38-27.86,43.55-44.55,28.76-26.41-3.7-23.58-3.7-23.58s4.23-4.37,10.15-2.48a8.45,8.45,0,0,0-5.48-4.39l17-25,14.7,8.75ZM614,347a6.32,6.32,0,0,1,6.37,6.72,7.17,7.17,0,0,1-7.08,6.72,6.31,6.31,0,0,1-6.37-6.72A7.18,7.18,0,0,1,614,347Z"/><path class="cls-24" d="M621.35,231.18s38.23-36,35.07-79.61a4.4,4.4,0,0,0-2.19-3.25,4.7,4.7,0,0,0-4-.42c-41.39,17.06-57,66.52-57,66.52l28.14,16.76Z"/><path class="cls-24" d="M607.25,222.79l5.68,3.38a62.56,62.56,0,0,0,5.77-19.49l-2.15.85-9.3,15.26Z"/><path class="cls-24" d="M621.35,231.18s38.23-36,35.07-79.61a4.4,4.4,0,0,0-2.19-3.25s-14.13,43.93-41.3,77.85l8.42,5Z"/><path class="cls-24" d="M654.09,176.17c.6-2.39,1.12-4.83,1.52-7.32l-20.83-12.4q-3.13,2.22-6,4.64Zm2-10.77a73.92,73.92,0,0,0,.33-13.83,4.4,4.4,0,0,0-2.19-3.25,4.7,4.7,0,0,0-4-.42,78.53,78.53,0,0,0-12.52,6.56Z"/><path class="cls-24" d="M654.09,176.17c.6-2.39,1.12-4.83,1.52-7.32l-7.45-4.43c-.85,2-1.78,4.24-2.8,6.56Zm.14-27.85s-1.63,5.07-4.85,13.09l6.71,4a73.92,73.92,0,0,0,.33-13.83A4.4,4.4,0,0,0,654.23,148.32Z"/><polygon class="cls-24" points="593.21 214.43 621.35 231.19 617.5 237.29 589.36 220.53 593.21 214.43"/><path class="cls-24" d="M612.93,226.17l8.42,5-3.85,6.11-9.27-5.52-3.3-2c1.34-2,2.66-4,4-6.05l3.63,2.16Z"/><path class="cls-24" d="M635.73,216.1c.34.79.74,1.57,1.12,2.34.51,1.05,1,2.11,1.41,3.21a24.2,24.2,0,0,1,1.77,8.69c.06,9.85-6.73,18-14.12,24.1a1.27,1.27,0,0,1-1.11.28A1.16,1.16,0,0,1,624,254l-6.46-16.71,3.85-6.11a124.4,124.4,0,0,0,13.48-15.77,1.13,1.13,0,0,1,.9.69Z"/><path class="cls-24" d="M635.73,216.1c.35.79.74,1.57,1.12,2.34.51,1.05,1,2.11,1.41,3.21l0,.1a76.46,76.46,0,0,1-17.51,24l-3.29-8.5,3.85-6.11a124.4,124.4,0,0,0,13.48-15.77,1.13,1.13,0,0,1,.9.69Z"/><path class="cls-24" d="M600.5,195.12c-.88.06-1.77.07-2.65.1-1.19,0-2.39.1-3.58.23a25.9,25.9,0,0,0-8.77,2.42c-9,4.42-13.44,14-15.68,23.17a1.18,1.18,0,0,0,.26,1.09,1.13,1.13,0,0,0,1,.39l18.25-2,3.85-6.11a122.23,122.23,0,0,1,8.34-18.83,1.17,1.17,0,0,0-1-.47Z"/><path class="cls-24" d="M618.19,205.5h0l0,0h0a1.29,1.29,0,0,0-1.68.44,240.16,240.16,0,0,0-19.4,30.78,1.22,1.22,0,0,0,.35,1.65h0l0,0,0,0h0a1.31,1.31,0,0,0,1.68-.44,240.59,240.59,0,0,0,19.4-30.79,1.21,1.21,0,0,0-.35-1.65Z"/><ellipse class="cls-24" cx="630.76" cy="185.56" rx="10.75" ry="10.2" transform="translate(49.42 492.7) rotate(-44.24)"/><path class="cls-24" d="M640.56,181.34a10.59,10.59,0,0,1-1,9.46,11.28,11.28,0,0,1-6.39,4.81c2.73-4.91,5.2-9.72,7.4-14.27Z"/><ellipse class="cls-24" cx="630.76" cy="185.56" rx="7.45" ry="7.06" transform="translate(49.42 492.7) rotate(-44.24)"/><path class="cls-24" d="M637.45,182.39a7.31,7.31,0,0,1-.61,6.8,7.48,7.48,0,0,1-10,2.65,6.59,6.59,0,0,1-1.95-1.75,7.28,7.28,0,0,1,.6-6.8,7.48,7.48,0,0,1,10-2.65A6.7,6.7,0,0,1,637.45,182.39Z"/><ellipse class="cls-24" cx="532.49" cy="233.91" rx="3.75" ry="3.56" transform="translate(-12.19 437.85) rotate(-44.24)"/><path class="cls-25" d="M208.32,259.82s-31.8-31.54-27-69.72a4.33,4.33,0,0,1,5.57-3.21c35.45,14.94,46.86,58.25,46.86,58.25l-25.41,14.68Z"/><path class="cls-25" d="M221.05,252.46l-5.13,3a52.89,52.89,0,0,1-4.15-17.07l1.85.75Z"/><path class="cls-25" d="M208.32,259.82s-31.8-31.54-27-69.72a4.12,4.12,0,0,1,2.07-2.84s10.33,38.46,32.55,68.16l-7.6,4.4Z"/><path class="cls-25" d="M182.2,211.65q-.63-3.15-1-6.41L200,194.38c1.77,1.29,3.45,2.65,5,4.06ZM181,202.21a65,65,0,0,1,.35-12.11,4.33,4.33,0,0,1,5.57-3.21,63.51,63.51,0,0,1,10.66,5.75L181,202.21Z"/><path class="cls-25" d="M182.2,211.65q-.63-3.15-1-6.41l6.73-3.89c.64,1.79,1.36,3.72,2.15,5.75l-7.89,4.55Zm1.17-24.39s1.19,4.43,3.64,11.46L181,202.21a65,65,0,0,1,.35-12.11A4.12,4.12,0,0,1,183.37,187.26Z"/><rect class="cls-25" x="207.89" y="252.06" width="29.35" height="6.18" transform="translate(-97.76 145.47) rotate(-30)"/><path class="cls-25" d="M215.92,255.42l-7.6,4.4,3.08,5.34,8.38-4.83,3-1.72c-1.08-1.73-2.15-3.5-3.19-5.29l-3.28,1.89Z"/><path class="cls-25" d="M196.42,246.61c-.33.69-.72,1.37-1.08,2-.5.92-1,1.85-1.39,2.8a22.09,22.09,0,0,0-1.95,7.61c-.51,8.63,5.05,15.76,11.25,21.11a1.08,1.08,0,0,0,1,.24,1.06,1.06,0,0,0,.76-.63l6.43-14.63-3.08-5.34A101.26,101.26,0,0,1,197.25,246a1.08,1.08,0,0,0-.83.61Z"/><path class="cls-25" d="M196.42,246.61c-.33.69-.72,1.37-1.08,2-.5.92-1,1.85-1.39,2.8l0,.09a62.39,62.39,0,0,0,14.22,21.06l3.27-7.45-3.08-5.34A101.26,101.26,0,0,1,197.25,246a1.08,1.08,0,0,0-.83.61Z"/><path class="cls-25" d="M228.25,228.24c.76,0,1.54.06,2.31.08,1,0,2.09.09,3.13.2a22.11,22.11,0,0,1,7.56,2.12c7.72,3.87,11.12,12.26,12.65,20.29a1,1,0,0,1-.27.95,1,1,0,0,1-.92.35l-15.89-1.74-3.09-5.35a101.19,101.19,0,0,0-6.42-16.49,1,1,0,0,1,.94-.41Z"/><path class="cls-25" d="M212.28,237.33h0l0,0h0a1.09,1.09,0,0,1,1.45.38,196,196,0,0,1,15.56,27,1.08,1.08,0,0,1-.39,1.44h0l0,0,0,0h0a1.1,1.1,0,0,1-1.45-.39,196.67,196.67,0,0,1-15.56-27,1.08,1.08,0,0,1,.39-1.44Z"/><circle class="cls-25" cx="202.2" cy="219.86" r="9.17"/><path class="cls-25" d="M193.8,216.17a9.19,9.19,0,0,0,5.83,12.5c-2.17-4.3-4.11-8.51-5.83-12.5Z"/><circle class="cls-25" cx="202.2" cy="219.86" r="6.35"/><path class="cls-25" d="M196.49,217.09a6.33,6.33,0,1,0,1.78-1.54,6.47,6.47,0,0,0-1.78,1.54Z"/><path class="cls-25" d="M212.4,267.15l12.33,21.51s-23.75,4.75-10.12,21.68S242.28,343,242.28,343s-38,26.43-20.65,50.8-3.31,40.48-3.31,40.48l9.5,43H439.7s-8.26-74-37.58-48-8.26-43.37-52.87-50.39c-6.26-28.75-21.95-72.31-57.42-67.82-6-34.66-18.26-37.49-26.08-35.22-2.72-10.76-11-8.67-15.29-6.74l-12.65-16.65L212.4,267.15Z"/><path class="cls-26" d="M313.57,315a35.23,35.23,0,0,0-21.74-3.91c-6-34.66-18.26-37.49-26.08-35.21,0,0,15.59,1.55,11.58,40.23s34.43,45.28,34.43,26.42c0-8,1-17.91,1.81-27.53Z"/><path class="cls-26" d="M212.4,267.15l12.33,21.51s-23.75,4.75-10.12,21.68c1.17,1.46,2.35,2.91,3.52,4.34-8.62,2.68-35.82,14.95-14.74,59.33,6,12.62,11.36,16.9,16.08,16.16a26.38,26.38,0,0,0,2.16,3.6c17.34,24.37-3.31,40.48-3.31,40.48l9.5,43h33.4c-.53-12.69-4.44-30.7-16.36-55C216.68,364.8,282,355.78,282,355.78l-.6-.77c-1.18-1.24-4.29-3.51-11-3.06a17.06,17.06,0,0,1,4.47-4.87,515.59,515.59,0,0,0-36.07-39c-24-23.13,4.34-20.65,4.34-20.65a8.77,8.77,0,0,0-8.78-2.17,8,8,0,0,1,5-3.85l-13.75-21.92-13.28,7.67Zm29,74.84.88,1s-.46.32-1.26.92C241.16,343.22,241.29,342.59,241.4,342Z"/><path class="cls-25" d="M209.31,261.8s-31.8-31.54-27-69.71a4.33,4.33,0,0,1,5.57-3.22c35.45,14.94,46.87,58.25,46.87,58.25L209.31,261.8Z"/><path class="cls-26" d="M222,254.45l-5.12,3a52.8,52.8,0,0,1-4.16-17.07l1.85.74Z"/><path class="cls-26" d="M209.31,261.8s-31.8-31.54-27-69.71a4.13,4.13,0,0,1,2.07-2.85s10.33,38.46,32.56,68.17l-7.61,4.39Z"/><path class="cls-27" d="M183.19,213.63c-.42-2.1-.75-4.23-1-6.41L201,196.36c1.77,1.29,3.45,2.65,5.06,4.06l-22.88,13.21Zm-1.25-9.43a65,65,0,0,1,.35-12.11,4.33,4.33,0,0,1,5.57-3.22,64.24,64.24,0,0,1,10.66,5.75l-16.58,9.58Z"/><path class="cls-28" d="M183.19,213.63c-.42-2.1-.75-4.23-1-6.41l6.73-3.88c.65,1.79,1.36,3.71,2.15,5.74l-7.89,4.55Zm1.17-24.39s1.19,4.44,3.64,11.46l-6.06,3.5a65,65,0,0,1,.35-12.11A4.13,4.13,0,0,1,184.36,189.24Z"/><rect class="cls-29" x="208.88" y="254.05" width="29.35" height="6.18" transform="translate(-98.62 146.23) rotate(-30)"/><path class="cls-30" d="M216.92,257.41l-7.61,4.39,3.09,5.35,8.37-4.84,3-1.72q-1.62-2.59-3.19-5.29l-3.28,1.89-.36.22Z"/><path class="cls-27" d="M197.41,248.59c-.33.69-.72,1.37-1.08,2-.49.92-1,1.85-1.39,2.81a22.09,22.09,0,0,0-1.95,7.61c-.51,8.62,5.06,15.75,11.25,21.1a1.09,1.09,0,0,0,1.72-.39l6.44-14.62-3.09-5.35A100.71,100.71,0,0,1,198.24,248a1.08,1.08,0,0,0-.83.6Z"/><path class="cls-28" d="M197.41,248.59c-.33.69-.72,1.37-1.08,2-.49.92-1,1.85-1.39,2.81l0,.08a62.39,62.39,0,0,0,14.22,21.06l3.28-7.44-3.09-5.35A100.71,100.71,0,0,1,198.24,248a1.08,1.08,0,0,0-.83.6Z"/><path class="cls-27" d="M229.24,230.22c.76.05,1.54.06,2.31.08,1,0,2.09.09,3.13.2a22.11,22.11,0,0,1,7.56,2.12c7.72,3.87,11.12,12.26,12.65,20.3a1,1,0,0,1-.27,1,1.06,1.06,0,0,1-.92.34l-15.89-1.74-3.08-5.35a101.91,101.91,0,0,0-6.43-16.49,1.06,1.06,0,0,1,.94-.41Z"/><path class="cls-27" d="M213.27,239.31h0l0,0h0a1.1,1.1,0,0,1,1.45.38,196,196,0,0,1,15.56,27,1.09,1.09,0,0,1-.39,1.45h0l0,0h0a1.09,1.09,0,0,1-1.44-.39,195.68,195.68,0,0,1-15.57-27A1.09,1.09,0,0,1,213.27,239.31Z"/><circle class="cls-29" cx="203.19" cy="221.85" r="9.17"/><path class="cls-30" d="M194.8,218.16a9.17,9.17,0,0,0,5.82,12.49C198.46,226.35,196.52,222.14,194.8,218.16Z"/><circle class="cls-24" cx="203.19" cy="221.85" r="6.35"/><path class="cls-31" d="M197.48,219.07a6.35,6.35,0,0,0,8.88,8.28,6.22,6.22,0,0,0,1.79-1.54,6.35,6.35,0,0,0-8.89-8.27,6.44,6.44,0,0,0-1.78,1.53Z"/><path class="cls-26" d="M323.9,477.29H439.7s-8.26-74-37.58-48-8.26-43.37-52.87-50.39c-6.26-28.75-21.95-72.31-57.42-67.82-.07-.38-.13-.75-.2-1.12H270L323.9,477.29Z"/><circle class="cls-25" cx="299.32" cy="303.43" r="3.36"/><circle class="cls-25" cx="299.38" cy="285.09" r="2"/><circle class="cls-25" cx="215.66" cy="285.8" r="2.48"/><circle class="cls-25" cx="255.87" cy="260.21" r="1.42"/><path class="cls-25" d="M609.45,228.92s36.32-36,30.86-79.61a4.95,4.95,0,0,0-6.36-3.68c-40.49,17.07-53.53,66.53-53.53,66.53l29,16.76Z"/><path class="cls-25" d="M594.91,220.52l5.86,3.38a60.44,60.44,0,0,0,4.74-19.49l-2.11.85Z"/><path class="cls-25" d="M609.45,228.92s36.32-36,30.86-79.61a4.76,4.76,0,0,0-2.37-3.26S626.15,190,600.77,223.9l8.68,5Z"/><path class="cls-25" d="M639.28,173.91q.72-3.6,1.13-7.32l-21.48-12.4q-3,2.2-5.77,4.64l26.12,15.08Zm1.43-10.77a73.2,73.2,0,0,0-.4-13.83,4.95,4.95,0,0,0-6.36-3.68,73.43,73.43,0,0,0-12.18,6.57Z"/><path class="cls-25" d="M639.28,173.91q.72-3.6,1.13-7.32l-7.68-4.44q-1.11,3.07-2.46,6.56l9,5.2Zm-1.34-27.86s-1.36,5.07-4.15,13.09l6.92,4a73.2,73.2,0,0,0-.4-13.83A4.76,4.76,0,0,0,637.94,146.05Z"/><rect class="cls-25" x="589.65" y="206.83" width="7.05" height="33.52" transform="translate(102.95 625.5) rotate(-60)"/><path class="cls-25" d="M600.77,223.9l8.68,5L605.93,235l-9.57-5.52-3.4-2c1.24-2,2.45-4,3.64-6l3.74,2.16.43.24Z"/><path class="cls-25" d="M623,213.84c.38.79.82,1.56,1.24,2.33.56,1.06,1.1,2.12,1.58,3.21a25,25,0,0,1,2.23,8.69c.58,9.85-5.77,18-12.85,24.11a1.2,1.2,0,0,1-1.09.27,1.23,1.23,0,0,1-.88-.72L605.93,235l3.52-6.11a114.7,114.7,0,0,0,12.64-15.77,1.22,1.22,0,0,1,.95.69Z"/><path class="cls-25" d="M623,213.84c.38.79.82,1.56,1.24,2.33.56,1.06,1.1,2.12,1.58,3.21l0,.1a71.22,71.22,0,0,1-16.25,24.05l-3.73-8.5,3.52-6.11a114.7,114.7,0,0,0,12.64-15.77,1.22,1.22,0,0,1,.95.69Z"/><path class="cls-25" d="M586.69,192.86c-.87.06-1.76.06-2.64.09-1.19,0-2.38.1-3.57.23a25.28,25.28,0,0,0-8.64,2.42c-8.82,4.42-12.7,14-14.45,23.18a1.2,1.2,0,0,0,.31,1.08,1.24,1.24,0,0,0,1.06.4l18.14-2,3.52-6.11a116.75,116.75,0,0,1,7.34-18.83,1.18,1.18,0,0,0-1.07-.47Z"/><path class="cls-25" d="M604.93,203.24h0l0,0,0,0h0a1.24,1.24,0,0,0-1.65.44,224,224,0,0,0-17.78,30.79,1.25,1.25,0,0,0,.45,1.65h0l0,0,0,0h0a1.25,1.25,0,0,0,1.65-.45,224.17,224.17,0,0,0,17.77-30.78A1.25,1.25,0,0,0,604.93,203.24Z"/><circle class="cls-25" cx="616.44" cy="183.29" r="10.47"/><path class="cls-25" d="M626,179.08a10.48,10.48,0,0,1-6.65,14.27c2.47-4.92,4.68-9.72,6.65-14.27Z"/><circle class="cls-25" cx="616.44" cy="183.29" r="7.25"/><path class="cls-25" d="M623,180.12a7.27,7.27,0,1,1-2.05-1.75,7.43,7.43,0,0,1,2.05,1.75Z"/><path class="cls-25" d="M604.79,237.29l-14.08,24.57s27.13,5.42,11.56,24.76-31.6,37.27-31.6,37.27,43.39,30.19,23.58,58S598,428.13,598,428.13l-10.84,49.16h-242s9.43-84.53,42.92-54.82,9.43-49.53,60.38-57.54c7.15-32.84,25.07-82.59,65.58-77.47,10.59-60.88,37.92-35.76,38-35.71h0l23.71-31.21,29,16.76Z"/><path class="cls-26" d="M495.13,477.29H345.2s9.43-84.53,42.92-54.82c28.39,25.19,15.43-27.91,41.86-49.56l.73-.58c.24-.19.49-.37.75-.56l.86-.62.65-.44.15-.09a5.48,5.48,0,0,1-.54-2.39,5.54,5.54,0,0,1,10.65-2.15l.66-.19.08,0c.71-.18,1.43-.36,2.17-.51h.05q1.13-.24,2.31-.42c7.15-32.84,25.07-82.59,65.58-77.47-32.11.09-47.91,45.7-54.71,74.65,0,0,3.87,2.46,1.27,8.6,0,0,3-2.34,4-8.72,9.76.67,20.63,6.75,22.24,29.84,1.6,22.92-9.1,37.13-19.48,45.41-17.46-4.95-30.92.56-30.92.56,12.25-1.87,14.26,7.15,14.52,8.85-1.06.4-1.67.59-1.67.59s35.3-7.6,44.06,14.58c12.21-12.57,33.24-22.51,69.27-16.47,13.08,2.19,22.63,5.59,29.42,9.75l-4.89,22.19Z"/><path class="cls-26" d="M604.79,237.29l-14.08,24.57s27.13,5.42,11.56,24.76-31.6,37.27-31.6,37.27,43.39,30.19,23.58,58S598,428.13,598,428.13l-10.84,49.16H549c.61-14.49,5.07-35.06,18.69-62.83,32.18-65.64-42.45-75.95-42.45-75.95l.68-.87c1.35-1.42,4.9-4,12.52-3.49a19.43,19.43,0,0,0-5.1-5.57A590.5,590.5,0,0,1,574.56,284c27.36-26.41-4.95-23.58-4.95-23.58a10,10,0,0,1,10-2.48,9.1,9.1,0,0,0-5.71-4.39l15.71-25,15.16,8.75ZM607.1,347a6.72,6.72,0,1,1-6.72,6.72A6.72,6.72,0,0,1,607.1,347Z"/><path class="cls-25" d="M608.32,231.18s36.32-36,30.85-79.61a4.93,4.93,0,0,0-6.35-3.67c-40.49,17.06-53.53,66.52-53.53,66.52l29,16.76Z"/><path class="cls-26" d="M593.78,222.79l5.85,3.38a60.19,60.19,0,0,0,4.74-19.49l-2.11.85-8.48,15.26Z"/><path class="cls-26" d="M608.32,231.18s36.32-36,30.85-79.61a4.7,4.7,0,0,0-2.36-3.25s-11.8,43.93-37.18,77.85l8.69,5Z"/><path class="cls-27" d="M638.14,176.17c.48-2.39.87-4.83,1.14-7.32l-21.48-12.4c-2,1.48-3.94,3-5.78,4.64l26.12,15.08Zm1.44-10.77a74.06,74.06,0,0,0-.41-13.83,4.93,4.93,0,0,0-6.35-3.67,73.39,73.39,0,0,0-12.18,6.56l18.94,10.94Z"/><path class="cls-28" d="M638.14,176.17c.48-2.39.87-4.83,1.14-7.32l-7.69-4.43c-.73,2-1.55,4.24-2.45,6.56l9,5.19Zm-1.33-27.85s-1.36,5.07-4.15,13.09l6.92,4a74.06,74.06,0,0,0-.41-13.83A4.7,4.7,0,0,0,636.81,148.32Z"/><rect class="cls-29" x="588.52" y="209.1" width="7.05" height="33.52" transform="translate(100.42 625.66) rotate(-60)"/><path class="cls-30" d="M599.63,226.17l8.69,5-3.53,6.11-9.56-5.52-3.4-2c1.23-2,2.45-4,3.64-6.05l3.74,2.16.42.25Z"/><path class="cls-27" d="M621.91,216.1c.38.79.82,1.57,1.23,2.34.57,1.05,1.11,2.11,1.59,3.21a24.94,24.94,0,0,1,2.22,8.69c.59,9.85-5.77,18-12.84,24.1a1.23,1.23,0,0,1-1.1.28,1.24,1.24,0,0,1-.87-.72l-7.35-16.71,3.53-6.11A115.61,115.61,0,0,0,621,215.41a1.24,1.24,0,0,1,.95.69Z"/><path class="cls-28" d="M621.91,216.1c.38.79.82,1.57,1.23,2.34.57,1.05,1.11,2.11,1.59,3.21l0,.1a71,71,0,0,1-16.24,24l-3.74-8.5,3.53-6.11A115.61,115.61,0,0,0,621,215.41a1.24,1.24,0,0,1,.95.69Z"/><path class="cls-27" d="M585.56,195.12c-.87.06-1.76.07-2.64.1-1.19,0-2.38.1-3.57.23a24.78,24.78,0,0,0-8.64,2.42c-8.82,4.42-12.7,14-14.45,23.17a1.25,1.25,0,0,0,1.37,1.48l18.14-2,3.52-6.11a115.59,115.59,0,0,1,7.34-18.83,1.22,1.22,0,0,0-1.07-.47Z"/><path class="cls-27" d="M603.8,205.5h0l0,0h0a1.23,1.23,0,0,0-1.65.44,223.94,223.94,0,0,0-17.78,30.78,1.26,1.26,0,0,0,.44,1.65h0l0,0,0,0h0a1.25,1.25,0,0,0,1.64-.44,223.3,223.3,0,0,0,17.78-30.79,1.25,1.25,0,0,0-.44-1.65Z"/><circle class="cls-29" cx="615.31" cy="185.56" r="10.47"/><path class="cls-30" d="M624.9,181.34a10.47,10.47,0,0,1-6.65,14.27c2.47-4.91,4.68-9.72,6.65-14.27Z"/><circle class="cls-24" cx="615.31" cy="185.56" r="7.25"/><path class="cls-31" d="M621.83,182.39a7.25,7.25,0,0,1-10.15,9.45,7.36,7.36,0,0,1-2-1.75,7.25,7.25,0,0,1,10.15-9.45A7.07,7.07,0,0,1,621.83,182.39Z"/><circle class="cls-25" cx="519.6" cy="233.91" r="3.66"/><circle class="cls-25" cx="614.06" cy="303.37" r="2.36"/><circle class="cls-25" cx="443.07" cy="359.15" r="1.3"/><circle class="cls-25" cx="427.62" cy="368.7" r="2.81"/><circle class="cls-25" cx="368.66" cy="404.9" r="3.89"/><ellipse class="cls-25" cx="386.23" cy="413.04" rx="2.83" ry="3.07"/><circle class="cls-25" cx="505.33" cy="273.89" r="4.25"/><circle class="cls-25" cx="508.16" cy="262.1" r="2.36"/><circle class="cls-25" cx="601.56" cy="257.62" r="3.3"/><circle class="cls-25" cx="582.45" cy="322.95" r="2.36"/><circle class="cls-25" cx="333.21" cy="250.31" r="8.7"/><circle class="cls-25" cx="333.21" cy="250.31" r="6.99"/><path class="cls-25" d="M338.73,246a7,7,0,1,1-5-2.11A7,7,0,0,1,338.73,246Z"/><path class="cls-25" d="M330.19,251.77l1.22-.19a1.71,1.71,0,0,0,.57,1.12,1.63,1.63,0,0,0,.74.34V250.7a9.74,9.74,0,0,1-1.26-.43,1.79,1.79,0,0,1-1.06-1.67,1.87,1.87,0,0,1,.22-.9,1.93,1.93,0,0,1,.61-.69,2.58,2.58,0,0,1,.78-.36,4.23,4.23,0,0,1,.71-.13v-.78h1v.8a3.91,3.91,0,0,1,.88.21,2.05,2.05,0,0,1,.95.67,2.64,2.64,0,0,1,.43,1.14l-1.21.17a1.32,1.32,0,0,0-.47-.89,1.35,1.35,0,0,0-.58-.27v2.07c.66.19,1.14.34,1.43.46a1.88,1.88,0,0,1,.81.65,1.77,1.77,0,0,1,.3,1.06,2,2,0,0,1-.36,1.15,2.32,2.32,0,0,1-1,.85,3.81,3.81,0,0,1-1.14.28v.78h-1v-.79a3.09,3.09,0,0,1-1.58-.56,2.72,2.72,0,0,1-.95-1.75Zm3.51,1.3a1.57,1.57,0,0,0,.86-.32,1,1,0,0,0,.42-.82.76.76,0,0,0-.37-.65,4.12,4.12,0,0,0-.91-.33v2.12Zm-1-5.53a1.52,1.52,0,0,0-.77.26.83.83,0,0,0-.36.66.68.68,0,0,0,.15.43,1.16,1.16,0,0,0,.47.33l.51.15Z"/><circle class="cls-25" cx="483.4" cy="193.16" r="7.31"/><circle class="cls-25" cx="483.4" cy="193.16" r="5.87"/><path class="cls-25" d="M488.81,190.87A5.87,5.87,0,0,1,478.29,196a5.87,5.87,0,0,1,10.52-5.17Z"/><path class="cls-25" d="M480.63,193.7l1,.1a1.48,1.48,0,0,0,.22,1,1.54,1.54,0,0,0,.53.44l.51-1.91a7,7,0,0,1-.93-.62,1.6,1.6,0,0,1,.52-2.69,2.22,2.22,0,0,1,.71-.12,2.56,2.56,0,0,1,.61.05l.17-.63.79.21-.17.65a3,3,0,0,1,.66.36,1.67,1.67,0,0,1,.63.75,2.13,2.13,0,0,1,.1,1l-1-.12a1.12,1.12,0,0,0-.19-.83,1.08,1.08,0,0,0-.41-.34l-.45,1.68a9,9,0,0,1,1.06.69,1.54,1.54,0,0,1,.52.7,1.51,1.51,0,0,1,0,.92,1.75,1.75,0,0,1-.54.86,2.07,2.07,0,0,1-1,.46,3,3,0,0,1-1,0l-.17.63-.79-.21.17-.64a2.56,2.56,0,0,1-1.17-.8,2.27,2.27,0,0,1-.39-1.62Zm2.57,1.81a1.36,1.36,0,0,0,.77-.07.89.89,0,0,0,.51-.57.63.63,0,0,0-.16-.62,3.46,3.46,0,0,0-.66-.46Zm.41-4.7a1.21,1.21,0,0,0-.68.05.68.68,0,0,0-.44.45.55.55,0,0,0,0,.38.81.81,0,0,0,.31.37l.38.24.4-1.49Z"/><circle class="cls-25" cx="516.67" cy="383.19" r="10.8"/><circle class="cls-25" cx="516.67" cy="383.19" r="8.68"/><path class="cls-25" d="M517.74,374.58a8.68,8.68,0,1,1-6.24,2.54,8.67,8.67,0,0,1,6.24-2.54Z"/><path class="cls-25" d="M515.3,387.14l.9-1.25a2.12,2.12,0,0,0,1.5.49,2,2,0,0,0,.94-.36l-2-2a10.69,10.69,0,0,1-1.49.73,2.33,2.33,0,0,1-3-1.51,2.59,2.59,0,0,1-.07-1.14,3.1,3.1,0,0,1,.37-1,4.52,4.52,0,0,1,.51-.75l-.68-.68.86-.86.7.71a4.24,4.24,0,0,1,1-.59,2.56,2.56,0,0,1,1.43-.25,3.24,3.24,0,0,1,1.37.62l-.91,1.21a1.61,1.61,0,0,0-1.2-.36,1.59,1.59,0,0,0-.74.27l1.82,1.81a17.2,17.2,0,0,1,1.66-.84,2.29,2.29,0,0,1,1.28-.15,2.22,2.22,0,0,1,1.19.67,2.56,2.56,0,0,1,.7,1.33,2.89,2.89,0,0,1-.18,1.65,4.52,4.52,0,0,1-.75,1.25l.68.68-.85.86-.7-.7a3.76,3.76,0,0,1-1.88.91,3.45,3.45,0,0,1-2.37-.7Zm4.23-1.95a2,2,0,0,0,.47-1,1.28,1.28,0,0,0-.35-1.07.91.91,0,0,0-.9-.25,4.54,4.54,0,0,0-1.08.51l1.86,1.85Zm-5.71-4a1.81,1.81,0,0,0-.45.9,1,1,0,0,0,.26.9.88.88,0,0,0,.51.25,1.46,1.46,0,0,0,.7-.13l.59-.31-1.61-1.61Z"/><circle class="cls-25" cx="613" cy="305.16" r="7.31"/><circle class="cls-25" cx="613" cy="305.16" r="5.87"/><path class="cls-25" d="M613.72,299.33a5.8,5.8,0,0,1,3.43,1.67,5.14,5.14,0,1,1-3.43-1.67Z"/><path class="cls-25" d="M612.07,307.83l.61-.85a1.44,1.44,0,0,0,1,.33,1.36,1.36,0,0,0,.64-.24l-1.39-1.39a6.66,6.66,0,0,1-1,.49,1.49,1.49,0,0,1-.88.06,1.44,1.44,0,0,1-.74-.41,1.62,1.62,0,0,1-.41-.67,1.82,1.82,0,0,1,0-.77,2.45,2.45,0,0,1,.26-.68,3.16,3.16,0,0,1,.34-.5l-.46-.46.58-.58.48.47a2.89,2.89,0,0,1,.64-.39,1.69,1.69,0,0,1,1-.17,2,2,0,0,1,.92.42l-.61.81a1.14,1.14,0,0,0-.81-.24,1.21,1.21,0,0,0-.5.18l1.23,1.23a10.83,10.83,0,0,1,1.12-.57,1.54,1.54,0,0,1,.87-.1,1.52,1.52,0,0,1,.8.45,1.7,1.7,0,0,1,.47.9,1.91,1.91,0,0,1-.11,1.12,3,3,0,0,1-.51.84l.46.47-.58.58-.47-.47a2.59,2.59,0,0,1-1.28.61,2.35,2.35,0,0,1-1.6-.47Zm2.86-1.32a1.32,1.32,0,0,0,.32-.71.83.83,0,0,0-.24-.72.62.62,0,0,0-.61-.17,3.32,3.32,0,0,0-.72.34Zm-3.86-2.71a1.38,1.38,0,0,0-.31.62.69.69,0,0,0,.18.6.56.56,0,0,0,.35.17.87.87,0,0,0,.47-.09,2.67,2.67,0,0,0,.4-.21l-1.09-1.09Z"/><circle class="cls-25" cx="331.82" cy="334.31" r="7.31"/><circle class="cls-25" cx="331.82" cy="334.31" r="5.87"/><path class="cls-25" d="M335.36,329.63a5.87,5.87,0,0,1-6.53,9.73,5.87,5.87,0,0,1,6.53-9.73Z"/><path class="cls-25" d="M329.69,336.16l.94-.42a1.44,1.44,0,0,0,.71.78,1.5,1.5,0,0,0,.68.12l-.51-1.91a6.18,6.18,0,0,1-1.12-.07,1.52,1.52,0,0,1-.79-.39,1.47,1.47,0,0,1-.43-.73,1.59,1.59,0,0,1,0-.78,1.86,1.86,0,0,1,.34-.69,2.5,2.5,0,0,1,.56-.46,3.1,3.1,0,0,1,.55-.26l-.17-.63.8-.21.17.64a3.24,3.24,0,0,1,.76,0,1.69,1.69,0,0,1,.92.33,2.27,2.27,0,0,1,.59.83l-.94.4a1.11,1.11,0,0,0-.58-.62,1.14,1.14,0,0,0-.53-.09l.45,1.68a11.33,11.33,0,0,1,1.26.06,1.58,1.58,0,0,1,.8.35,1.53,1.53,0,0,1,.47.79,1.7,1.7,0,0,1,0,1,1.86,1.86,0,0,1-.66.91,2.75,2.75,0,0,1-.86.47l.17.64-.79.21-.18-.64a2.58,2.58,0,0,1-1.41-.11,2.31,2.31,0,0,1-1.15-1.21Zm3.13.29a1.42,1.42,0,0,0,.63-.45.91.91,0,0,0,.16-.75.62.62,0,0,0-.45-.45,3.2,3.2,0,0,0-.8-.07l.46,1.72Zm-2-4.27a1.41,1.41,0,0,0-.57.37.72.72,0,0,0-.15.61.6.6,0,0,0,.22.32.92.92,0,0,0,.45.17h.45l-.4-1.48Z"/><path class="cls-32" d="M168.05,477.29c12.87,13.81,30.84,26.59,55.75,36.85,120.28,49.53,273.82-58.73,348.82-29.72,17.32,6.7,37.51,3.46,56.79-7.13Z"/><g class="cls-33"><path class="cls-34" d="M441,499.75q7.25-2.06,14.33-4V492H441v7.71Z"/></g><g class="cls-35"><path class="cls-32" d="M402.16,510.48c8.2-2.16,16.33-4.4,24.34-6.65-.13-3.64-1.64-8.52-8.68-9.06C409.71,494.14,404.36,501.77,402.16,510.48Z"/></g><g class="cls-35"><path class="cls-34" d="M402.16,510.48c8.2-2.16,16.33-4.4,24.34-6.65-.13-3.64-1.64-8.52-8.68-9.06C409.71,494.14,404.36,501.77,402.16,510.48Z"/></g><g class="cls-36"><path class="cls-34" d="M365,519.32q7.92-1.64,15.8-3.49V493.66H365Z"/></g><g class="cls-37"><path class="cls-34" d="M178.8,487.53c11.64,9.87,26.38,18.94,45,26.61,42.76,17.6,89.71,15.27,135.85,6.25v-33H343.88l-51.57,0-113.51.1Z"/></g><path class="cls-38" d="M403.32,152.59s.65-14,12.18-14.31,8.85,8.45,8.85,8.45a7.84,7.84,0,0,1,9.26.93c4.59,4,2,7.8,2,7.8s3.82-.55,2.77,3-2.94,12-2.94,12,1.71-1.8,3.09-1.45,5,10.68-3,12.21c0,0-1.49,6.53-4.6,8.6a27.53,27.53,0,0,0-.41,9.87l21.13,4.71s13.07,8.78-5.78,32.17c0,0-1,12.19.14,14.73,0,0,8.37-.93,12.72-3.32,0,0,6.7-8.33,9.35-3.69l3.36.37a15.79,15.79,0,0,1-2.19,19.16s-7.12-.57-7.27-2.28c0,0-9.59,6.68-13.74,7.86,0,0,2.37,11.6,8.1,18.95,0,0,19.1-8.76,25.08,6.06s-.16,63.38-8.61,81.75c0,0-.09,8.11,7.71,14.39s3.48,13.11,1,16.12a53.93,53.93,0,0,1-27.73-18.82s5.32-9.95,5.65-14.08l-1.5-.12a56.2,56.2,0,0,0,3.34-25.2c-1.57-13.33-6.94-17-1.92-32.6a58.53,58.53,0,0,1-42.84,12s-1.29,25.55-5.82,37.27a38.42,38.42,0,0,0-.81,22c3.22,11.58,2.13,25.17.32,33.7s3.07,41.75,3.07,41.75l12.82,18.95s3.08,12.23-8.31,13.11-17.33-14.5-16.76-26.34l-3.44-.56S383,426.64,384.55,388.27c0,0-12.1-37.37-5.3-77.58,0,0-14.76-1.75-23.87-20,0,0,19-30.17,18.45-60.78,0,0-12-38.5-8.2-67.25a20.83,20.83,0,0,1-1.33-14.07c2-8.14,7.59-33.54,24.85-55.93l12.61,16.86s-9.54,13.2-12.31,26.56-.25,19.6-5.21,25.05c0,0,2.63,35.49,11.36,46.56l13.32-7.33s.89-2.75,0-8.67c0,0-4.82-3.41-5.87-8,0,0-2.63,1-4.27-.81s-6.26-11.35-.24-12.38c0,0-10.12-19.67,4.74-17.87Z"/><path class="cls-25" d="M404.5,151.41s.65-14,12.18-14.31,8.85,8.45,8.85,8.45a7.84,7.84,0,0,1,9.26.93c4.59,4,2,7.8,2,7.8s3.82-.55,2.77,3.05-2.94,12-2.94,12,1.7-1.8,3.09-1.45,5,10.68-3,12.21c0,0-1.49,6.54-4.6,8.6a27.53,27.53,0,0,0-.41,9.87l21.13,4.71S466,212,447.11,235.42c0,0-1,12.19.14,14.73,0,0,8.37-.93,12.72-3.32,0,0,6.7-8.33,9.35-3.69l3.36.37s6,11.26-3.37,20.34c0,0-5.94-1.75-6.09-3.46,0,0-9.59,6.68-13.74,7.86,0,0,2.37,11.6,8.1,18.95,0,0,19.1-8.76,25.08,6.06S482.5,356.64,474,375c0,0-.08,8.1,7.72,14.38s3.48,13.11,1,16.12A53.93,53.93,0,0,1,455,386.7s5.32-9.95,5.65-14.08l-1.5-.12a56.36,56.36,0,0,0,3.34-25.2c-1.57-13.33-6.94-17-1.92-32.6a58.53,58.53,0,0,1-42.84,12s-1.29,25.55-5.82,37.27a38.42,38.42,0,0,0-.81,22c3.22,11.58,2.13,25.17.32,33.7s3.07,41.75,3.07,41.75l12.82,19s3.08,12.23-8.31,13.11-17.33-14.5-16.76-26.34l-3.44-.56s-14.63-41.16-13.07-79.52c0,0-12.1-37.38-5.3-77.59,0,0-14.77-1.75-23.87-20,0,0,19-30.17,18.45-60.78,0,0-12-38.5-8.2-67.25a20.83,20.83,0,0,1-1.33-14.07c2-8.14,7.59-33.54,24.85-55.93l12.61,16.86s-9.54,13.2-12.31,26.56-.25,19.6-5.21,25.05c0,0,2.63,35.49,11.36,46.56l13.32-7.33s.88-2.75,0-8.67c0,0-4.82-3.41-5.87-8,0,0-2.63,1-4.27-.81s-6.26-11.35-.24-12.38c0,0-10.12-19.67,4.74-17.87Z"/><path class="cls-25" d="M404.5,151.41s.65-14,12.18-14.31,8.85,8.45,8.85,8.45a7.84,7.84,0,0,1,9.26.93c4.59,4,2,7.8,2,7.8s3.82-.55,2.77,3.05-2.94,12-2.94,12l-1.64.44c2.28-12.6-2.4-13.59-2.4-13.59-17.2-13.73-26.28-1.63-26.28-1.63-5.89,4.06-4.72,17.64-4.72,17.64l-1.84-2.89s-10.12-19.67,4.74-17.87Zm-1.24-2s.8-3.2-1.35-3.14S403.08,150.55,403.26,149.45Zm23.22-6.58s.25-2.58,1.78-2.09S426.46,144.4,426.48,142.87Z"/><path class="cls-25" d="M439.45,155.09a2.53,2.53,0,0,1,.13,2.24c-1,3.59-2.94,12-2.94,12l-1.64.44c1.39-7.68.2-11-.95-12.5C436.58,154.51,438.35,154.5,439.45,155.09Zm-35.72,2.52c-2.91,5.53-2.13,14.56-2.13,14.56l-1.84-2.89s-5.05-9.83-2.77-14.95C400,153.66,402.27,155.62,403.73,157.61Z"/><path class="cls-25" d="M391.51,93.05l4-5.8s5.47-9.46,9.8-14.11l-.82-2.71s7-2.84,8.69-2.42,7.28,11.53,4.42,14.22c0,0,2.17,2.44,2.18,3.48s.67,3.35-4.8,4.61c0,0-10.19,5.07-14.51,14.65l-8.93-11.92Z"/><path class="cls-25" d="M397.19,171c1.21.2,2.85,1.2,4.24,4.53,0,0-2,3.57,1.72,3.77a10,10,0,0,1,1.12,3.15c1.05,4.61,5.87,8,5.87,8a37.44,37.44,0,0,0,10.77,2.09c5.19,0,11.26-3.91,11.26-3.91,3.17-2.44,4.6-8.6,4.6-8.6l.42-2.32s3.21-3.51.15-4.8c0,0,.93-3.15,3.46-3.65-.36-.82-.77-1.37-1.07-1.44-1.39-.35-3.09,1.45-3.09,1.45l-1.64.44c2.28-12.6-2.4-13.59-2.4-13.59-17.2-13.73-26.28-1.63-26.28-1.63-5.89,4.06-4.72,17.64-4.72,17.64l-1.84-2.89a3.31,3.31,0,0,0-2.57,1.74Z"/><g class="cls-39"><path class="cls-25" d="M397.19,171c1.21.2,2.85,1.2,4.24,4.53,0,0-2,3.57,1.72,3.77a10,10,0,0,1,1.12,3.15c1.05,4.61,5.87,8,5.87,8a40.27,40.27,0,0,0,5.06,1.41c-8.65-9.81-9.76-27.12-9.64-36.76-5,4.65-4,17-4,17l-1.84-2.89a3.31,3.31,0,0,0-2.57,1.74ZM428,190.84a30.94,30.94,0,0,0,4.15-2.17c3.17-2.44,4.6-8.6,4.6-8.6l.42-2.32s3.21-3.51.15-4.8c0,0,.93-3.15,3.46-3.65-.36-.82-.77-1.37-1.07-1.44-1.39-.35-3.09,1.45-3.09,1.45l-1.64.44c2.28-12.6-2.4-13.59-2.4-13.59-.44-.34-.86-.67-1.28-1,.46,7.45.94,24.5-3.3,35.66Z"/></g><path class="cls-25" d="M435,169.75c2.28-12.6-2.4-13.59-2.4-13.59-17.2-13.73-26.28-1.63-26.28-1.63-5.89,4.06-4.72,17.64-4.72,17.64s-.23-12.3,6.28-16.17c0,0,2.52-4.79,12.66-3.63S432.39,157,432.39,157s3.87,4.65,2.61,12.71Z"/><path class="cls-25" d="M403.15,179.32c-3.71-.2-1.72-3.77-1.72-3.77-1.39-3.33-3-4.33-4.24-4.53-1.57,3.1,1.52,9.21,2.81,10.64,1.64,1.83,4.27.81,4.27.81a10,10,0,0,0-1.12-3.15Z"/><path class="cls-25" d="M437.34,173c3.06,1.29-.15,4.8-.15,4.8l-.42,2.32c6.23-1.2,5.37-7.8,4-10.77-2.53.5-3.46,3.65-3.46,3.65Z"/><path class="cls-25" d="M410.14,190.49c.84,5.92,0,8.67,0,8.67s3.6,8.08,11.4,9.64c0,0,8-4.27,10.26-10.26a27.53,27.53,0,0,1,.41-9.87s-6.07,4-11.26,3.91a37.44,37.44,0,0,1-10.77-2.09Z"/><path class="cls-25" d="M410.14,190.49a30.17,30.17,0,0,1,.31,6.39c4.8,2.7,12.45,5.07,21.14.5a28.78,28.78,0,0,1,.58-8.71s-6.07,4-11.26,3.91A37.44,37.44,0,0,1,410.14,190.49Z"/><path class="cls-25" d="M412.18,263.08c4.11-13.64,6.33-55.26,6.33-55.26-5.73-2.66-8.41-8.66-8.41-8.66l-13.32,7.33c-8.73-11.07-11.36-46.56-11.36-46.56,5-5.45,2.44-11.69,5.21-25.05s12.31-26.56,12.31-26.56l-2.5-3.35-8.93-11.92-1.18-1.59c-17.26,22.39-22.88,47.79-24.85,55.93a20.83,20.83,0,0,0,1.33,14.07c-3.81,28.75,8.2,67.25,8.2,67.25.57,30.61-18.45,60.78-18.45,60.78,9.1,18.27,23.87,20,23.87,20,11.75,1.43,18.22,0,18.22,0a366.59,366.59,0,0,1,13.53-46.45Z"/><g class="cls-40"><path class="cls-25" d="M371.78,216.58c1.75,7.39,3.23,12.13,3.23,12.13.57,30.61-18.45,60.78-18.45,60.78A40.13,40.13,0,0,0,368,303.73c4.68-12.68,22.14-63.19,14.44-91.65l-10.62,4.5Z"/></g><g class="cls-41"><path class="cls-25" d="M391.51,93.05l-1.18-1.59c-17.26,22.39-22.88,47.79-24.85,55.93a20.81,20.81,0,0,0,1.33,14.07c-3.81,28.75,8.2,67.25,8.2,67.25s4.19-12.45,7.39-16.63c0,0-11.31-31.32-10.57-51.23,0,0-7.19-21.85,19.68-67.8Z"/></g><path class="cls-25" d="M413.23,258.81c3.44-16.45,5.28-51,5.28-51-5.73-2.66-8.41-8.66-8.41-8.66l-3.58,2c0,5,.84,13.94,5.11,27.4l3.54,1-3.46.93s-.68,18.25,1.52,28.39Z"/><path class="cls-25" d="M423.29,207.72c-.21,17,.06,66.81,9.48,86.81l24.81-7.33c-5.73-7.35-8.1-18.95-8.1-18.95-1.88-6.65-2.23-18.1-2.23-18.1-1.12-2.54-.14-14.73-.14-14.73,18.85-23.39,5.78-32.17,5.78-32.17l-21.13-4.71c-1.59,4.19-6,7.55-8.47,9.18Z"/><path class="cls-25" d="M453.26,279.77c-.61-1.37-1.14-2.73-1.6-4a32.07,32.07,0,0,1-16.47,5.95l2.09,3.27a23.86,23.86,0,0,0,16-5.21Z"/><path class="cls-25" d="M423.29,207.72a498.55,498.55,0,0,0,1.9,51.38c0-.13,3.89-19.9,4-29.08l-2.7-.8,2.52-.55s5.3-14.82,1.76-28.15a25.32,25.32,0,0,1-7.49,7.2Z"/><path class="cls-25" d="M400.54,301.23c6.95-1.06,21.1-3.66,31.45-8.47-8.65-21-8.9-68.5-8.7-85-1.07.7-1.79,1.08-1.79,1.08a12.79,12.79,0,0,1-3-1s-2.22,41.62-6.33,55.26a379.42,379.42,0,0,0-11.64,38.15Z"/><path class="cls-25" d="M400.54,301.23c1.2-.19,2.61-.42,4.18-.69,1.23-9.82,4.22-27.19,11-41l2.76-51.74s-2.22,41.62-6.33,55.26a379.42,379.42,0,0,0-11.64,38.15Zm29-7.39c.84-.35,1.67-.71,2.47-1.08-8.65-21-8.9-68.5-8.7-85-.34.22-.63.41-.89.56-2.78,44,4,74.35,7.12,85.56Z"/><path class="cls-25" d="M385.73,387.1c-1.56,38.36,13.07,79.52,13.07,79.52l3.44.56a14.43,14.43,0,0,0,12.25-5.72s-4.89-33.21-3.07-41.75,2.9-22.12-.32-33.7a38.42,38.42,0,0,1,.81-22c4.53-11.72,5.82-37.27,5.82-37.27a58.53,58.53,0,0,0,42.84-12c-5,15.63.35,19.27,1.92,32.6.91,7.73-2.13,20.41-3.77,25.11a123,123,0,0,0,16.22.53c8-19.72,13.49-65.39,7.72-79.68-6-14.82-25.08-6.06-25.08-6.06l-24.81,7.33q-.4-.86-.78-1.77c-10.35,4.81-24.5,7.41-31.45,8.47-.67,2.74-1.31,5.52-1.89,8.3,0,0-6.47,1.41-18.22,0-6.8,40.21,5.3,77.59,5.3,77.59Z"/><path class="cls-25" d="M404.72,300.54c-1.57.27-3,.5-4.18.69-.67,2.74-1.31,5.52-1.89,8.3,0,0-6.47,1.41-18.22,0q-.48,2.83-.84,5.65c12.32,2.81,24-4.32,24-4.32a42.63,42.63,0,0,1,1.18-10.3Z"/><g class="cls-42"><path class="cls-25" d="M411.57,419c1.72-8.56,2.66-21.7-.47-32.95a38.42,38.42,0,0,1,.81-22c4.53-11.72,5.82-37.27,5.82-37.27a22.74,22.74,0,0,1-6.24-7.07c-.57,10.13-2.84,44.69-7.43,56.38-5,12.66,3.79,17.84,7.51,42.91Z"/></g><g class="cls-43"><path class="cls-25" d="M417.73,326.74a58.53,58.53,0,0,0,42.84-12A43.08,43.08,0,0,0,462,303.87c-13.66,12.05-50.41,16-50.41,16,3,5.52,6.14,6.89,6.14,6.89Z"/></g><path class="cls-25" d="M414.49,461.46a14.43,14.43,0,0,1-12.25,5.72c-.57,11.84,5.37,27.22,16.76,26.34s8.31-13.11,8.31-13.11l-12.82-19Z"/><path class="cls-25" d="M414.49,461.46a14.43,14.43,0,0,1-12.25,5.72,36.6,36.6,0,0,0,.45,7.47c9.07-2.52,12.62-6.65,13.95-10l-2.15-3.18Z"/><path class="cls-25" d="M453,387.85a59.72,59.72,0,0,0,30.49,20.87c2.75-3.28,7.5-10.75-1.07-17.71S474,375.14,474,375.14c.33-.72.65-1.48,1-2.28a115.55,115.55,0,0,1-15.7-.44c-.37,4.53-6.22,15.43-6.22,15.43Z"/><path class="cls-25" d="M474.19,377.36a13.35,13.35,0,0,1-.23-2.22c.33-.72.65-1.48,1-2.28a115.55,115.55,0,0,1-15.7-.44,25.65,25.65,0,0,1-2,6.52l16.93-1.58Z"/><path class="cls-25" d="M415,90.32c5.47-1.26,4.81-3.58,4.8-4.61s-2.18-3.48-2.18-3.48c2.86-2.69-2.76-13.8-4.42-14.22s-8.69,2.42-8.69,2.42l.82,2.71c-4.33,4.65-9.8,14.11-9.8,14.11l-4,5.8L400.44,105C404.76,95.39,415,90.32,415,90.32Z"/><path class="cls-25" d="M417.75,82.44l-.18-.21c2.86-2.69-2.76-13.8-4.42-14.22s-8.69,2.42-8.69,2.42c-2.15,1.23,1.48,12.91,3.51,13.47s3.78,1,6.51-.49a9.72,9.72,0,0,1,3.27-1Z"/><path class="cls-25" d="M417.75,82.44l-.18-.21a2.12,2.12,0,0,0,.44-.59l-5-3.45s-4,1.19-3.41,6.11a6.85,6.85,0,0,0,4.89-.89A9.72,9.72,0,0,1,417.75,82.44Z"/><path class="cls-25" d="M415,90.32c5.47-1.26,4.81-3.58,4.8-4.61s-2.18-3.48-2.18-3.48l-4.57-4s-3.5,2.83-2.27,5.16S415,90.32,415,90.32Z"/><path class="cls-25" d="M458,263.81l-.59-15.87a54.27,54.27,0,0,1-10.17,2.21s.35,11.45,2.23,18.1c0,0,0,.24.15.68l8.52-1.52-.14-3.6Z"/><path class="cls-25" d="M457.42,247.94l.59,15.87c2.87-1.79,5.21-3.42,5.21-3.42.15,1.71,6.09,3.46,6.09,3.46,8.83-9.44,3.37-20.34,3.37-20.34l-3.36-.37c-2.65-4.64-9.35,3.69-9.35,3.69a17.76,17.76,0,0,1-2.55,1.11Z"/><path class="cls-25" d="M463.22,260.39c.15,1.71,6.09,3.46,6.09,3.46,8.59-9.5,3.37-20.34,3.37-20.34l-3.36-.37c-.05-.09-.11-.17-.16-.25a6.83,6.83,0,0,0-3.05,5.61,24.76,24.76,0,0,1-2.89,11.89Z"/><path class="cls-25" d="M469.32,243.14c-.05-.09-.11-.17-.16-.25a6.83,6.83,0,0,0-3.05,5.61,21.36,21.36,0,0,1-.26,4,3.53,3.53,0,0,0,2.93.59c4-.86.54-9.93.54-9.93Z"/><path class="cls-25" d="M469.32,243.14c-1.34-2.34-3.7-1.38-5.72.14,1.28,2.69,1.34,5.76,2.33,7.55a2.41,2.41,0,0,0,4.51-.68c.37-2.27-1.12-7-1.12-7Z"/><path class="cls-25" d="M376.17,272.65a32.13,32.13,0,0,0,15.47,12.15l-1.4,3.45s-9.85-1.15-15.86-12.15Z"/><circle class="cls-25" cx="398.31" cy="108.76" r="1.87"/><circle class="cls-25" cx="395.51" cy="113.34" r="1.87"/><polygon class="cls-25" points="390.94 92.27 393.82 87.23 407.03 98.84 401.57 106.49 400.44 104.97 391.51 93.05 390.94 92.27"/><g class="cls-44"><path class="cls-25" d="M475.34,288.08c2.27-.72,5.43,2.9,7.06,8.08s1.12,9.95-1.14,10.66-5.43-2.9-7.06-8.08S473.08,288.79,475.34,288.08Z"/></g><g class="cls-45"><path class="cls-25" d="M384.45,326.08c3.8,0,7.76,10.56,8.84,23.58s-1.12,23.59-4.92,23.59-7.75-10.56-8.84-23.59,1.12-23.58,4.92-23.58Z"/></g><g class="cls-46"><path class="cls-25" d="M485.62,395.45c1.26,1.6,1.62,3.77.8,4.86s-2.51.66-3.77-.93-1.62-3.78-.8-4.86S484.36,393.85,485.62,395.45Z"/></g><g class="cls-47"><path class="cls-25" d="M426.75,481.94c.33,2-.41,4.08-1.65,4.64s-2.52-.63-2.85-2.64.41-4.09,1.65-4.64S426.42,479.93,426.75,481.94Z"/></g><path class="cls-48" d="M403.32,152.59s.65-14,12.18-14.31,8.85,8.45,8.85,8.45a7.84,7.84,0,0,1,9.26.93c4.59,4,2,7.8,2,7.8s3.82-.55,2.77,3-2.94,12-2.94,12l-1.64.44c2.28-12.6-2.4-13.59-2.4-13.59-17.2-13.73-26.28-1.63-26.28-1.63-5.89,4.06-4.72,17.64-4.72,17.64l-1.84-2.89s-10.12-19.67,4.74-17.87Zm-1.24-2s.8-3.19-1.35-3.13S401.9,151.73,402.08,150.62Zm23.22-6.57s.25-2.58,1.78-2.09S425.28,145.58,425.3,144.05Z"/><path class="cls-49" d="M438.27,156.27a2.53,2.53,0,0,1,.13,2.24c-1,3.59-2.94,12-2.94,12l-1.64.44c1.39-7.68.2-11.05-.95-12.5,2.53-2.74,4.3-2.75,5.4-2.16Zm-35.72,2.52c-2.91,5.53-2.13,14.56-2.13,14.56l-1.84-2.89s-5.05-9.83-2.77-15C398.84,154.84,401.1,156.8,402.55,158.79Z"/><path class="cls-38" d="M390.33,94.23l4-5.8s5.47-9.46,9.8-14.12l-.82-2.7s7-2.84,8.69-2.42,7.28,11.52,4.42,14.22c0,0,2.17,2.44,2.18,3.48s.67,3.35-4.8,4.61c0,0-10.19,5.07-14.51,14.65l-8.93-11.92Z"/><path class="cls-50" d="M396,172.2c1.21.2,2.85,1.19,4.24,4.53,0,0-2,3.57,1.72,3.77a10,10,0,0,1,1.12,3.15c1.05,4.61,5.87,8,5.87,8a37.44,37.44,0,0,0,10.77,2.09c5.19,0,11.26-3.91,11.26-3.91,3.17-2.44,4.6-8.6,4.6-8.6l.42-2.32s3.21-3.51.15-4.8c0,0,.93-3.15,3.47-3.65-.37-.82-.78-1.37-1.08-1.44-1.38-.35-3.08,1.45-3.08,1.45l-1.65.44c2.28-12.6-2.4-13.59-2.4-13.59-17.2-13.73-26.28-1.63-26.28-1.63-5.89,4.06-4.72,17.64-4.72,17.64l-1.84-2.89A3.31,3.31,0,0,0,396,172.2Z"/><g class="cls-51"><path class="cls-52" d="M396,172.2c1.21.2,2.85,1.19,4.24,4.53,0,0-2,3.57,1.72,3.77a10,10,0,0,1,1.12,3.15c1.05,4.61,5.87,8,5.87,8a40.27,40.27,0,0,0,5.06,1.41c-8.65-9.81-9.76-27.12-9.64-36.76-5,4.65-4,17-4,17l-1.84-2.89A3.31,3.31,0,0,0,396,172.2ZM426.84,192a30.94,30.94,0,0,0,4.15-2.17c3.17-2.44,4.6-8.6,4.6-8.6l.42-2.32s3.21-3.51.15-4.8c0,0,.93-3.15,3.47-3.65-.37-.82-.78-1.37-1.08-1.44-1.38-.35-3.08,1.45-3.08,1.45l-1.65.44c2.28-12.6-2.4-13.59-2.4-13.59-.43-.35-.86-.67-1.28-1,.46,7.45.94,24.5-3.3,35.66Z"/></g><path class="cls-52" d="M433.82,170.93c2.28-12.6-2.4-13.59-2.4-13.59-17.2-13.73-26.28-1.63-26.28-1.63-5.89,4.06-4.72,17.64-4.72,17.64s-.23-12.3,6.29-16.17c0,0,2.51-4.79,12.65-3.63s11.85,4.67,11.85,4.67,3.87,4.65,2.61,12.71Z"/><path class="cls-53" d="M402,180.5c-3.7-.2-1.72-3.77-1.72-3.77-1.39-3.34-3-4.33-4.24-4.53-1.57,3.1,1.52,9.21,2.81,10.64,1.64,1.83,4.27.81,4.27.81A10,10,0,0,0,402,180.5Z"/><path class="cls-54" d="M436.16,174.13c3.06,1.29-.15,4.8-.15,4.8l-.42,2.32c6.23-1.2,5.37-7.8,4-10.77-2.54.5-3.47,3.65-3.47,3.65Z"/><path class="cls-50" d="M409,191.67c.85,5.92,0,8.67,0,8.67s3.6,8.08,11.4,9.64c0,0,8-4.27,10.26-10.26a27.53,27.53,0,0,1,.41-9.87s-6.07,4-11.26,3.91A37.44,37.44,0,0,1,409,191.67Z"/><path class="cls-52" d="M409,191.67a30.17,30.17,0,0,1,.31,6.39c4.8,2.7,12.45,5.07,21.14.5a28.73,28.73,0,0,1,.58-8.71s-6.07,4-11.26,3.91A37.44,37.44,0,0,1,409,191.67Z"/><path class="cls-30" d="M411,264.26c4.11-13.64,6.33-55.26,6.33-55.26-5.73-2.66-8.41-8.66-8.41-8.66l-13.32,7.33c-8.73-11.07-11.36-46.56-11.36-46.56,5-5.45,2.44-11.69,5.21-25.05s12.31-26.56,12.31-26.56l-2.5-3.35-8.93-11.92-1.18-1.59c-17.26,22.39-22.88,47.79-24.85,55.93a20.83,20.83,0,0,0,1.33,14.07c-3.81,28.75,8.2,67.25,8.2,67.25.57,30.61-18.45,60.78-18.45,60.78,9.11,18.27,23.87,20,23.87,20,11.75,1.43,18.22,0,18.22,0A366,366,0,0,1,411,264.26Z"/><g class="cls-55"><path class="cls-56" d="M370.6,217.76c1.75,7.39,3.23,12.13,3.23,12.13.57,30.61-18.45,60.78-18.45,60.78a40.13,40.13,0,0,0,11.4,14.24c4.68-12.68,22.14-63.19,14.44-91.65l-10.62,4.5Z"/></g><g class="cls-57"><path class="cls-56" d="M390.33,94.23l-1.18-1.59c-17.26,22.39-22.88,47.79-24.85,55.93a20.83,20.83,0,0,0,1.33,14.07c-3.81,28.75,8.2,67.25,8.2,67.25s4.19-12.45,7.39-16.63c0,0-11.31-31.32-10.57-51.23,0,0-7.19-21.85,19.68-67.8Z"/></g><path class="cls-56" d="M412.05,260c3.44-16.45,5.28-51,5.28-51-5.73-2.66-8.41-8.66-8.41-8.66l-3.58,2c0,5,.84,13.94,5.11,27.4l3.54.95-3.45.93s-.69,18.25,1.51,28.39Z"/><path class="cls-58" d="M422.11,208.9c-.2,17,.06,66.81,9.48,86.81l24.81-7.33c-5.73-7.35-8.1-18.95-8.1-18.95-1.88-6.65-2.23-18.1-2.23-18.1-1.12-2.54-.14-14.73-.14-14.73,18.85-23.39,5.78-32.17,5.78-32.17l-21.13-4.71c-1.59,4.19-6,7.55-8.47,9.18Z"/><path class="cls-56" d="M452.08,281c-.61-1.37-1.14-2.73-1.6-4A32,32,0,0,1,434,282.88l2.09,3.28A23.86,23.86,0,0,0,452.08,281Z"/><path class="cls-56" d="M422.11,208.9a498.55,498.55,0,0,0,1.9,51.38c0-.13,3.89-19.9,4-29.08l-2.7-.8,2.52-.56s5.3-14.81,1.76-28.14a25.32,25.32,0,0,1-7.49,7.2Z"/><path class="cls-59" d="M399.36,302.41c6.95-1.06,21.1-3.67,31.45-8.47-8.65-21-8.9-68.5-8.7-85-1.07.7-1.79,1.08-1.79,1.08a12.79,12.79,0,0,1-3-1s-2.22,41.62-6.33,55.26A379.42,379.42,0,0,0,399.36,302.41Z"/><path class="cls-26" d="M399.36,302.41c1.2-.19,2.61-.42,4.18-.69,1.23-9.82,4.22-27.19,11-41L417.33,209s-2.22,41.62-6.33,55.26a379.42,379.42,0,0,0-11.64,38.15Zm29-7.39c.84-.35,1.67-.71,2.47-1.08-8.65-21-8.9-68.5-8.7-85l-.89.56c-2.78,44,4,74.35,7.12,85.56Z"/><path class="cls-30" d="M384.55,388.27c-1.56,38.37,13.07,79.53,13.07,79.53l3.44.56a14.43,14.43,0,0,0,12.25-5.72s-4.89-33.21-3.07-41.75,2.9-22.12-.32-33.7a38.42,38.42,0,0,1,.81-22c4.53-11.72,5.82-37.27,5.82-37.27a58.53,58.53,0,0,0,42.84-12c-5,15.63.35,19.27,1.92,32.6.91,7.73-2.13,20.41-3.77,25.11a123,123,0,0,0,16.22.53c8-19.72,13.49-65.39,7.72-79.68-6-14.82-25.08-6.06-25.08-6.06l-24.81,7.33q-.39-.85-.78-1.77c-10.35,4.8-24.5,7.41-31.45,8.47-.67,2.74-1.3,5.52-1.89,8.3,0,0-6.47,1.41-18.22,0-6.8,40.21,5.3,77.58,5.3,77.58Z"/><path class="cls-56" d="M403.54,301.72c-1.57.27-3,.5-4.18.69-.67,2.74-1.3,5.52-1.89,8.3,0,0-6.47,1.41-18.22,0q-.48,2.83-.84,5.65c12.32,2.81,23.95-4.32,23.95-4.32a42.63,42.63,0,0,1,1.18-10.3Z"/><g class="cls-60"><path class="cls-56" d="M410.39,420.14c1.72-8.56,2.66-21.71-.47-32.95a38.41,38.41,0,0,1,.81-22c4.53-11.72,5.82-37.27,5.82-37.27a22.87,22.87,0,0,1-6.24-7.07c-.57,10.13-2.84,44.69-7.43,56.38-5,12.66,3.79,17.83,7.51,42.91Z"/></g><g class="cls-61"><path class="cls-56" d="M416.55,327.92a58.58,58.58,0,0,0,42.84-12,43.38,43.38,0,0,0,1.44-10.83c-13.67,12.05-50.42,16-50.42,16C413.36,326.55,416.55,327.92,416.55,327.92Z"/></g><path class="cls-30" d="M413.31,462.64a14.43,14.43,0,0,1-12.25,5.72c-.57,11.84,5.37,27.22,16.76,26.34s8.31-13.11,8.31-13.11l-12.82-18.95Z"/><path class="cls-56" d="M413.31,462.64a14.43,14.43,0,0,1-12.25,5.72,36.46,36.46,0,0,0,.45,7.46c9.07-2.51,12.62-6.64,13.95-10l-2.15-3.18Z"/><path class="cls-30" d="M451.84,389a59.72,59.72,0,0,0,30.49,20.87c2.75-3.28,7.5-10.75-1.07-17.71s-8.48-15.87-8.48-15.87c.33-.72.66-1.48,1-2.28a115.55,115.55,0,0,1-15.7-.44c-.37,4.53-6.22,15.43-6.22,15.43Z"/><path class="cls-56" d="M473,378.54a13.35,13.35,0,0,1-.23-2.22c.33-.72.66-1.48,1-2.28a115.55,115.55,0,0,1-15.7-.44,25.65,25.65,0,0,1-2,6.52L473,378.54Z"/><path class="cls-62" d="M413.77,91.5c5.47-1.26,4.81-3.58,4.8-4.61s-2.18-3.48-2.18-3.48c2.86-2.7-2.76-13.8-4.42-14.22s-8.69,2.42-8.69,2.42l.82,2.7c-4.33,4.66-9.8,14.12-9.8,14.12l-4,5.8,8.93,11.92c4.32-9.58,14.51-14.65,14.51-14.65Z"/><path class="cls-50" d="M416.57,83.62l-.18-.21c2.86-2.7-2.76-13.8-4.42-14.22s-8.69,2.42-8.69,2.42c-2.15,1.23,1.48,12.91,3.51,13.47s3.78,1,6.51-.49a9.72,9.72,0,0,1,3.27-1Z"/><path class="cls-52" d="M416.57,83.62l-.18-.21a2,2,0,0,0,.44-.6l-5-3.44s-4,1.19-3.41,6.11a6.85,6.85,0,0,0,4.89-.89,9.72,9.72,0,0,1,3.27-1Z"/><path class="cls-50" d="M413.77,91.5c5.47-1.26,4.81-3.58,4.8-4.61s-2.18-3.48-2.18-3.48l-4.57-4s-3.5,2.82-2.27,5.16,4.22,7,4.22,7Z"/><path class="cls-30" d="M456.83,265l-.59-15.87a54.27,54.27,0,0,1-10.17,2.21s.35,11.45,2.23,18.1c0,0,.05.24.15.68l8.52-1.52Z"/><path class="cls-52" d="M456.24,249.12l.59,15.87c2.87-1.79,5.21-3.42,5.21-3.42.15,1.71,7.27,2.28,7.27,2.28a15.79,15.79,0,0,0,2.19-19.16l-3.36-.37c-2.65-4.64-9.35,3.69-9.35,3.69a17.76,17.76,0,0,1-2.55,1.11Z"/><path class="cls-50" d="M462,261.57c.15,1.71,7.27,2.28,7.27,2.28a15.79,15.79,0,0,0,2.19-19.16l-3.36-.37c-.05-.09-.11-.17-.16-.25a6.83,6.83,0,0,0-3.05,5.61A24.76,24.76,0,0,1,462,261.57Z"/><path class="cls-52" d="M468.14,244.32c-.05-.09-.11-.17-.16-.25a6.83,6.83,0,0,0-3.05,5.61,20.54,20.54,0,0,1-.26,4,3.53,3.53,0,0,0,2.93.59c4-.86.54-9.93.54-9.93Z"/><path class="cls-50" d="M468.14,244.32c-1.34-2.34-3.7-1.38-5.72.14,1.28,2.69,1.34,5.76,2.33,7.55a2.41,2.41,0,0,0,4.51-.68c.37-2.27-1.12-7-1.12-7Z"/><path class="cls-34" d="M140,422.35c7.16-25.81,21.24-73,32.82-90.1h17.69L212.83,310h80.31l47.41,59.79v30.42H349v20.52h10.61v66.68l-181.24-.15c-23.57-20.13-34.24-43.49-38.37-64.87Z"/><ellipse class="cls-32" cx="231.47" cy="384.86" rx="7.14" ry="3.55"/><ellipse class="cls-32" cx="295.91" cy="393.57" rx="3.89" ry="1.89"/><ellipse class="cls-32" cx="184.35" cy="450.18" rx="6.96" ry="4.25"/><path class="cls-63" d="M140,422.35c2.14-7.73,4.91-17.39,8.05-27.58V365.51h8.49v3.39c5.36-15.18,11.07-29,16.28-36.65h1.41V316h10.37v16.27h5.91L212.83,310h47.76v-6.48h8V310h5.66v-14h10.61v14h8.26l40.33,50.86v-4h7.08v13l-7.08-4.41-57-35.48-32.35,1.8-15.83-4.84-28,28.43v43.4h25L187,403.83l-2.83,19.34h12.74l-27.27,7.31V479A110.27,110.27,0,0,1,140,422.35Zm203.84,65-51.57,0v-10h6.6V466.1l41-3.78,3.93,25ZM345,400.17H349v20.52h10.61v66.68h-8.74V448.65H329.22l19.1-4.72v-12H337.23l7.74-2.07V400.17Z"/><path class="cls-34" d="M140,422.35l.37-1.35c3.21.33,5.62,1.7,5.62,3.35s-2,2.8-4.85,3.25Q140.54,425,140,422.35ZM292.61,319.28c2.67,0,4.83,1.11,4.83,2.48s-2.16,2.47-4.83,2.47-4.84-1.11-4.84-2.47S289.94,319.28,292.61,319.28Zm-82.31,5.9c3.19,0,5.78,1.16,5.78,2.59s-2.59,2.6-5.78,2.6-5.78-1.17-5.78-2.6S207.11,325.18,210.3,325.18Zm-43.87,54.71c1.76,0,3.18.74,3.18,1.65s-1.42,1.66-3.18,1.66-3.18-.74-3.18-1.66S164.67,379.89,166.43,379.89Zm3.66,31.37c2.34,0,4.24,1,4.24,2.24s-1.9,2.24-4.24,2.24-4.25-1-4.25-2.24S167.74,411.26,170.09,411.26Z"/><polygon class="cls-34" points="148.09 394.77 148.09 365.51 150.16 365.51 150.16 388.21 148.09 394.77"/><polygon class="cls-34" points="174.27 332.25 174.27 315.98 177.11 315.98 178.69 323.35 181.99 323.11 176.51 324.76 176.51 332.25 174.27 332.25"/><polygon class="cls-34" points="264.92 303.48 268.61 303.48 268.61 309.96 264.8 309.96 264.8 307.82 262.12 307.11 264.92 307.11 264.92 303.48"/><polygon class="cls-34" points="278.51 295.93 284.88 295.93 284.88 309.96 279.57 309.96 279.57 302.77 283.23 301.36 278.51 301.36 278.51 295.93"/><path class="cls-63" d="M528,480.09V450.4l13.09-48.82h89.15l11.48-42.81h16.41v-23h10.61v23h6.6V346.59h9.91v12.18h18c-8.41,83-81.21,144.78-130.65,125.65-12.77-4.93-27.81-5.89-44.58-4.33Z"/><path class="cls-34" d="M658.17,358.77v-8.42l4.59,0v8.44Zm0-10.36V335.74h4.59v4.43l-2.65.4v1.3h2.65v6.06Zm17.21,10.36v-2.42l4.84.09v2.33Zm0-3.14v-9h4.84v9Z"/><path class="cls-34" d="M528,480.09V419.16h5.49v10.77l7.6-28.35h28.33l27.77,2.76-1.9,9.17H588l6.91,1.85-6.2,30H577.68l10.49,2.81-.95,4.55V466.2H573L587.22,470v15H574.1c-.49-.17-1-.36-1.48-.55-12.77-4.93-27.81-5.89-44.58-4.33Z"/><path class="cls-63" d="M528,480.09V451.18h3.19l2.23,19.31-4.12,1.09h13.44v7.83c-4.74,0-9.66.21-14.74.68Z"/><path class="cls-29" d="M576,397.59h48.71a3.27,3.27,0,0,0,2.89-2.21L640,355.54c.55-1.75-2.45-2.68-3.75-3.21l-.6,1H589.73a3.27,3.27,0,0,0-2.9,2.21l-12.35,39.84A1.57,1.57,0,0,0,576,397.59Z"/><path class="cls-30" d="M568.88,396.44H600.2c14.44,0,26.14,1.15,26.14,2.57h0c0,1.42-11.7,2.57-26.14,2.57H568.88c-14.44,0-26.14-1.15-26.14-2.57h0C542.74,397.59,554.44,396.44,568.88,396.44Z"/><path class="cls-29" d="M589,397.23h19.35c8.92,0,16.15.8,16.15,1.78h0c0,1-7.23,1.79-16.15,1.79H589c-8.92,0-16.15-.8-16.15-1.79h0C572.81,398,580,397.23,589,397.23Z"/><path class="cls-25" d="M576,396.44h45.72a3.25,3.25,0,0,0,2.89-2.2L637,354.39a1.58,1.58,0,0,0-1.53-2.21H589.73a3.29,3.29,0,0,0-2.9,2.21l-12.35,39.85A1.57,1.57,0,0,0,576,396.44Z"/><path class="cls-25" d="M315.78,526.51V506.65l-22-5.89L275.38,432.1H213.89s-23.29,29-33.89,56.42c11.45,9.48,25.81,18.21,43.8,25.62,29.23,12,60.43,14.74,92,12.37Z"/><path class="cls-32" d="M276.36,435.77l-1-3.67H213.89s-23.29,29-33.89,56.42c11.45,9.48,25.81,18.21,43.8,25.62,2.34,1,4.69,1.87,7.06,2.71l6-74.93,39.49-6.15Zm12.87,48.05-12.3,2.56h13l-.69-2.56Zm-55.12-7.52,19.23-3-19-.08Z"/><ellipse class="cls-34" cx="621.73" cy="432.79" rx="6.9" ry="2.77"/><ellipse class="cls-34" cx="649.08" cy="413.33" rx="5.13" ry="1.71"/><path class="cls-34" d="M653,429.43c1.4,0,2.53.29,2.53.64s-1.13.65-2.53.65-2.54-.29-2.54-.65S651.57,429.43,653,429.43Z"/><ellipse class="cls-34" cx="618.84" cy="456.19" rx="4.48" ry="2.12"/><ellipse class="cls-34" cx="682.28" cy="381.67" rx="4.72" ry="2.59"/><ellipse class="cls-34" cx="602.96" cy="411.22" rx="6.68" ry="2.29"/><ellipse class="cls-32" cx="549.92" cy="445.66" rx="4.48" ry="2.07"/><ellipse class="cls-32" cx="575.2" cy="424.35" rx="4.25" ry="1.89"/><ellipse class="cls-32" cx="563.88" cy="466.57" rx="1.89" ry="0.71"/><ellipse class="cls-32" cx="541.71" cy="425.3" rx="1.42" ry="0.47"/><path class="cls-25" d="M338.18,524.05V477.29H321v48.79Q329.56,525.28,338.18,524.05Zm4.48-.66c5-.78,10.07-1.67,15.09-2.63V507.14H342.66Z"/><path class="cls-32" d="M351.1,508.55V522c-2.81.5-5.63,1-8.44,1.41V507.52l8.44,1Z"/><path class="cls-32" d="M321,478v22.11l7.62-1.31V478.7Zm0,22.69v25.43c3.56-.33,7.12-.71,10.68-1.16V500.65Z"/><path class="cls-63" d="M567,406.72c2,0,3.53.69,3.53,1.53s-1.58,1.54-3.53,1.54-3.54-.69-3.54-1.54S565.06,406.72,567,406.72ZM538,473c1.15,0,2.09.47,2.09,1s-.94,1-2.09,1-2.1-.46-2.1-1S536.88,473,538,473Zm31.52-26.86c1.46,0,2.64.68,2.64,1.52s-1.18,1.52-2.64,1.52-2.64-.68-2.64-1.52S568.1,446.13,569.56,446.13Z"/><path class="cls-63" d="M308.76,454.42c2.35,0,4.25.79,4.25,1.77s-1.9,1.77-4.25,1.77-4.24-.79-4.24-1.77S306.42,454.42,308.76,454.42ZM288,346.17c2.2,0,4,.93,4,2.09s-1.77,2.1-4,2.1-4-.94-4-2.1S285.78,346.17,288,346.17Zm-57.74-1.42c2.48,0,4.48,1,4.48,2.21s-2,2.22-4.48,2.22-4.48-1-4.48-2.22S227.75,344.75,230.23,344.75Zm20.51,70.52c2.74,0,5,1.27,5,2.83s-2.22,2.83-5,2.83-5-1.27-5-2.83S248,415.27,250.74,415.27Zm-81.13,49.06c3.13,0,5.66.95,5.66,2.12s-2.53,2.12-5.66,2.12-5.66-.95-5.66-2.12S166.49,464.33,169.61,464.33Z"/><ellipse class="cls-32" cx="284.71" cy="516.21" rx="6.49" ry="3.18"/><ellipse class="cls-32" cx="245.91" cy="461.61" rx="3.07" ry="1.65"/><ellipse class="cls-64" cx="201.34" cy="487.08" rx="3.07" ry="1.89"/><ellipse class="cls-64" cx="216.55" cy="440.15" rx="1.53" ry="0.71"/><path class="cls-56" d="M375,273.83A32.13,32.13,0,0,0,390.46,286l-1.4,3.45s-9.85-1.15-15.86-12.15l1.79-3.45Z"/><circle class="cls-25" cx="397.13" cy="109.94" r="1.87"/><circle class="cls-25" cx="394.33" cy="114.52" r="1.87"/><polygon class="cls-25" points="389.75 93.45 392.64 88.41 405.85 100.02 400.39 107.67 399.26 106.15 390.33 94.22 389.75 93.45"/><path class="cls-25" d="M458.42,264l-1.05-15.3c-.36.15-.74.3-1.13.44l.59,15.87h0l0,1,1.68-.1-.13-1.89Z"/><rect class="cls-34" x="364.96" y="456.4" width="15.8" height="37.26"/><polygon class="cls-63" points="370.84 493.66 364.96 493.66 364.96 456.4 371.8 456.4 371.8 471.49 377.46 471.49 370.84 473.27 370.84 493.66"/><polygon class="cls-34" points="365 454.6 380.29 454.04 380.47 449.26 364.95 451.19 365 454.6"/><path class="cls-34" d="M522.12,480.74V451.08h-15.8v32.15c5.41-1,10.68-1.86,15.8-2.49Z"/><path class="cls-63" d="M522.12,480.74V451.08h-6.84v15.09h-5.66l6.63,1.77v13.61Q519.22,481.1,522.12,480.74Z"/><g class="cls-65"><path class="cls-66" d="M474.16,289.26c2.27-.72,5.43,2.9,7.06,8.08s1.12,10-1.14,10.66-5.43-2.9-7.06-8.08S471.9,290,474.16,289.26Z"/></g><g class="cls-67"><path class="cls-66" d="M383.27,327.26c3.8,0,7.76,10.56,8.84,23.58s-1.12,23.59-4.91,23.59-7.76-10.56-8.85-23.59,1.12-23.58,4.92-23.58Z"/></g><g class="cls-68"><path class="cls-66" d="M484.44,396.63c1.26,1.59,1.62,3.77.8,4.86s-2.51.66-3.77-.93-1.62-3.78-.8-4.86S483.18,395,484.44,396.63Z"/></g><g class="cls-69"><path class="cls-66" d="M425.57,483.12c.33,2-.41,4.08-1.65,4.64s-2.52-.63-2.85-2.64.41-4.09,1.65-4.64S425.24,481.11,425.57,483.12Z"/></g><circle class="cls-70" cx="333.21" cy="251.44" r="8.7"/><circle class="cls-63" cx="333.21" cy="251.44" r="6.99"/><path class="cls-34" d="M338.73,247.14a7,7,0,1,1-5-2.11A7,7,0,0,1,338.73,247.14Z"/><path class="cls-63" d="M330.19,252.91l1.22-.2a1.71,1.71,0,0,0,.57,1.12,1.63,1.63,0,0,0,.74.34v-2.34a8.4,8.4,0,0,1-1.26-.43,1.79,1.79,0,0,1-1.06-1.67,1.87,1.87,0,0,1,.22-.9,2.11,2.11,0,0,1,.61-.69,2.37,2.37,0,0,1,.78-.35,3.43,3.43,0,0,1,.71-.14v-.77h1v.8a3.07,3.07,0,0,1,.88.21,2,2,0,0,1,.95.67,2.6,2.6,0,0,1,.43,1.13l-1.21.17a1.32,1.32,0,0,0-.47-.89,1.48,1.48,0,0,0-.58-.27v2.07a12.48,12.48,0,0,1,1.43.47,1.79,1.79,0,0,1,.81.64,1.81,1.81,0,0,1,.3,1.06,2.08,2.08,0,0,1-.36,1.16,2.37,2.37,0,0,1-1,.84,3.81,3.81,0,0,1-1.14.28V256h-1v-.79a3,3,0,0,1-1.58-.56,2.67,2.67,0,0,1-.95-1.75Zm3.51,1.29a1.57,1.57,0,0,0,.86-.32,1,1,0,0,0,.42-.81.76.76,0,0,0-.37-.66,3.77,3.77,0,0,0-.91-.32v2.11Zm-1-5.53a1.62,1.62,0,0,0-.77.26.83.83,0,0,0-.36.66.68.68,0,0,0,.15.43,1.16,1.16,0,0,0,.47.33l.51.16Z"/><path class="cls-71" d="M485.3,187.24a7.31,7.31,0,1,1-9,5.16,7.3,7.3,0,0,1,9-5.16Z"/><circle class="cls-63" cx="483.4" cy="194.3" r="5.87"/><path class="cls-34" d="M488.81,192a5.87,5.87,0,1,1-3.6-2.8A5.86,5.86,0,0,1,488.81,192Z"/><path class="cls-63" d="M480.63,194.83l1,.1a1.47,1.47,0,0,0,.22,1,1.54,1.54,0,0,0,.53.44l.51-1.9a7.89,7.89,0,0,1-.93-.63,1.51,1.51,0,0,1-.5-1.58,1.58,1.58,0,0,1,.38-.68,1.65,1.65,0,0,1,.64-.43,2.22,2.22,0,0,1,.71-.12,3.2,3.2,0,0,1,.61.05l.17-.63.79.21-.17.65a3,3,0,0,1,.66.36,1.67,1.67,0,0,1,.63.75,2.15,2.15,0,0,1,.1,1l-1-.12a1.12,1.12,0,0,0-.19-.83,1.08,1.08,0,0,0-.41-.34l-.45,1.68a10.46,10.46,0,0,1,1.06.69,1.54,1.54,0,0,1,.52.7,1.51,1.51,0,0,1,0,.92,1.75,1.75,0,0,1-.54.86,2,2,0,0,1-1,.46,3,3,0,0,1-1,0l-.17.63-.79-.21.17-.64a2.56,2.56,0,0,1-1.17-.8,2.27,2.27,0,0,1-.39-1.62Zm2.57,1.82a1.35,1.35,0,0,0,.77-.08.89.89,0,0,0,.51-.57.61.61,0,0,0-.16-.61,2.72,2.72,0,0,0-.66-.46l-.46,1.71Zm.41-4.7a1.23,1.23,0,0,0-.68,0,.68.68,0,0,0-.44.45.59.59,0,0,0,0,.39.93.93,0,0,0,.31.37l.38.23.4-1.48Z"/><path class="cls-72" d="M509,376.69A10.8,10.8,0,1,1,509,392,10.79,10.79,0,0,1,509,376.69Z"/><circle class="cls-63" cx="516.67" cy="384.33" r="8.68"/><path class="cls-34" d="M517.74,375.72a8.68,8.68,0,1,1-6.24,2.54,8.6,8.6,0,0,1,6.24-2.54Z"/><path class="cls-63" d="M515.3,388.27l.9-1.24a2.11,2.11,0,0,0,1.5.48,2.13,2.13,0,0,0,.94-.35l-2-2.06a9.65,9.65,0,0,1-1.49.73,2.25,2.25,0,0,1-1.3.09,2.18,2.18,0,0,1-1.09-.62,2.23,2.23,0,0,1-.6-1,2.59,2.59,0,0,1-.07-1.14,3.18,3.18,0,0,1,.37-1,4.07,4.07,0,0,1,.51-.74l-.68-.69.86-.85.7.7a4.63,4.63,0,0,1,1-.59,2.65,2.65,0,0,1,1.43-.25,3.37,3.37,0,0,1,1.37.62l-.91,1.21a1.66,1.66,0,0,0-1.2-.36,1.59,1.59,0,0,0-.74.27l1.82,1.82a15.65,15.65,0,0,1,1.66-.85,2.38,2.38,0,0,1,1.28-.15,2.29,2.29,0,0,1,1.19.67,2.56,2.56,0,0,1,.7,1.33,2.89,2.89,0,0,1-.18,1.65,4.52,4.52,0,0,1-.75,1.25l.68.68-.85.86-.7-.69a3.74,3.74,0,0,1-1.88.9,3.4,3.4,0,0,1-2.37-.7Zm4.23-1.94a2.08,2.08,0,0,0,.47-1,1.29,1.29,0,0,0-.35-1.08.93.93,0,0,0-.9-.25,4.54,4.54,0,0,0-1.08.51l1.86,1.86Zm-5.71-4a1.81,1.81,0,0,0-.45.9,1,1,0,0,0,.26.9.88.88,0,0,0,.51.25,1.46,1.46,0,0,0,.7-.13l.59-.31Z"/><path class="cls-73" d="M607.83,301.12a7.31,7.31,0,1,1,0,10.34A7.32,7.32,0,0,1,607.83,301.12Z"/><circle class="cls-63" cx="613" cy="306.29" r="5.87"/><path class="cls-34" d="M613.72,300.46a5.87,5.87,0,1,1-4.22,1.72A5.88,5.88,0,0,1,613.72,300.46Z"/><path class="cls-63" d="M612.07,309l.61-.84a1.43,1.43,0,0,0,1,.32,1.36,1.36,0,0,0,.64-.24l-1.39-1.39a8.22,8.22,0,0,1-1,.5,1.67,1.67,0,0,1-.88.06,1.53,1.53,0,0,1-.74-.42,1.56,1.56,0,0,1-.41-.67,1.82,1.82,0,0,1,0-.77,2.57,2.57,0,0,1,.26-.68,3.16,3.16,0,0,1,.34-.5l-.46-.46.58-.58.48.47a3.33,3.33,0,0,1,.64-.39,1.69,1.69,0,0,1,1-.17,2.14,2.14,0,0,1,.92.42l-.61.82a1.07,1.07,0,0,0-1.31-.06l1.23,1.22A10.83,10.83,0,0,1,614,305a1.54,1.54,0,0,1,.87-.1,1.52,1.52,0,0,1,.8.45,1.78,1.78,0,0,1,.47.9,1.9,1.9,0,0,1-.11,1.12,3,3,0,0,1-.51.84l.46.47-.58.58-.47-.47a2.51,2.51,0,0,1-1.28.61,2.35,2.35,0,0,1-1.6-.47Zm2.86-1.32a1.29,1.29,0,0,0,.32-.7.84.84,0,0,0-.24-.73.62.62,0,0,0-.61-.17,3.32,3.32,0,0,0-.72.34Zm-3.86-2.7a1.31,1.31,0,0,0-.31.61.69.69,0,0,0,.18.6.51.51,0,0,0,.35.17,1,1,0,0,0,.47-.08l.4-.21-1.09-1.09Z"/><path class="cls-74" d="M329.93,328.38a7.31,7.31,0,1,1-5.17,9,7.31,7.31,0,0,1,5.17-9Z"/><circle class="cls-63" cx="331.82" cy="335.45" r="5.87"/><path class="cls-34" d="M335.36,330.76a5.87,5.87,0,0,1-2,10.36,5.63,5.63,0,1,1-2.49-11,5.82,5.82,0,0,1,4.51.62Z"/><path class="cls-63" d="M329.69,337.29l.94-.42a1.32,1.32,0,0,0,1.39.9l-.51-1.9a7,7,0,0,1-1.12-.08,1.52,1.52,0,0,1-.79-.39,1.43,1.43,0,0,1-.43-.73,1.59,1.59,0,0,1,0-.78,1.86,1.86,0,0,1,.34-.69,2.81,2.81,0,0,1,.56-.46,3.1,3.1,0,0,1,.55-.26l-.17-.63.8-.21.17.65a2.79,2.79,0,0,1,.76,0,1.77,1.77,0,0,1,.92.33,2.27,2.27,0,0,1,.59.83l-.94.4a1.09,1.09,0,0,0-1.11-.71l.45,1.68q.87,0,1.26.06a1.67,1.67,0,0,1,.8.35,1.53,1.53,0,0,1,.47.79,1.69,1.69,0,0,1,0,1,1.86,1.86,0,0,1-.66.91,3,3,0,0,1-.86.48l.17.63-.79.21-.18-.64a2.49,2.49,0,0,1-1.41-.11,2.31,2.31,0,0,1-1.15-1.21Zm3.13.29a1.29,1.29,0,0,0,.63-.45.9.9,0,0,0,.16-.75.66.66,0,0,0-.45-.45,3.79,3.79,0,0,0-.8-.07l.46,1.72Zm-2-4.27a1.41,1.41,0,0,0-.57.37.73.73,0,0,0-.15.62.64.64,0,0,0,.22.32,1,1,0,0,0,.45.16h.45l-.4-1.48Z"/><rect class="cls-34" x="440.96" y="472.76" width="14.33" height="19.28"/><polygon class="cls-63" points="440.96 472.75 447.28 472.75 449.01 479.83 446 479.83 446 483.77 453.7 483.77 453.7 485.18 446 485.18 446 492.04 440.96 492.04 440.96 472.75"/><polygon class="cls-75" points="441.81 141.2 453.63 130.21 457.89 137.38 444.42 143.28 441.81 141.2"/><polygon class="cls-75" points="440.04 140.36 450.65 120.52 439.14 118 435.85 139.76 440.04 140.36"/><path class="cls-26" d="M591.13,355.75h11c.82,0,1.48.43,1.48,1h0c0,.53-.66,1-1.48,1h-11c-.82,0-1.48-.44-1.48-1h0C589.65,356.18,590.31,355.75,591.13,355.75Z"/><path class="cls-26" d="M606.18,355.75h6.27a.91.91,0,0,1,.84,1h0a.92.92,0,0,1-.84,1h-6.27a.92.92,0,0,1-.85-1h0A.91.91,0,0,1,606.18,355.75Z"/><path class="cls-26" d="M590.44,361.25H608c1.3,0,2.36.43,2.36,1h0c0,.53-1.06,1-2.36,1H590.44c-1.3,0-2.36-.43-2.36-1h0C588.08,361.68,589.14,361.25,590.44,361.25Z"/><path class="cls-27" d="M614.41,361.25h10c.74,0,1.34.43,1.34,1h0c0,.53-.6,1-1.34,1h-10c-.74,0-1.34-.43-1.34-1h0C613.07,361.68,613.67,361.25,614.41,361.25Z"/><path class="cls-27" d="M595.9,366.1h14.87c1.1,0,2,.43,2,1h0c0,.54-.89,1-2,1H595.9c-1.1,0-2-.43-2-1h0C593.9,366.53,594.8,366.1,595.9,366.1Z"/><path class="cls-26" d="M616.16,366.1h8.45a1.06,1.06,0,0,1,1.13,1h0a1.06,1.06,0,0,1-1.13,1h-8.45a1.06,1.06,0,0,1-1.13-1h0A1.06,1.06,0,0,1,616.16,366.1Z"/><polygon class="cls-76" points="634.79 365.7 648.64 364.36 649.74 364.43 641.53 375.63 640.44 375.55 638.82 372.73 606.41 389.93 605.32 389.85 600.34 380.03 581.53 386.84 580.44 386.77 602.49 374.01 603.59 374.09 608.29 384.25 636.27 368.28 634.79 365.7"/><path class="cls-27" d="M582.08,385.82,602.49,374l5,10.72,28.82-16.45-1.48-2.58,13.85-1.35-8.2,11.2-1.91-3.32-33.21,17.62-5.18-10.22-17.86,6.47a1.49,1.49,0,1,1-.2-.28Z"/></g></g></svg>