<svg id="Group_58" data-name="Group 58" xmlns="http://www.w3.org/2000/svg" width="164.12" height="164.12" viewBox="0 0 164.12 164.12">
  <g id="Ellipse_15" data-name="Ellipse 15" transform="translate(0 0)" fill="#fff" stroke="#dbca35" stroke-width="1">
    <ellipse cx="82.06" cy="82.06" rx="82.06" ry="82.06" stroke="none"/>
    <ellipse cx="82.06" cy="82.06" rx="81.56" ry="81.56" fill="none"/>
  </g>
  <g id="bank" transform="translate(42.18 42.18)">
    <g id="Group_31" data-name="Group 31" transform="translate(6.546 4.665)">
      <path id="Path_60" data-name="Path 60" d="M41.227,50.368V69.69h68.205V50.368l-34.1-19.69Z" transform="translate(-41.227 -30.678)" fill="#eceaec" fill-rule="evenodd"/>
    </g>
    <g id="Group_32" data-name="Group 32" transform="translate(1.193 1.191)">
      <path id="Path_61" data-name="Path 61" d="M7.929,34.377A3.13,3.13,0,0,0,12.2,35.52l.671-.387,34.1-19.69,34.1,19.69.671.387a3.122,3.122,0,0,0,3.119-5.41L48.681,9.223a3.652,3.652,0,0,0-3.429,0L9.072,30.11a3.135,3.135,0,0,0-1.143,4.267Z" transform="translate(-7.513 -8.795)" fill="#fceb55" fill-rule="evenodd"/>
    </g>
    <g id="Group_33" data-name="Group 33" transform="translate(1.195 43.677)">
      <path id="Path_62" data-name="Path 62" d="M11.94,282.2H85.7a.732.732,0,0,0,.729-.729V277.11a.732.732,0,0,0-.729-.729H8.254a.732.732,0,0,0-.729.729v4.357a.732.732,0,0,0,.729.729Z" transform="translate(-7.525 -276.381)" fill="#fceb55" fill-rule="evenodd"/>
    </g>
    <g id="Group_34" data-name="Group 34" transform="translate(5.61 49.492)">
      <path id="Path_63" data-name="Path 63" d="M38.661,318.2H51.767a.711.711,0,0,0,.707-.707V313H35.331v4.487a.711.711,0,0,0,.707.707Z" transform="translate(-35.331 -313.004)" fill="#eceaec" fill-rule="evenodd"/>
    </g>
    <g id="Group_35" data-name="Group 35" transform="translate(32.073 49.492)">
      <path id="Path_64" data-name="Path 64" d="M205.336,318.2h13.1a.712.712,0,0,0,.711-.707V313H202v4.487a.712.712,0,0,0,.711.707Z" transform="translate(-202.001 -313.004)" fill="#eceaec" fill-rule="evenodd"/>
    </g>
    <g id="Group_36" data-name="Group 36" transform="translate(58.54 49.492)">
      <path id="Path_65" data-name="Path 65" d="M369.409,318.2h15.725a.712.712,0,0,0,.711-.707V313H368.7v4.487A.712.712,0,0,0,369.409,318.2Z" transform="translate(-368.698 -313.004)" fill="#eceaec" fill-rule="evenodd"/>
    </g>
    <g id="Group_37" data-name="Group 37" transform="translate(61.875 54.685)">
      <path id="Path_66" data-name="Path 66" d="M389.7,345.715h10.477v14H389.7Z" transform="translate(-389.702 -345.715)" fill="#595959" fill-rule="evenodd"/>
    </g>
    <g id="Group_38" data-name="Group 38" transform="translate(35.407 54.685)">
      <path id="Path_67" data-name="Path 67" d="M223,345.715h10.477v14H223Z" transform="translate(-223.004 -345.715)" fill="#595959" fill-rule="evenodd"/>
    </g>
    <g id="Group_39" data-name="Group 39" transform="translate(8.94 54.685)">
      <path id="Path_68" data-name="Path 68" d="M56.306,345.715H66.788v14H56.306Z" transform="translate(-56.306 -345.715)" fill="#595959" fill-rule="evenodd"/>
    </g>
    <g id="Group_40" data-name="Group 40" transform="translate(5.61 68.682)">
      <path id="Path_69" data-name="Path 69" d="M35.331,439.064H52.473v-4.483a.712.712,0,0,0-.707-.711H36.038a.712.712,0,0,0-.707.711Z" transform="translate(-35.331 -433.87)" fill="#eceaec" fill-rule="evenodd"/>
    </g>
    <g id="Group_41" data-name="Group 41" transform="translate(58.54 68.682)">
      <path id="Path_70" data-name="Path 70" d="M368.7,439.064h17.147v-4.483a.713.713,0,0,0-.711-.711H369.409a.713.713,0,0,0-.711.711Z" transform="translate(-368.698 -433.87)" fill="#eceaec" fill-rule="evenodd"/>
    </g>
    <g id="Group_42" data-name="Group 42" transform="translate(32.072 68.682)">
      <path id="Path_71" data-name="Path 71" d="M202,439.064h17.147v-4.483a.713.713,0,0,0-.711-.711H202.711a.713.713,0,0,0-.711.711v4.483Z" transform="translate(-202 -433.87)" fill="#eceaec" fill-rule="evenodd"/>
    </g>
    <g id="Group_43" data-name="Group 43" transform="translate(1.195 73.876)">
      <path id="Path_72" data-name="Path 72" d="M8.253,472.4H85.7a.732.732,0,0,0,.729-.729v-4.357a.732.732,0,0,0-.729-.729H8.253a.732.732,0,0,0-.729.729v4.357a.732.732,0,0,0,.729.729Z" transform="translate(-7.524 -466.582)" fill="#fceb55" fill-rule="evenodd"/>
    </g>
    <g id="Group_44" data-name="Group 44" transform="translate(37.01 14.877)">
      <path id="Path_73" data-name="Path 73" d="M233.1,98.807a3.812,3.812,0,1,0,3.812-3.812A3.811,3.811,0,0,0,233.1,98.807Z" transform="translate(-233.095 -94.995)" fill="#595959" fill-rule="evenodd"/>
    </g>
    <g id="Group_45" data-name="Group 45" transform="translate(19.422 49.492)">
      <path id="Path_74" data-name="Path 74" d="M122.322,318.2v14h2.624a.712.712,0,0,1,.707.711v4.483h9.321v-4.483a.713.713,0,0,1,.711-.711h2.624v-14h-2.624a.712.712,0,0,1-.711-.707V313h-9.321v4.487a.711.711,0,0,1-.707.707Z" transform="translate(-122.322 -313.004)" fill="#b6b1b7" fill-rule="evenodd"/>
    </g>
    <g id="Group_46" data-name="Group 46" transform="translate(45.885 49.492)">
      <path id="Path_75" data-name="Path 75" d="M288.992,318.2v14h2.624a.713.713,0,0,1,.711.711v4.483h9.321v-4.483a.713.713,0,0,1,.711-.711h2.624v-14h-2.624a.712.712,0,0,1-.711-.707V313h-9.321v4.487a.712.712,0,0,1-.711.707Z" transform="translate(-288.992 -313.004)" fill="#b6b1b7" fill-rule="evenodd"/>
    </g>
    <g id="Group_47" data-name="Group 47" transform="translate(6.546 7.838)">
      <path id="Path_76" data-name="Path 76" d="M75.327,50.662l-34.1,19.69v4.429l34.1-19.69,34.1,19.69V70.352Z" transform="translate(-41.227 -50.662)" fill="#dad8db" fill-rule="evenodd"/>
    </g>
    <g id="Group_48" data-name="Group 48" transform="translate(37.01 14.877)">
      <path id="Path_77" data-name="Path 77" d="M236.908,94.995a3.815,3.815,0,0,0-3.6,5.054,3.811,3.811,0,0,1,7.138.185,3.766,3.766,0,0,0,.279-1.427A3.814,3.814,0,0,0,236.908,94.995Z" transform="translate(-233.096 -94.995)" fill="#3e3c3c" fill-rule="evenodd"/>
    </g>
    <g id="Group_49" data-name="Group 49" transform="translate(8.94 54.685)">
      <path id="Path_78" data-name="Path 78" d="M56.306,345.715H66.788v3.808H56.306Z" transform="translate(-56.306 -345.715)" fill="#3e3c3c" fill-rule="evenodd"/>
    </g>
    <g id="Group_50" data-name="Group 50" transform="translate(35.407 54.685)">
      <path id="Path_79" data-name="Path 79" d="M223,345.715h10.477v3.808H223Z" transform="translate(-223.004 -345.715)" fill="#3e3c3c" fill-rule="evenodd"/>
    </g>
    <g id="Group_51" data-name="Group 51" transform="translate(61.875 54.685)">
      <path id="Path_80" data-name="Path 80" d="M389.7,345.715h10.477v3.808H389.7Z" transform="translate(-389.702 -345.715)" fill="#3e3c3c" fill-rule="evenodd"/>
    </g>
    <g id="Group_52" data-name="Group 52" transform="translate(5.61 49.492)">
      <path id="Path_81" data-name="Path 81" d="M35.331,313H52.473v2.786H35.331Z" transform="translate(-35.331 -313.004)" fill="#dad8db" fill-rule="evenodd"/>
    </g>
    <g id="Group_53" data-name="Group 53" transform="translate(32.073 49.492)">
      <path id="Path_82" data-name="Path 82" d="M202,313h17.147v2.786H202Z" transform="translate(-202.001 -313.004)" fill="#dad8db" fill-rule="evenodd"/>
    </g>
    <g id="Group_54" data-name="Group 54" transform="translate(58.54 49.492)">
      <path id="Path_83" data-name="Path 83" d="M368.7,313h17.147v2.786H368.7Z" transform="translate(-368.698 -313.004)" fill="#dad8db" fill-rule="evenodd"/>
    </g>
    <g id="Group_56" data-name="Group 56" transform="translate(0 0)">
      <path id="Path_84" data-name="Path 84" d="M74.977,57.171a1.9,1.9,0,0,0,1.9-1.9v-3.3h2.5a1.922,1.922,0,0,0,1.92-1.92V45.7a1.922,1.922,0,0,0-1.92-1.92H75.942V30.692a4.249,4.249,0,0,0,1.027.128,4.354,4.354,0,0,0,1.131-.15,4.315,4.315,0,0,0,1.035-7.9L42.96,1.884a4.838,4.838,0,0,0-4.624,0L2.156,22.77a4.315,4.315,0,0,0,3.2,7.922V43.781H1.924A1.922,1.922,0,0,0,0,45.7v4.357a1.922,1.922,0,0,0,1.92,1.92H4.419v3.3a1.9,1.9,0,0,0,1.9,1.9H7.75V68.786H6.317a1.9,1.9,0,0,0-1.9,1.9V73.98H1.924A1.922,1.922,0,0,0,0,75.9v4.357a1.922,1.922,0,0,0,1.92,1.92H38.163a1.191,1.191,0,0,0,0-2.382H2.386V76.362H78.912V79.8H43.658a1.191,1.191,0,0,0,0,2.382H79.374a1.922,1.922,0,0,0,1.92-1.92V75.9a1.922,1.922,0,0,0-1.92-1.92h-2.5V70.688a1.9,1.9,0,0,0-1.9-1.9H73.544V57.171h1.433ZM5.281,28.179a1.939,1.939,0,0,1-2.64-.707h0a1.935,1.935,0,0,1,.708-2.639L39.531,3.943a2.289,2.289,0,0,1,1.116-.266,2.259,2.259,0,0,1,1.119.268l36.18,20.888a1.932,1.932,0,0,1-1.928,3.347L41.242,8.1a1.191,1.191,0,0,0-1.191,0ZM2.386,46.163H38.163a1.191,1.191,0,0,0,0-2.382H7.737V29.511l32.91-19,32.914,19v14.27H43.46a1.191,1.191,0,0,0,0,2.382H78.912V49.6H2.386ZM33.264,54.79V51.978H48.029V54.79Zm11.431,2.382V68.787H36.6V57.171ZM6.8,54.79V51.978H21.562V54.79Zm11.431,2.382V68.787h-8.1V57.171Zm3.33,16.809H6.8V71.168H21.562Zm9.32-3.292V73.98H23.943V70.688a1.9,1.9,0,0,0-1.9-1.9H20.613V57.171h1.433a1.9,1.9,0,0,0,1.9-1.9v-3.3h6.939v3.3a1.9,1.9,0,0,0,1.9,1.9h1.433V68.787H32.784A1.9,1.9,0,0,0,30.882,70.688ZM48.029,73.98H33.264V71.168H48.029Zm9.32-3.292V73.98H50.411V70.688a1.9,1.9,0,0,0-1.9-1.9H47.076V57.171h1.433a1.9,1.9,0,0,0,1.9-1.9v-3.3H57.35v3.3a1.9,1.9,0,0,0,1.9,1.9h1.433V68.787H59.252A1.9,1.9,0,0,0,57.35,70.688Zm17.147.48V73.98H59.732V71.168ZM63.066,68.787V57.171h8.1V68.787Zm-3.335-14V51.978H74.5V54.79Z" transform="translate(-0.001 -1.295)"/>
      <path id="Path_85" data-name="Path 85" d="M235.6,92.5a5,5,0,1,0-5,5A5.008,5.008,0,0,0,235.6,92.5Zm-7.624,0a2.621,2.621,0,1,1,2.621,2.621A2.624,2.624,0,0,1,227.977,92.5Z" transform="translate(-189.776 -73.809)"/>
      <g id="Group_55" data-name="Group 55" transform="translate(19.606 27.175)">
        <path id="Path_86" data-name="Path 86" d="M130.16,178.271a3.313,3.313,0,0,0-2.8-5.093h-2.686a1.191,1.191,0,0,0-1.191,1.191v9.248a1.191,1.191,0,0,0,1.191,1.191h.005s2.469-.011,3.15-.011a3.678,3.678,0,0,0,2.331-6.525Zm-2.8-2.711a.937.937,0,0,1,0,1.874l-1.5,0V175.56h1.5Zm.469,6.855c-.362,0-1.23,0-1.965.006v-2.6l1.965,0a1.3,1.3,0,0,1,0,2.6Z" transform="translate(-123.483 -173.062)"/>
        <path id="Path_87" data-name="Path 87" d="M193.412,174.079l-.012-.032a1.4,1.4,0,0,0-1.3-.868h0a1.4,1.4,0,0,0-1.3.87l-.011.027-3.472,9.117a1.191,1.191,0,0,0,2.226.848l.573-1.5h3.935l.566,1.5a1.191,1.191,0,1,0,2.228-.841Zm-2.382,6.077,1.07-2.808,1.06,2.808Z" transform="translate(-177.123 -173.063)"/>
        <path id="Path_88" data-name="Path 88" d="M271.42,173.179h-.012a1.191,1.191,0,0,0-1.179,1.2l.053,5.522-4.277-6.193a1.191,1.191,0,0,0-2.171.677v9.23a1.191,1.191,0,1,0,2.382,0v-5.41l4.071,5.895a1.312,1.312,0,0,0,1.482.545,1.359,1.359,0,0,0,.927-1.352l-.086-8.936A1.191,1.191,0,0,0,271.42,173.179Z" transform="translate(-241.551 -173.063)"/>
        <path id="Path_89" data-name="Path 89" d="M348.822,182.147l-4.159-4.013,3.806-3.5a1.191,1.191,0,0,0-1.612-1.754l-3.04,2.794v-2.036a1.191,1.191,0,0,0-2.382,0V183a1.191,1.191,0,1,0,2.382,0v-2.377l3.351,3.234a1.191,1.191,0,1,0,1.654-1.714Z" transform="translate(-306.83 -172.45)"/>
      </g>
    </g>
  </g>
</svg>
