<svg id="Group_29" data-name="Group 29" xmlns="http://www.w3.org/2000/svg" width="164.12" height="164.12" viewBox="0 0 164.12 164.12">
  <g id="Ellipse_14" data-name="Ellipse 14" transform="translate(0 0)" fill="#fff" stroke="#dbca35" stroke-width="1">
    <ellipse cx="82.06" cy="82.06" rx="82.06" ry="82.06" stroke="none"/>
    <ellipse cx="82.06" cy="82.06" rx="81.56" ry="81.56" fill="none"/>
  </g>
  <g id="official-documents" transform="translate(42.18 38.346)">
    <g id="Group_29-2" data-name="Group 29" transform="translate(1.648 1.648)">
      <path id="Path_45" data-name="Path 45" d="M23.194,10,10.013,23.181V91.066h60.8V10Z" transform="translate(-10.013 -10)" fill="#eefaff"/>
      <path id="Path_46" data-name="Path 46" d="M378.6,215.886a6.631,6.631,0,0,1-2.066,10.751c-4.014,1.748-11.24,7.138-14.335,10.234l-.953.951v0l-4.661-4.661.961-.959c3.128-3.135,8.551-10.279,10.321-14.28A6.618,6.618,0,0,1,378.6,215.886Z" transform="translate(-299.48 -180.331)" fill="#595959"/>
      <path id="Path_47" data-name="Path 47" d="M283.224,306.549a6.591,6.591,0,0,1,0,9.321l-2.33,2.33-23.3-23.3,2.33-2.33a6.588,6.588,0,0,1,9.321,0Z" transform="translate(-216.8 -244.398)" fill="#fceb55"/>
      <path id="Path_48" data-name="Path 48" d="M136.013,136h33.448v6.591H136.013Z" transform="translate(-115.252 -115.239)" fill="#9bc5ff"/>
      <ellipse id="Ellipse_11" data-name="Ellipse 11" cx="7.669" cy="5.752" rx="7.669" ry="5.752" transform="translate(29.026 63.54)" fill="#fceb55"/>
      <path id="Path_49" data-name="Path 49" d="M50.013,136h14.17v6.591H50.013Z" transform="translate(-43.422 -115.239)" fill="#8690a6"/>
    </g>
    <g id="Group_30" data-name="Group 30" transform="translate(0 0)">
      <ellipse id="Ellipse_12" data-name="Ellipse 12" cx="1.917" cy="1.917" rx="1.917" ry="1.917" transform="translate(34.508 53.684)"/>
      <path id="Path_50" data-name="Path 50" d="M40.013,127.648v6.591a1.648,1.648,0,0,0,1.648,1.648H89.278a1.648,1.648,0,0,0,1.648-1.648v-6.591A1.648,1.648,0,0,0,89.278,126H41.661A1.648,1.648,0,0,0,40.013,127.648ZM57.478,129.3H87.631v3.3H57.478Zm-14.17,0H54.183v3.3H43.308Z" transform="translate(-33.422 -105.239)"/>
      <path id="Path_51" data-name="Path 51" d="M41.661,209.3H89.278a1.648,1.648,0,0,0,0-3.3H41.661a1.648,1.648,0,0,0,0,3.3Z" transform="translate(-33.422 -172.058)"/>
      <path id="Path_52" data-name="Path 52" d="M41.661,249.3H89.278a1.648,1.648,0,0,0,0-3.3H41.661a1.648,1.648,0,0,0,0,3.3Z" transform="translate(-33.422 -205.467)"/>
      <path id="Path_53" data-name="Path 53" d="M41.661,289.3H69.012a1.648,1.648,0,1,0,0-3.3H41.661a1.648,1.648,0,1,0,0,3.3Z" transform="translate(-33.422 -238.877)"/>
      <path id="Path_54" data-name="Path 54" d="M41.661,329.3H62.421a1.648,1.648,0,0,0,0-3.3H41.661a1.648,1.648,0,0,0,0,3.3Z" transform="translate(-33.422 -272.286)"/>
      <path id="Path_55" data-name="Path 55" d="M127.661,375.886h8.4a8.238,8.238,0,1,0,0-3.3h-8.4a1.648,1.648,0,0,0,0,3.3Zm16.477-3.3h-4.66a4.943,4.943,0,1,1,0,3.3h4.66a1.648,1.648,0,0,0,0-3.3Z" transform="translate(-105.252 -305.695)"/>
      <path id="Path_56" data-name="Path 56" d="M313.956,63.3a1.648,1.648,0,0,0,0-3.3h-3.3a1.648,1.648,0,0,0,0,3.3Z" transform="translate(-258.1 -50.114)"/>
      <path id="Path_57" data-name="Path 57" d="M253.956,63.3a1.648,1.648,0,0,0,0-3.3h-3.3a1.648,1.648,0,0,0,0,3.3Z" transform="translate(-207.986 -50.114)"/>
      <path id="Path_58" data-name="Path 58" d="M193.956,63.3a1.648,1.648,0,0,0,0-3.3h-3.3a1.648,1.648,0,1,0,0,3.3Z" transform="translate(-157.872 -50.114)"/>
      <ellipse id="Ellipse_13" data-name="Ellipse 13" cx="1.917" cy="1.917" rx="1.917" ry="1.917" transform="translate(30.674 80.526)"/>
      <path id="Path_59" data-name="Path 59" d="M1.661,84.361H24.893a1.648,1.648,0,1,0,0-3.3H3.308V16.477H14.842a1.648,1.648,0,0,0,1.648-1.648V3.3H60.812V49.867c-.747.884-1.445,1.661-2.049,2.28L55.27,48.654a8.232,8.232,0,0,0-11.652,0l-2.33,2.33a1.648,1.648,0,0,0,0,2.33L60.812,72.837v8.228H39.722a1.648,1.648,0,1,0,0,3.3H62.46a1.648,1.648,0,0,0,1.648-1.648v-6.58l.483.483a1.648,1.648,0,0,0,2.33,0l2.33-2.33a8.235,8.235,0,0,0,0-11.651l-3.493-3.493c3.125-3.045,10-8.1,13.613-9.677A8.258,8.258,0,1,0,68.539,38.572a44.077,44.077,0,0,1-4.432,7.1V1.648A1.648,1.648,0,0,0,62.46,0H14.842a1.666,1.666,0,0,0-1.165.483L.5,13.664a1.655,1.655,0,0,0-.483,1.165V82.713a1.648,1.648,0,0,0,1.648,1.648Zm65.259-19.4a4.941,4.941,0,0,1,0,6.991L65.755,73.12,44.784,52.149l1.165-1.165a4.938,4.938,0,0,1,6.99,0ZM63.751,51.49c2.855-3.444,6.375-8.361,7.8-11.585a4.963,4.963,0,1,1,6.5,6.538c-4.1,1.786-11.236,7.052-14.627,10.368l-2.334-2.334C61.874,53.678,62.787,52.654,63.751,51.49ZM13.194,5.625v7.556H5.638Z" transform="translate(-0.013 0)"/>
    </g>
  </g>
</svg>
