<svg id="Group_22" data-name="Group 22" xmlns="http://www.w3.org/2000/svg" width="164.116" height="164.117" viewBox="0 0 164.116 164.117">
  <g id="Path_19" data-name="Path 19" transform="translate(0 0)" fill="#fff">
    <path d="M 82.05818939208984 163.6166229248047 C 76.52425384521484 163.6166229248047 70.99391937255859 163.0591278076172 65.62083435058594 161.9596405029297 C 60.38456344604492 160.8881378173828 55.23400115966797 159.289306640625 50.31221008300781 157.2075653076172 C 45.47966766357422 155.1635589599609 40.81862640380859 152.6336517333984 36.45858383178711 149.6880340576172 C 32.13983535766602 146.7703247070313 28.07864761352539 143.4195404052734 24.3878345489502 139.7287445068359 C 20.69704437255859 136.0379333496094 17.34625244140625 131.9767456054688 14.42856407165527 127.6579818725586 C 11.48298072814941 123.2979354858398 8.953043937683105 118.6368942260742 6.909043788909912 113.804328918457 C 4.827293395996094 108.8825378417969 3.22848105430603 103.7319564819336 2.156980991363525 98.49568939208984 C 1.057481050491333 93.12260437011719 0.5000019073486328 87.59226989746094 0.5000019073486328 82.05831146240234 C 0.5000019073486328 76.52435302734375 1.057481050491333 70.9940185546875 2.156980991363525 65.62093353271484 C 3.22848105430603 60.38466644287109 4.827293395996094 55.23408126831055 6.909043788909912 50.31229019165039 C 8.953043937683105 45.47972869873047 11.48298072814941 40.81868743896484 14.42856407165527 36.45864486694336 C 17.34625244140625 32.13987350463867 20.69704437255859 28.07868576049805 24.3878345489502 24.38787460327148 C 28.07864761352539 20.69708251953125 32.13983535766602 17.34629058837891 36.45858383178711 14.42858219146729 C 40.81862640380859 11.48297786712646 45.47966766357422 8.953061103820801 50.31221008300781 6.909061431884766 C 55.23400115966797 4.827311515808105 60.38456344604492 3.228478193283081 65.62083435058594 2.156978130340576 C 70.99391937255859 1.057498931884766 76.52425384521484 0.4999989569187164 82.05818939208984 0.4999989569187164 C 87.59212493896484 0.4999989569187164 93.12245941162109 1.057498931884766 98.49552154541016 2.156978130340576 C 103.7317962646484 3.228478193283081 108.8823547363281 4.827311515808105 113.8041458129883 6.909061431884766 C 118.6367111206055 8.953061103820801 123.2977294921875 11.48297786712646 127.6577911376953 14.42858219146729 C 131.9765472412109 17.34629058837891 136.0377349853516 20.69708251953125 139.728515625 24.38787460327148 C 143.4193420410156 28.07868576049805 146.7701110839844 32.13987350463867 149.6878204345703 36.45864486694336 C 152.6333923339844 40.81868743896484 155.163330078125 45.47972869873047 157.2073364257813 50.31229019165039 C 159.2890625 55.23408126831055 160.8878936767578 60.38466644287109 161.9593963623047 65.62093353271484 C 163.0588989257813 70.9940185546875 163.6163787841797 76.52435302734375 163.6163787841797 82.05831146240234 C 163.6163787841797 87.59226989746094 163.0588989257813 93.12260437011719 161.9593963623047 98.49568939208984 C 160.8878936767578 103.7319564819336 159.2890625 108.8825378417969 157.2073364257813 113.804328918457 C 155.163330078125 118.6368942260742 152.6333923339844 123.2979354858398 149.6878204345703 127.6579818725586 C 146.7701110839844 131.9767456054688 143.4193420410156 136.0379333496094 139.728515625 139.7287445068359 C 136.0377349853516 143.4195404052734 131.9765472412109 146.7703247070313 127.6577911376953 149.6880340576172 C 123.2977294921875 152.6336517333984 118.6367111206055 155.1635589599609 113.8041458129883 157.2075653076172 C 108.8823547363281 159.289306640625 103.7317962646484 160.8881378173828 98.49552154541016 161.9596405029297 C 93.12245941162109 163.0591278076172 87.59212493896484 163.6166229248047 82.05818939208984 163.6166229248047 Z" stroke="none"/>
    <path d="M 82.05818939208984 1 C 76.55783843994141 1 71.06124877929688 1.5540771484375 65.72108459472656 2.646835327148438 C 60.51715087890625 3.711700439453125 55.39837646484375 5.3006591796875 50.50700378417969 7.36956787109375 C 45.70419311523438 9.400985717773438 41.07179260253906 11.91537475585938 36.73847961425781 14.8428955078125 C 32.44610595703125 17.74276733398438 28.40968322753906 21.0731201171875 24.74139404296875 24.74140930175781 C 21.07310485839844 28.40972900390625 17.74275207519531 32.44615173339844 14.84288024902344 36.73854064941406 C 11.91535949707031 41.07183074951172 9.400955200195313 45.70424652099609 7.369537353515625 50.50706481933594 C 5.300674438476563 55.39846038818359 3.711715698242188 60.51722717285156 2.646835327148438 65.72116851806641 C 1.554092407226563 71.06135559082031 1 76.55796051025391 1 82.05831146240234 C 1 87.55866241455078 1.554092407226563 93.05526733398438 2.646835327148438 98.39543914794922 C 3.711715698242188 103.5993957519531 5.300674438476563 108.7181396484375 7.369537353515625 113.6095581054688 C 9.400955200195313 118.4123687744141 11.91535949707031 123.0447692871094 14.84288024902344 127.3780822753906 C 17.74275207519531 131.6704711914063 21.07310485839844 135.7068939208984 24.74139404296875 139.3751831054688 C 28.40968322753906 143.0435028076172 32.44610595703125 146.3738403320313 36.73847961425781 149.2737274169922 C 41.07179260253906 152.2012481689453 45.70419311523438 154.7156372070313 50.50700378417969 156.7470550537109 C 55.39837646484375 158.8159637451172 60.51715087890625 160.4049224853516 65.72108459472656 161.4697875976563 C 71.06124877929688 162.5625457763672 76.55783843994141 163.1166229248047 82.05818939208984 163.1166229248047 C 87.55854034423828 163.1166229248047 93.05513000488281 162.5625457763672 98.39529418945313 161.4697875976563 C 103.5992279052734 160.4049224853516 108.7179794311523 158.8159637451172 113.609375 156.7470550537109 C 118.4121856689453 154.7156372070313 123.0445861816406 152.2012481689453 127.3778762817383 149.2737274169922 C 131.6702728271484 146.3738403320313 135.7066650390625 143.0435028076172 139.3749847412109 139.3751831054688 C 143.0432739257813 135.7068939208984 146.3736114501953 131.6704711914063 149.2734985351563 127.3780822753906 C 152.2010192871094 123.0447692871094 154.7154235839844 118.4123687744141 156.7468414306641 113.6095581054688 C 158.8157043457031 108.7181396484375 160.4046630859375 103.5993957519531 161.4695434570313 98.39543914794922 C 162.5622863769531 93.05526733398438 163.1163787841797 87.55866241455078 163.1163787841797 82.05831146240234 C 163.1163787841797 76.55796051025391 162.5622863769531 71.06135559082031 161.4695434570313 65.72116851806641 C 160.4046630859375 60.51722717285156 158.8157043457031 55.39846038818359 156.7468414306641 50.50706481933594 C 154.7154235839844 45.70424652099609 152.2010192871094 41.07183074951172 149.2734985351563 36.73854064941406 C 146.3736114501953 32.44615173339844 143.0432739257813 28.40972900390625 139.3749847412109 24.74140930175781 C 135.7066650390625 21.0731201171875 131.6702728271484 17.74276733398438 127.3778762817383 14.8428955078125 C 123.0445861816406 11.91537475585938 118.4121856689453 9.400985717773438 113.609375 7.36956787109375 C 108.7179794311523 5.3006591796875 103.5992279052734 3.711700439453125 98.39529418945313 2.646835327148438 C 93.05513000488281 1.5540771484375 87.55854034423828 1 82.05818939208984 1 M 82.05818939208984 0 C 127.3776473999023 0 164.1163787841797 36.73874664306641 164.1163787841797 82.05831146240234 C 164.1163787841797 127.3778533935547 127.3776473999023 164.1166229248047 82.05818939208984 164.1166229248047 C 36.73870849609375 164.1166229248047 0 127.3778533935547 0 82.05831146240234 C 0 36.73874664306641 36.73870849609375 0 82.05818939208984 0 Z" stroke="none" fill="#dbca35"/>
  </g>
  <g id="information" transform="translate(38.87 38.87)">
    <g id="Group_25" data-name="Group 25" transform="translate(1.294 1.281)">
      <g id="Group_23" data-name="Group 23">
        <g id="Group_22-2" data-name="Group 22" transform="translate(0 38.145)">
          <path id="Path_3" data-name="Path 3" d="M125.883,269.39H57.291V232.152a3.68,3.68,0,0,1,3.68-3.68H122.2a3.68,3.68,0,0,1,3.68,3.68Z" transform="translate(-48.697 -228.472)" fill="#595959"/>
          <path id="Path_4" data-name="Path 4" d="M400.29,228.472h-6.9a3.68,3.68,0,0,1,3.68,3.68V269.39h6.9V232.152A3.68,3.68,0,0,0,400.29,228.472Z" transform="translate(-326.784 -228.472)" fill="#3e3c3c"/>
          <path id="Path_5" data-name="Path 5" d="M89.6,472.265H11.18a3.68,3.68,0,0,1-3.68-3.68v-3.036H93.28v3.036A3.68,3.68,0,0,1,89.6,472.265Z" transform="translate(-7.5 -424.631)" fill="#595959"/>
          <path id="Path_6" data-name="Path 6" d="M446.858,465.549v3.036a3.68,3.68,0,0,1-3.68,3.68h6.9a3.68,3.68,0,0,0,3.68-3.68v-3.036Z" transform="translate(-367.982 -424.631)" fill="#3e3c3c"/>
          <path id="Path_7" data-name="Path 7" d="M92.758,264.007h56.35v34.785H92.758Z" transform="translate(-78.043 -257.874)" fill="#d9ddff"/>
        </g>
        <path id="Path_8" data-name="Path 8" d="M154.013,11.622a24.091,24.091,0,1,0-16.949,43.786l3.391,5.235,3.567-5.256a24.089,24.089,0,0,0,9.991-43.765Z" transform="translate(-97.595 -7.462)" fill="#fceb55"/>
        <path id="Path_9" data-name="Path 9" d="M253.05,11.622A24.011,24.011,0,0,0,236.084,7.71a24.094,24.094,0,0,1,.071,47.678l-.035.051,3.372,5.2,3.567-5.256a24.089,24.089,0,0,0,9.991-43.765Z" transform="translate(-196.632 -7.462)" fill="#ffc919"/>
      </g>
      <g id="Group_24" data-name="Group 24" transform="translate(39.694 10.687)">
        <path id="Path_10" data-name="Path 10" d="M240.682,150.43a3.2,3.2,0,0,1-3.2-3.2V136.762a3.2,3.2,0,0,1,6.391,0v10.472A3.2,3.2,0,0,1,240.682,150.43Z" transform="translate(-237.486 -122.489)" fill="#fff"/>
        <path id="Path_11" data-name="Path 11" d="M240.682,75.773a3.2,3.2,0,1,1,3.2-3.2A3.2,3.2,0,0,1,240.682,75.773Z" transform="translate(-237.486 -69.382)" fill="#fff"/>
      </g>
    </g>
    <g id="Group_26" data-name="Group 26" transform="translate(0 0)">
      <path id="Path_12" data-name="Path 12" d="M87.074,79.09h-7.3V43.146A4.98,4.98,0,0,0,74.8,38.171H66.138a25.392,25.392,0,0,0-40.959-29.6,1.294,1.294,0,1,0,1.94,1.715A22.8,22.8,0,1,1,47.531,47.966a1.294,1.294,0,0,0-.881.554L44.18,52.16l-2.33-3.6a1.294,1.294,0,0,0-.9-.578A22.809,22.809,0,0,1,23.541,15.728a1.294,1.294,0,1,0-2.342-1.1,25.4,25.4,0,0,0,1.036,23.546H13.568a4.98,4.98,0,0,0-4.975,4.975V79.09h-7.3A1.294,1.294,0,0,0,0,80.384V83.42a4.98,4.98,0,0,0,4.975,4.975H83.394a4.98,4.98,0,0,0,4.975-4.975V80.384A1.294,1.294,0,0,0,87.074,79.09ZM64.419,40.751a1.305,1.305,0,0,0,.159.01H74.8a2.388,2.388,0,0,1,2.386,2.386V79.09H73.654V45.6A1.294,1.294,0,0,0,72.359,44.3H61.143A25.315,25.315,0,0,0,64.419,40.751Zm-53.237,2.4a2.388,2.388,0,0,1,2.386-2.386H23.79a1.3,1.3,0,0,0,.163-.01A25.4,25.4,0,0,0,27.225,44.3H16.01A1.294,1.294,0,0,0,14.715,45.6V79.09H11.183ZM85.78,83.42a2.388,2.388,0,0,1-2.386,2.386H4.975A2.388,2.388,0,0,1,2.589,83.42V81.679H60.705a1.294,1.294,0,1,0,0-2.589H17.3v-32.2H30.089a1.292,1.292,0,0,0,.441-.077,25.1,25.1,0,0,0,9.462,3.642l3.076,4.748a1.294,1.294,0,0,0,2.157.023l3.253-4.793a25.428,25.428,0,0,0,9.237-3.546c.034,0,.069,0,.1,0H71.064v32.2H67.6a1.294,1.294,0,0,0,0,2.589H85.78Z" transform="translate(0 -0.04)"/>
      <path id="Path_13" data-name="Path 13" d="M229.986,141.028a4.49,4.49,0,1,0,8.98,0V130.556a4.49,4.49,0,1,0-8.98,0Zm2.589-10.472a1.9,1.9,0,1,1,3.8,0v10.472a1.9,1.9,0,1,1-3.8,0Z" transform="translate(-190.292 -104.314)"/>
      <path id="Path_14" data-name="Path 14" d="M234.476,70.861a4.49,4.49,0,1,0-4.49-4.49A4.495,4.495,0,0,0,234.476,70.861Zm0-6.391a1.9,1.9,0,1,1-1.9,1.9A1.9,1.9,0,0,1,234.476,64.47Z" transform="translate(-190.292 -51.207)"/>
      <path id="Path_15" data-name="Path 15" d="M131.634,319.765h9.629a1.294,1.294,0,1,0,0-2.589h-9.629a1.294,1.294,0,1,0,0,2.589Z" transform="translate(-107.844 -262.44)"/>
      <path id="Path_16" data-name="Path 16" d="M321.793,317.176h-9.629a1.294,1.294,0,1,0,0,2.589h9.629a1.294,1.294,0,1,0,0-2.589Z" transform="translate(-257.215 -262.44)"/>
      <path id="Path_17" data-name="Path 17" d="M172.422,360.674H131.634a1.294,1.294,0,1,0,0,2.589h40.788a1.294,1.294,0,1,0,0-2.589Z" transform="translate(-107.844 -298.43)"/>
      <path id="Path_18" data-name="Path 18" d="M205.163,404.172H181.635a1.294,1.294,0,1,0,0,2.589h23.528a1.294,1.294,0,0,0,0-2.589Z" transform="translate(-149.214 -334.421)"/>
    </g>
  </g>
</svg>
