<svg id="Group_28" data-name="Group 28" xmlns="http://www.w3.org/2000/svg" width="164.12" height="164.12" viewBox="0 0 164.12 164.12">
  <g id="Ellipse_10" data-name="Ellipse 10" transform="translate(0 0)" fill="#fff" stroke="#dbca35" stroke-width="1">
    <ellipse cx="82.06" cy="82.06" rx="82.06" ry="82.06" stroke="none"/>
    <ellipse cx="82.06" cy="82.06" rx="81.56" ry="81.56" fill="none"/>
  </g>
  <g id="store" transform="translate(38.754 43.569)">
    <rect id="Rectangle_6" data-name="Rectangle 6" width="70.836" height="60.629" transform="translate(7.216 12.642)" fill="#e9eaeb"/>
    <rect id="Rectangle_7" data-name="Rectangle 7" width="8.993" height="60.629" transform="translate(69.059 12.642)" fill="#b9bbc1"/>
    <path id="Path_20" data-name="Path 20" d="M113.177,45.543H41.847V35.591a1.44,1.44,0,0,1,1.44-1.44h68.45a1.44,1.44,0,0,1,1.44,1.44v9.953Z" transform="translate(-34.878 -32.902)" fill="#fceb55"/>
    <path id="Path_21" data-name="Path 21" d="M423.707,34.151h-7.554v7.492h8.993V35.591A1.44,1.44,0,0,0,423.707,34.151Z" transform="translate(-346.847 -32.902)" fill="#d8c730"/>
    <path id="Path_22" data-name="Path 22" d="M13.79,157.319h0a5.9,5.9,0,0,1-5.9-5.9v-4.809H19.693v4.809A5.9,5.9,0,0,1,13.79,157.319Z" transform="translate(-6.574 -126.63)" fill="#d8c730"/>
    <path id="Path_23" data-name="Path 23" d="M84.679,157.319h0a5.9,5.9,0,0,1-5.9-5.9v-4.809H90.582v4.809A5.9,5.9,0,0,1,84.679,157.319Z" transform="translate(-65.657 -126.63)" fill="#f2f2f2"/>
    <path id="Path_24" data-name="Path 24" d="M155.569,157.319h0a5.9,5.9,0,0,1-5.9-5.9v-4.809h11.806v4.809A5.9,5.9,0,0,1,155.569,157.319Z" transform="translate(-124.741 -126.63)" fill="#d8c730"/>
    <path id="Path_25" data-name="Path 25" d="M226.458,157.319h0a5.9,5.9,0,0,1-5.9-5.9v-4.809h11.806v4.809A5.9,5.9,0,0,1,226.458,157.319Z" transform="translate(-183.824 -126.63)" fill="#f2f2f2"/>
    <path id="Path_26" data-name="Path 26" d="M297.348,157.319h0a5.9,5.9,0,0,1-5.9-5.9v-4.809h11.806v4.809A5.9,5.9,0,0,1,297.348,157.319Z" transform="translate(-242.908 -126.63)" fill="#d8c730"/>
    <path id="Path_27" data-name="Path 27" d="M368.237,157.319h0a5.9,5.9,0,0,1-5.9-5.9v-4.809H374.14v4.809A5.9,5.9,0,0,1,368.237,157.319Z" transform="translate(-301.991 -126.63)" fill="#f2f2f2"/>
    <path id="Path_28" data-name="Path 28" d="M439.126,157.319h0a5.9,5.9,0,0,1-5.9-5.9v-4.809h11.806v4.809A5.9,5.9,0,0,1,439.126,157.319Z" transform="translate(-361.074 -126.63)" fill="#d8c730"/>
    <path id="Path_29" data-name="Path 29" d="M19.693,90.376H7.887l5.65-11.236H23.728Z" transform="translate(-6.574 -70.398)" fill="#fceb55"/>
    <path id="Path_30" data-name="Path 30" d="M90.582,90.376H78.776L82.812,79.14H93Z" transform="translate(-65.657 -70.398)" fill="#fff"/>
    <path id="Path_31" data-name="Path 31" d="M161.472,90.376H149.666l2.421-11.236h10.192Z" transform="translate(-124.741 -70.398)" fill="#fceb55"/>
    <path id="Path_32" data-name="Path 32" d="M232.361,90.376H220.555l.807-11.236h10.191Z" transform="translate(-183.824 -70.398)" fill="#fff"/>
    <path id="Path_33" data-name="Path 33" d="M299.211,90.376H287.405L286.6,79.14H296.79Z" transform="translate(-238.868 -70.398)" fill="#fceb55"/>
    <path id="Path_34" data-name="Path 34" d="M362.022,90.376H350.216L347.795,79.14h10.192Z" transform="translate(-289.873 -70.398)" fill="#fff"/>
    <path id="Path_35" data-name="Path 35" d="M424.833,90.376H413.028L408.992,79.14h10.192Z" transform="translate(-340.879 -70.398)" fill="#fceb55"/>
    <path id="Path_36" data-name="Path 36" d="M87.574,433.349H10.2a2.7,2.7,0,0,0-2.7,2.7V440a.764.764,0,0,0,.764.764H89.506A.764.764,0,0,0,90.27,440v-3.951A2.7,2.7,0,0,0,87.574,433.349Z" transform="translate(-6.251 -365.618)" fill="#595959"/>
    <path id="Path_37" data-name="Path 37" d="M456.659,433.349h-6.325v7.411h8.257a.764.764,0,0,0,.764-.764v-3.951A2.7,2.7,0,0,0,456.659,433.349Z" transform="translate(-375.336 -365.618)" fill="#3e3c3c"/>
    <path id="Path_38" data-name="Path 38" d="M239.434,274.891H203.074A1.074,1.074,0,0,1,202,273.817V253.809a1.074,1.074,0,0,1,1.074-1.074h36.359a1.074,1.074,0,0,1,1.074,1.074v20.007A1.074,1.074,0,0,1,239.434,274.891Z" transform="translate(-168.359 -215.083)" fill="#00c6c8"/>
    <path id="Path_39" data-name="Path 39" d="M387,252.735h-7.947v22.155H387a1.074,1.074,0,0,0,1.074-1.074V253.809A1.074,1.074,0,0,0,387,252.735Z" transform="translate(-315.929 -215.083)" fill="#0fb0c0"/>
    <path id="Path_40" data-name="Path 40" d="M88.316,282.815H71.727V253.809a1.074,1.074,0,0,1,1.074-1.074h14.44a1.074,1.074,0,0,1,1.074,1.074v29.005Z" transform="translate(-59.782 -215.083)" fill="#00c6c8"/>
    <path id="Path_41" data-name="Path 41" d="M125.116,252.735h-7.947v30.08h9.021V253.809A1.074,1.074,0,0,0,125.116,252.735Z" transform="translate(-97.656 -215.083)" fill="#0fb0c0"/>
    <path id="Path_42" data-name="Path 42" d="M137.249,331a1.249,1.249,0,0,0,1.249-1.249V327.5a1.249,1.249,0,0,0-2.5,0v2.248A1.249,1.249,0,0,0,137.249,331Z" transform="translate(-113.351 -276.359)"/>
    <path id="Path_43" data-name="Path 43" d="M81.323,93.133H79.3V58.478a7.162,7.162,0,0,0,5.9-7.041V46.629c0-.024,0-.048,0-.073s0-.027,0-.04a1.251,1.251,0,0,0-.021-.145l0-.008a1.231,1.231,0,0,0-.037-.133l-.012-.033c-.014-.037-.029-.074-.046-.109,0-.006-.005-.013-.008-.02L79.548,35.084V29.34a2.692,2.692,0,0,0-2.689-2.689h-56.8a1.249,1.249,0,1,0,0,2.5h56.8a.191.191,0,0,1,.191.191v4.8H8.218v-4.8a.191.191,0,0,1,.191-.191h5.84a1.249,1.249,0,1,0,0-2.5H8.409A2.692,2.692,0,0,0,5.72,29.34v5.745L.2,46.067l-.008.02c-.017.035-.032.072-.046.109l-.012.033a1.229,1.229,0,0,0-.037.133l0,.008a1.221,1.221,0,0,0-.021.145c0,.013,0,.027,0,.04s0,.048,0,.073v4.809a7.162,7.162,0,0,0,5.9,7.041V93.133H3.945A3.95,3.95,0,0,0,0,97.078v3.951a2.016,2.016,0,0,0,2.013,2.013H83.255a2.016,2.016,0,0,0,2.013-2.013V97.078A3.949,3.949,0,0,0,81.323,93.133Zm1.382-41.7a4.654,4.654,0,1,1-9.308,0v-3.56h9.308v3.56Zm-5.171-14.8,4.394,8.738h-8.9l-3.138-8.738Zm-10.3,0,3.138,8.738H61.351l-1.883-8.738ZM70.9,47.878v3.56a4.654,4.654,0,1,1-9.308,0v-3.56ZM56.913,36.642,58.8,45.38H49.7l-.628-8.738Zm2.181,11.236v3.56a4.654,4.654,0,1,1-9.308,0v-3.56ZM38.7,36.642h7.866l.628,8.738H38.073ZM37.98,47.878h9.308v3.56a4.654,4.654,0,1,1-9.308,0ZM42.634,58.59a7.149,7.149,0,0,0,5.9-3.12,7.144,7.144,0,0,0,11.806,0,7.145,7.145,0,0,0,11.806,0A7.164,7.164,0,0,0,76.8,58.478V93.133H29.783V65.377a2.326,2.326,0,0,0-2.323-2.323H13.02A2.326,2.326,0,0,0,10.7,65.377V93.133H8.466V58.478a7.164,7.164,0,0,0,4.654-3.008,7.145,7.145,0,0,0,11.806,0,7.145,7.145,0,0,0,11.806,0A7.148,7.148,0,0,0,42.634,58.59ZM27.285,65.552V93.133H13.194V65.552ZM14.368,51.438v-3.56h9.308v3.56a4.654,4.654,0,1,1-9.308,0Zm13.987-14.8H36.2l-.628,8.738h-9.1ZM26.174,47.878h9.308v3.56a4.654,4.654,0,1,1-9.308,0v-3.56ZM25.8,36.642,23.917,45.38H14.9l3.138-8.738Zm-18.066,0h7.646L12.241,45.38H3.34Zm-5.171,14.8v-3.56H11.87v3.56a4.654,4.654,0,1,1-9.308,0ZM82.77,100.544H2.5V97.078a1.448,1.448,0,0,1,1.447-1.447H81.323a1.448,1.448,0,0,1,1.447,1.447v3.466Z" transform="translate(0 -26.651)"/>
    <path id="Path_44" data-name="Path 44" d="M194.5,247.558v20.008a2.326,2.326,0,0,0,2.323,2.323h36.359a2.326,2.326,0,0,0,2.323-2.323V247.558a2.326,2.326,0,0,0-2.323-2.323H217.909a1.249,1.249,0,1,0,0,2.5h15.1v19.657H197V247.733h15.03a1.249,1.249,0,0,0,0-2.5H196.823A2.326,2.326,0,0,0,194.5,247.558Z" transform="translate(-162.108 -208.832)"/>
  </g>
</svg>
