<svg id="Group_60" data-name="Group 60" xmlns="http://www.w3.org/2000/svg" width="164.12" height="164.12" viewBox="0 0 164.12 164.12">
  <g id="Ellipse_17" data-name="Ellipse 17" transform="translate(0 0)" fill="#fff" stroke="#dbca35" stroke-width="1">
    <ellipse cx="82.06" cy="82.06" rx="82.06" ry="82.06" stroke="none"/>
    <ellipse cx="82.06" cy="82.06" rx="81.56" ry="81.56" fill="none"/>
  </g>
  <g id="tax" transform="translate(34.511 34.511)">
    <path id="Path_90" data-name="Path 90" d="M24,40H94.3v89.467H24Z" transform="translate(-22.402 -35.207)" fill="#595959"/>
    <path id="Path_91" data-name="Path 91" d="M56,88h57.515v73.491H56Z" transform="translate(-48.012 -73.621)" fill="#e9eef2"/>
    <path id="Path_92" data-name="Path 92" d="M344,456h22.367v6.391H344Z" transform="translate(-278.497 -368.13)" fill="#ffb632"/>
    <path id="Path_93" data-name="Path 93" d="M328,424h22.367v6.391H328Z" transform="translate(-265.693 -342.521)" fill="#ffd33a"/>
    <path id="Path_94" data-name="Path 94" d="M344,392h22.367v6.391H344Z" transform="translate(-278.497 -316.911)" fill="#ffb632"/>
    <path id="Path_95" data-name="Path 95" d="M328,360h22.367v6.39H328Z" transform="translate(-265.693 -291.302)" fill="#ffd33a"/>
    <path id="Path_96" data-name="Path 96" d="M344,328h22.367v6.391H344Z" transform="translate(-278.497 -265.692)" fill="#ffb632"/>
    <path id="Path_97" data-name="Path 97" d="M328,296h22.367v6.391H328Z" transform="translate(-265.693 -240.083)" fill="#ffd33a"/>
    <path id="Path_98" data-name="Path 98" d="M344,264h22.367v6.391H344Z" transform="translate(-278.497 -214.473)" fill="#ffb632"/>
    <ellipse id="Ellipse_16" data-name="Ellipse 16" cx="9.268" cy="9.268" rx="9.268" ry="9.268" transform="translate(74.192 74.169)" fill="#ffd33a"/>
    <path id="Path_99" data-name="Path 99" d="M116.734,24l-3.2,9.586H81.586L78.391,24H72l4.793,15.976h41.538L123.124,24Z" transform="translate(-60.817 -22.402)" fill="#3e3c3c"/>
    <path id="Path_100" data-name="Path 100" d="M17.6,111.858H99.077a12.781,12.781,0,0,0,3.2-25.158v-.4h1.6a1.6,1.6,0,0,0,1.6-1.6V78.308a1.6,1.6,0,0,0-1.6-1.6h-1.6v-3.2h1.6a1.6,1.6,0,0,0,1.6-1.6V65.527a1.6,1.6,0,0,0-1.6-1.6H89.491V20.793a1.6,1.6,0,0,0-1.6-1.6H79.5l.341-1.138A1.6,1.6,0,0,0,78.308,16H71.917A1.6,1.6,0,0,0,70.4,17.092l-.7,2.1H35.791l-.7-2.1A1.6,1.6,0,0,0,33.574,16H27.183a1.6,1.6,0,0,0-1.53,2.057l.342,1.138H17.6a1.6,1.6,0,0,0-1.6,1.6V110.26a1.6,1.6,0,0,0,1.6,1.6Zm62.308-9.586v-3.2H86.3a12.764,12.764,0,0,0,.4,3.2Zm0-12.781V86.3H99.077a12.725,12.725,0,0,0-8.44,3.2Zm8.11,3.2a12.7,12.7,0,0,0-1.315,3.2H83.1v-3.2ZM79.905,76.71v-3.2H99.077v3.2Zm0-6.391h-1.6a1.6,1.6,0,0,0-1.6,1.6v6.391a1.6,1.6,0,0,0,1.6,1.6h1.6v3.2h-1.6a1.6,1.6,0,0,0-1.6,1.6v6.391a1.6,1.6,0,0,0,1.6,1.6h1.6v3.2h-1.6a1.6,1.6,0,0,0-1.6,1.6v4.793H25.586v-70.3h4.243l.617,2.057a1.6,1.6,0,0,0,1.53,1.138H73.515a1.6,1.6,0,0,0,1.53-1.138l.617-2.057h4.243Zm3.2,38.343v-3.2h4.915a12.868,12.868,0,0,0,2.621,3.2Zm25.562-9.586a9.586,9.586,0,1,1-9.586-9.586A9.586,9.586,0,0,1,108.663,99.077ZM102.272,83.1H83.1v-3.2h19.172Zm0-15.976v3.2H83.1v-3.2ZM78.538,22.391H86.3V63.929H83.1V30.379a1.6,1.6,0,0,0-1.6-1.6H76.621Zm-9.9,0-1.065,3.2H37.921l-1.065-3.2ZM32.422,19.2l2.831,8.493a1.6,1.6,0,0,0,1.516,1.092H68.722a1.6,1.6,0,0,0,1.516-1.093L73.069,19.2H76.16L72.326,31.976H33.164L29.33,19.2ZM19.2,22.391h7.758l1.917,6.391H23.988a1.6,1.6,0,0,0-1.6,1.6V103.87a1.6,1.6,0,0,0,1.6,1.6H79.905v3.2H19.2Z" transform="translate(-16 -16)"/>
    <path id="Path_101" data-name="Path 101" d="M108.781,153.6a1.6,1.6,0,0,0-1.6-1.6H97.6a1.6,1.6,0,1,0,0,3.2h3.2v11.183a1.6,1.6,0,0,0,3.2,0V155.2h3.2A1.6,1.6,0,0,0,108.781,153.6Z" transform="translate(-80.024 -124.84)"/>
    <path id="Path_102" data-name="Path 102" d="M169.6,167.977a1.6,1.6,0,0,0,1.6-1.6v-1.6h6.391v1.6a1.6,1.6,0,0,0,3.2,0v-3.2a1.6,1.6,0,0,0-.169-.715l-4.793-9.586a1.6,1.6,0,0,0-2.858,0l-4.793,9.586a1.6,1.6,0,0,0-.169.715v3.2A1.6,1.6,0,0,0,169.6,167.977Zm4.793-10.806,2.208,4.416h-4.416Z" transform="translate(-137.645 -124.841)"/>
    <path id="Path_103" data-name="Path 103" d="M258.432,152.242a1.6,1.6,0,0,0-2.2.508l-2.639,4.223-2.639-4.223a1.6,1.6,0,1,0-2.71,1.693l3.465,5.544-3.465,5.544a1.6,1.6,0,1,0,2.71,1.693L253.591,163l2.639,4.223a1.6,1.6,0,0,0,2.71-1.693l-3.465-5.545,3.465-5.544A1.6,1.6,0,0,0,258.432,152.242Z" transform="translate(-201.668 -124.839)"/>
    <path id="Path_104" data-name="Path 104" d="M172.253,264.418a1.6,1.6,0,0,0-2.257.1l-17.574,19.172a1.6,1.6,0,0,0,2.355,2.16l17.574-19.172a1.6,1.6,0,0,0-.1-2.258Z" transform="translate(-124.842 -214.472)"/>
    <path id="Path_105" data-name="Path 105" d="M153.586,268.793a4.793,4.793,0,1,0-4.793,4.793A4.793,4.793,0,0,0,153.586,268.793Zm-6.391,0a1.6,1.6,0,1,1,1.6,1.6A1.6,1.6,0,0,1,147.2,268.793Z" transform="translate(-118.438 -214.473)"/>
    <path id="Path_106" data-name="Path 106" d="M212.793,328a4.793,4.793,0,1,0,4.793,4.793A4.793,4.793,0,0,0,212.793,328Zm0,6.391a1.6,1.6,0,1,1,1.6-1.6A1.6,1.6,0,0,1,212.793,334.391Z" transform="translate(-169.657 -265.692)"/>
    <path id="Path_107" data-name="Path 107" d="M417.6,401.6v.432a3.192,3.192,0,0,0,1.6,5.958h-1.6a2.526,2.526,0,1,0,3.2,3.2v-.432a3.192,3.192,0,0,0-1.6-5.958h1.6a2.526,2.526,0,1,0-3.2-3.2Z" transform="translate(-336.116 -323.314)"/>
  </g>
</svg>
